<?xml version="1.0" standalone="no"?>
<!DOCTYPE svg PUBLIC "-//W3C//DTD SVG 20010904//EN"
 "http://www.w3.org/TR/2001/REC-SVG-20010904/DTD/svg10.dtd">
<svg version="1.0" xmlns="http://www.w3.org/2000/svg"
 width="500.000000pt" height="500.000000pt" viewBox="0 0 500.000000 500.000000"
 preserveAspectRatio="xMidYMid meet">
<metadata>
Created by potrace 1.11, written by Peter Selinger 2001-2013
</metadata>
<g transform="translate(0.000000,500.000000) scale(0.100000,-0.100000)"
fill="#000000" stroke="none">
<path d="M2650 3849 c0 -27 81 -256 219 -623 73 -192 128 -352 124 -356 -22
-19 -252 -180 -257 -180 -4 0 -32 21 -63 46 -32 26 -73 54 -93 63 -19 9 -67
48 -105 88 -56 56 -79 73 -110 79 -49 9 -119 -9 -161 -41 -63 -48 -86 -154
-51 -237 12 -28 13 -46 5 -80 -5 -23 -6 -79 -3 -124 l7 -81 -147 -47 c-81 -26
-148 -46 -149 -44 -1 2 -92 145 -201 318 -221 350 -349 545 -365 555 -29 18 0
-43 276 -572 96 -185 176 -341 177 -346 1 -6 -45 -31 -103 -57 -87 -39 -532
-299 -740 -432 -30 -19 -190 -117 -355 -218 -377 -230 -555 -342 -555 -352 0
-28 82 8 730 320 317 152 377 178 562 236 113 37 210 66 215 66 5 0 17 -16 26
-35 l16 -34 -97 -57 c-53 -31 -140 -83 -192 -115 -52 -32 -142 -86 -200 -120
-265 -158 -508 -310 -520 -324 -10 -12 -10 -15 4 -15 14 0 954 469 1033 516
31 18 32 18 52 0 32 -29 98 -31 151 -4 l45 23 41 -56 c66 -88 158 -120 276
-96 l37 8 51 -76 c29 -42 54 -74 57 -72 2 3 -7 45 -22 93 -25 83 -26 88 -8 97
42 23 102 98 123 154 18 47 21 74 18 146 l-3 87 27 0 c14 0 55 9 89 20 67 21
79 17 79 -26 0 -50 81 -73 120 -34 26 26 25 60 -2 95 -15 19 -18 30 -11 32 26
9 188 116 234 154 l49 41 46 -42 c68 -63 123 -84 219 -84 44 -1 94 3 112 8 31
8 33 6 84 -63 28 -39 53 -70 55 -68 2 2 -9 42 -25 88 l-28 85 42 36 c79 69
106 181 70 283 -19 52 -20 49 19 63 52 19 96 74 96 121 l0 38 148 68 c248 115
922 455 922 465 0 15 -38 4 -200 -61 -127 -50 -617 -250 -829 -338 -41 -17
-75 -31 -77 -31 -9 0 -35 63 -31 74 3 7 87 71 188 142 168 120 219 149 599
344 474 243 610 318 610 337 0 7 -2 13 -5 13 -12 0 -414 -158 -1030 -405 -440
-176 -711 -291 -767 -323 l-88 -51 -14 27 c-8 15 -84 173 -169 352 -173 362
-276 563 -277 539z m-257 -930 c28 -14 66 -49 77 -70 7 -12 -2 -10 -38 8 -104
54 -217 -8 -238 -130 -5 -34 -8 -38 -15 -22 -14 37 -9 109 10 145 27 52 74 80
133 80 27 0 59 -5 71 -11z m47 -106 c36 -25 49 -45 50 -75 0 -23 -4 -28 -25
-28 -21 0 -25 5 -25 28 0 15 -9 42 -20 60 -22 36 -16 40 20 15z m-69 -22 c32
-33 38 -71 13 -95 -28 -29 -68 -18 -89 25 -19 36 -19 58 2 81 23 25 40 23 74
-11z m-111 -90 c11 -22 28 -44 37 -49 14 -9 15 -13 4 -26 -19 -22 -37 -20 -55
6 -14 20 -23 108 -11 108 2 0 14 -18 25 -39z"/>
</g>
</svg>
