<?xml version="1.0" encoding="utf-8"?>
<!-- Generator: Adobe Illustrator 16.0.0, SVG Export Plug-In . SVG Version: 6.00 Build 0)  -->
<!DOCTYPE svg PUBLIC "-//W3C//DTD SVG 1.1//EN" "http://www.w3.org/Graphics/SVG/1.1/DTD/svg11.dtd">
<svg version="1.1" id="Layer_1" xmlns="http://www.w3.org/2000/svg" xmlns:xlink="http://www.w3.org/1999/xlink" x="0px" y="0px"
	 width="300px" height="300px" viewBox="0 0 300 300" enable-background="new 0 0 300 300" xml:space="preserve">
<path fill-rule="evenodd" clip-rule="evenodd" fill="#EEEEEE" d="M0.335,189.586"/>
<path fill-rule="evenodd" clip-rule="evenodd" fill="#EEEEEE" d="M293.632,193.941c-0.48,1.361-0.602,3.038-1.488,4.037
	c-24.086,27.172-53.017,47.308-87.472,59.024c-4.346,1.479-9.738,1.327-14.329,0.39c-20.291-4.145-39.701-4.494-60.963-1.902
	c-20.345,2.479-44.163-6.652-63.251-16.742c-12.561-6.641-23.634-15.472-38.089-19.894c-17.713-5.409-26.44-20.599-27.863-38.662
	c-1.443-18.29,5.977-33.963,22.383-42.077c12.431-6.152,21.025-13.699,26.37-26.435c3.521-8.391,9.851-15.393,18.496-19.574
	c6.736,0.003,12.25,2.882,17.138,7.256c54.885,49.137,121.225,72.146,192.302,84.449
	C283.586,184.975,290.992,185.703,293.632,193.941z"/>
<path fill-rule="evenodd" clip-rule="evenodd" fill="#FDFDFD" d="M293.632,193.941c-69.313-9.452-135.133-28.51-192.045-71.193
	c-12.213-9.159-24.712-18.273-34.159-30.642c11.753-9.913,25.746-12.914,40.506-11.804c8.484,0.638,14.368-1.457,20-8.146
	c21.426-25.449,48.984-35.464,81.402-27.691c31.254,7.496,50.737,28.261,58.996,59.185c2.101,7.863,6.293,13.493,12.072,18.973
	C300.738,141.907,305.425,168.6,293.632,193.941z"/>
</svg>
