<svg xmlns="http://www.w3.org/2000/svg" width="300" height="300"><path fill-rule="evenodd" clip-rule="evenodd" fill="#EEE" d="M293.632 193.941c-.48 1.361-.602 3.038-1.488 4.037-24.086 27.172-53.017 47.308-87.472 59.024-4.346 1.479-9.738 1.327-14.329.39-20.291-4.145-39.701-4.494-60.963-1.902-20.345 2.479-44.163-6.652-63.251-16.742-12.561-6.641-23.634-15.472-38.089-19.894C10.327 213.445 1.6 198.255.177 180.192c-1.443-18.29 5.977-33.963 22.383-42.077 12.431-6.152 21.025-13.699 26.37-26.435 3.521-8.391 9.851-15.393 18.496-19.574 6.736.003 12.25 2.882 17.138 7.256 54.885 49.137 121.225 72.146 192.302 84.449 6.72 1.164 14.126 1.892 16.766 10.13z"/><path fill-rule="evenodd" clip-rule="evenodd" fill="#FDFDFD" d="M293.632 193.941c-69.313-9.452-135.133-28.51-192.045-71.193-12.213-9.159-24.712-18.273-34.159-30.642 11.753-9.913 25.746-12.914 40.506-11.804 8.484.638 14.368-1.457 20-8.146 21.426-25.449 48.984-35.464 81.402-27.691 31.254 7.496 50.737 28.261 58.996 59.185 2.101 7.863 6.293 13.493 12.072 18.973 20.334 19.284 25.021 45.977 13.228 71.318z"/></svg>