<svg xmlns="http://www.w3.org/2000/svg" width="300" height="300"><path fill-rule="evenodd" clip-rule="evenodd" fill="#FDFDFD" d="M39.689 119.717C47.467 92.1 72.304 77.219 99.798 85.145c9.704 2.796 13.446.342 18.197-7.916 17.179-29.862 56.269-33.425 79.06-7.636 4.369 4.946 8.178 9.525 15.568 8.32 1.063-.173 2.684.143 3.344.871 14.391 15.877 41.652 17.164 47.92 42.278.814 3.26 3.307 4.881 6.688 5.895 28.092 8.44 29.635 10.659 29.408 40.503-5.879 6.239-13.061 7.953-21.611 8.507-42.545 2.753-84.891 2.355-127.051-4.711-35.136-5.888-69.04-15.559-101.391-30.784-9.78-4.605-13.643-10.463-10.241-20.755z"/><path fill-rule="evenodd" clip-rule="evenodd" fill="#EEE" d="M39.689 119.717c.771 8.207 6.489 12.005 13.176 15.18 42.499 20.19 87.68 30.198 134.167 34.654 37.674 3.612 75.361 2.061 112.949-2.092-5.158 14.917-13.148 21.78-28.457 21.484-9.916-.189-15.986 3.085-20.914 11.518-4.893 8.378-13.059 13.56-22.311 16.492-9.842 3.122-21.037 2.642-28.17 12.492-1.973 2.726-7.236 2.91-9.961.859-7.932-5.967-15.438-1.357-23.41-.896-20.967 1.219-39.879 7.938-59.512 14.902-35.647 12.654-72.367-12.21-74.73-45.282-.432-6.045-4.24-8.456-9.583-10.354-15.914-5.657-24.198-17.55-22.779-31.663 1.402-13.941 11.146-24.323 27.051-26.819 7.023-1.1 10.372-4.543 12.484-10.475z"/></svg>