<svg xmlns="http://www.w3.org/2000/svg" width="300" height="300"><path fill-rule="evenodd" clip-rule="evenodd" fill="#EEE" d="M0 139.466a6.822 6.822 0 0 0 1.726-.283c4.265-2.306 7.834-.37 11.437 1.779 27.754 16.555 58.375 23.917 90.118 25.771 32.862 1.913 64.726-5.231 96.025-14.796 5.573-1.705 11.093-3.559 16.67-5.248 3.711-1.122 6.708-1.232 8.271 3.045 5.616 3.167 13.353-.334 17.799 3.669 12.331 11.105 26.223 17.659 42.261 21.978 8.254 2.219 12.456 12.483 15.053 21.056 3.018 9.955-4.937 19.472-16.95 19.09-10.661-.342-20.956.39-31.39 2.271-6.053 1.09-13.123 1.214-17.915-2.742-10.788-8.905-23.651-12.954-36.117-18.237-4.797-2.034-7.82-2.396-11.829 1.174-15.849 14.104-33.619 17.542-53.292 8.612-2.827-1.282-5.743-2.714-8.873-1.464-8.345 3.342-15.982 2.513-23.25-2.959-3.305-2.488-6.427-.257-9.557 1.227-25.121 11.909-44.911 7.181-62.678-14.828-1.498-1.854-2.901-4.077-4.875-5.207-11.7-6.715-18.181-17.297-22.634-29.5v-14.408z"/><path fill-rule="evenodd" clip-rule="evenodd" fill="#FDFDFD" d="M224.246 149.734c-30.589 10.164-61.353 19.7-93.787 21.767-46.312 2.951-90.042-4.74-128.732-32.318 3.332-17.194 9.801-22.877 26.12-21.398 5.872.533 6.124-2.989 7.066-6.481C38.11 99.449 44.642 90.2 55.787 84.7c14.95-7.378 32.691-1.456 38.568 14.07 3.028 7.999 6.022 9.165 13.747 6.598 7.812-2.597 16.571-.724 21.825 5.561 6.6 7.895 9.098 3.634 13.424-1.761 13.012-16.233 33.646-22.079 52.582-15.507 23.588 8.186 35.566 31.903 28.313 56.073z"/></svg>