<svg xmlns="http://www.w3.org/2000/svg" width="300" height="300"><path fill-rule="evenodd" clip-rule="evenodd" fill="#EEE" d="M298.945 168.515c6.016 24.302-14.6 45.678-38.839 39.658-7.535-1.868-13.238-2.308-19.811 3.188-7.039 5.889-16.246 4.831-24.089.939-8.36-4.152-13.75-1.901-20.063 4.288-23.262 22.806-51.257 34.002-84.13 32.359-16.669-.83-31.779-5.251-43.364-17.96-4.508-4.949-10.1-5.813-16.23-6.582-16.689-2.09-32.467-6.643-43.818-20.244-8.015-9.605-10.958-20.598-6.564-32.68 4.112-11.3 13.079-15.89 24.563-15.853 8.768.033 7.301-5.531 6.239-10.758-3.375-16.612-2.697-32.784 4.67-48.336 6.538-4.841 10.377.759 14.545 4.012 34.507 26.939 71.955 48.478 113.551 62.556 23.365 7.902 47.301 12.752 71.904 14.502 12.436.888 24.407 3.704 37.412.623 8.868-2.098 15.497-7.934 24.024-9.712"/><path fill-rule="evenodd" clip-rule="evenodd" fill="#FDFDFD" d="M298.945 168.515c-.07 11.436-6.683 14.455-17.126 15.305-90.36 7.364-166.723-25.925-235.939-80.377-2.842-2.236-5.582-4.602-8.369-6.907C49.399 66.5 80.186 48.518 115.218 51.148c32.881 2.47 62.393 27.943 69.283 61.324 2.267 10.979 3.928 20.129 17.778 20.414 3.494.071 7.45 2.859 8.521 6.154 3.721 11.462 11.54 14.179 22.782 14.259 8.629.062 16.296 5.331 20.561 13.158 4.281 7.864 7.306 6.728 13.14 1.255 10.605-9.954 21.668-9.171 31.662.803"/></svg>