<svg xmlns="http://www.w3.org/2000/svg" width="300" height="300"><path fill-rule="evenodd" clip-rule="evenodd" fill="#EEE" d="M298.407 186.737c-2.318 8.555-8.613 13.377-16.097 17.007-40.167 19.484-81.794 23.063-124.638 10.78-7.475-2.143-13.593-3.007-20.837 1.594-10.194 6.471-21.844 6.783-32.889 1.618-5.313-2.482-9.959-2.624-15.432-.995-24.902 7.419-49.246 4.929-72.935-5.148-11.94-5.083-16.987-12.65-15.245-22.007 1.809-9.71 10.038-15.566 22.982-15.191 5.925.174 10.078-.915 13.544-6.132 3.462-5.212 9.235-6.128 15.313-5.603 15.269 1.31 16.368.122 15.742-15.337-.888-21.891 6.225-40.263 23.949-53.902 4.149.065 7.556 1.385 10.392 4.723 37.169 43.726 85.656 66.75 141.081 77.281 15.212 2.893 30.659 3.448 45.902 5.788 3.688.568 8.089.427 9.168 5.524z"/><path fill-rule="evenodd" clip-rule="evenodd" fill="#FDFDFD" d="M298.407 186.737c-49.175-2.222-96.713-10.895-140.152-35.655-25.965-14.802-48.776-33.238-66.388-57.661 15.075-12.708 32.407-17.478 51.738-13.945 22.83 4.173 37.331 17.567 42.354 40.439 1.143 5.201 2.115 8.999 8.866 7.235 1.892-.495 4.871.665 6.467 2.069 3.625 3.188 6.82 2.654 11.037 1.148 14.465-5.171 25.891-1.018 33.115 12.522 2.839 5.321 5.838 6.522 11.167 4.899 7.356-2.241 14.704-1.154 21.855 1.109 17.765 5.619 25.04 19.524 19.941 37.84z"/></svg>