<?xml version="1.0" encoding="utf-8"?>
<!-- Generator: Adobe Illustrator 19.0.0, SVG Export Plug-In . SVG Version: 6.00 Build 0)  -->
<svg version="1.1" id="Layer_1" xmlns="http://www.w3.org/2000/svg" xmlns:xlink="http://www.w3.org/1999/xlink" x="0px" y="0px"
	 viewBox="-199 203.1 100 95.7" style="enable-background:new -199 203.1 100 95.7;" xml:space="preserve">
<style type="text/css">
	.st0{fill:#FFFFFF;}
</style>
<g>
	<g>
		<path class="st0" d="M-199,242c0.8,0.2,1.5,0.4,2.3,0.5c5,1.2,10,2.5,15,3.7c0.1,0,0.3,0,0.4-0.1c6.7-4.8,13.4-9.5,20.1-14.3
			c2.5-1.8,5-3.6,7.5-5.4c0.2-0.1,0.4-0.2,0.6-0.1c4,1.1,7.9,2.3,11.9,3.4c5.1,1.4,10.2,2.9,15.3,4.4c0.3,0.1,0.3-0.1,0.5-0.2
			c1.8-2.1,3.7-4.3,5.5-6.4c3.3-3.8,6.6-7.7,9.9-11.5c3.4-4,6.9-8,10.3-12c0.2-0.3,0.5-0.6,0.8-0.9c0,31.9,0,63.8,0,95.7
			c-0.1,0-0.2,0-0.3,0c-33.1,0-66.2,0-99.3,0c-0.1,0-0.2,0-0.3,0C-199,279.9-199,261-199,242z M-195,294.9c30.7,0,61.3,0,92,0
			c0-16.6,0-33.1,0-49.7c-0.1,0.1-0.2,0.1-0.2,0.2c-4.2,3.6-8.3,7.1-12.5,10.7c-0.3,0.2-0.5,0.6-0.9,0.7c-0.3,0.1-0.7-0.2-1.1-0.3
			c-4.7-1.7-9.3-3.3-14-5c-4.1-1.5-8.1-2.9-12.2-4.4c-0.3-0.1-0.5-0.1-0.6,0.2c-0.1,0.2-0.2,0.3-0.3,0.5
			c-5.1,7.1-10.1,14.2-15.2,21.3c-1.3,1.9-2.7,3.7-4,5.6c-0.1,0.2-0.3,0.3-0.5,0.2c-0.3-0.1-0.6-0.1-0.9-0.2
			c-9.6-2.4-19.2-4.8-28.8-7.2c-0.2-0.1-0.5-0.1-0.7-0.2C-195,276.4-195,285.6-195,294.9z M-127,248.9c0.1,0,0.1,0.1,0.2,0.1
			c3,1.1,6,2.1,9,3.2c0.3,0.1,0.5,0,0.7-0.1c2-1.7,4-3.4,6-5.2c2.4-2.1,4.8-4.2,7.2-6.2c0.7-0.6,1-1.1,0.9-2c-0.1-0.6,0-1.1,0-1.8
			c-0.5,1.2-1.3,1.8-2.3,1.6c-1-0.2-1.7-0.9-1.7-1.9c0-0.9,0.6-1.7,1.4-2c0.6-0.2,1.1-0.1,1.6,0.2c0.5,0.3,0.8,0.8,1,1.3
			c0-3.7,0-7.4,0-11.1c-0.6,1.3-1.4,1.8-2.5,1.5c-0.9-0.2-1.5-1-1.5-1.9c0-0.9,0.7-1.7,1.6-1.9c1-0.2,1.8,0.2,2.4,1.5
			c0-3.4,0-6.7,0-10.1c-0.1,0.1-0.2,0.2-0.3,0.3c-3.5,4.1-7,8.2-10.5,12.3c-3.4,4-6.9,8-10.3,12.1c-0.1,0.2-0.3,0.2-0.5,0.1
			c-0.9-0.3-1.8-0.5-2.7-0.7c-0.1,0-0.3,0-0.4,0.1c-1.2,0.9-2.7,0.5-3.2-0.9c-0.1-0.2-0.2-0.3-0.3-0.3c-0.9-0.3-1.8-0.5-2.7-0.8
			c-4.2-1.2-8.3-2.4-12.5-3.6c-0.1,0-0.2-0.1-0.3,0c-0.7,0.2-1.2,0-1.7-0.4c-0.1-0.1-0.2-0.1-0.3-0.2c-1.2-0.4-2.4-0.7-3.6-1.1
			c-0.2-0.1-0.3,0-0.5,0.1c-5.3,3.8-10.6,7.6-15.9,11.4c-0.2,0.1-0.3,0.2-0.3,0.5c0,1.2-1.3,2.1-2.5,1.7c-0.2-0.1-0.4,0-0.5,0.1
			c-0.9,0.7-1.8,1.3-2.8,2c-0.3,0.2-0.5,0.4-0.8,0.6c0.8,1.2,0.7,2.3-0.3,3.1c-0.4,0.3-0.9,0.4-1.4,0.4c-0.7-0.1-1.2-0.5-1.6-1.1
			c-0.5,0.4-1.1,0.8-1.6,1.2c-0.1,0.1-0.3,0.1-0.4,0.1c-1.6-0.4-3.1-0.8-4.7-1.2c-0.6-0.1-1.1-0.3-1.7-0.4c-0.6,1.3-1.5,1.7-2.6,1.4
			c-1-0.3-1.5-1.3-1.3-2.3c-1.4-0.3-2.7-0.7-4.1-1c0,1.8,0,3.6,0,5.4c1.2,0.2,1.9,0.9,2,1.9c0,0.5-0.1,0.9-0.3,1.3
			c-0.4,0.6-1,0.8-1.6,0.9c0,0.1,0,0.1,0,0.1c0,2,0,4.1,0,6.1c0,0.2,0.1,0.2,0.3,0.3c3.2,0.8,6.4,1.6,9.7,2.4c0.3,0.1,0.4,0,0.6-0.2
			c0.5-0.6,1.2-0.9,2-0.6c0.8,0.2,1.3,0.7,1.5,1.6c0,0.2,0.1,0.3,0.4,0.4c4.8,1.2,9.7,2.4,14.5,3.7c0.2,0.1,0.3,0,0.5-0.2
			c1.8-2.5,3.5-5,5.3-7.4c3.9-5.5,7.8-11,11.8-16.5c0.4-0.6,0.8-1.2,1.2-1.7c-0.1,0-0.2-0.1-0.3-0.1c-0.9-0.4-1.5-1.3-1.2-2.2
			c0.2-0.9,1-1.5,2-1.5c1,0,1.7,0.6,1.9,1.6c0,0.2,0.2,0.3,0.3,0.4c4.6,1.6,9.1,3.3,13.7,4.9c0.3,0.1,0.4,0.1,0.6-0.2
			c0.6-0.7,1.5-0.9,2.3-0.5C-127.3,247.1-126.9,248-127,248.9z"/>
		<path class="st0" d="M-173,254.5c0-1.1,0.9-2,2-2c1.1,0,2,0.9,2,2.1c0,1-0.9,1.9-2,1.9C-172.1,256.5-173,255.6-173,254.5z"/>
		<path class="st0" d="M-159,240.6c1.1,0,2,0.9,2,2c0,1.1-0.9,2-2,2c-1.1,0-2-0.9-2-2C-161,241.5-160.1,240.5-159,240.6z"/>
		<path class="st0" d="M-135,240.6c1.1,0,2,0.9,2,2c0,1.1-0.9,2-2,2c-1.1,0-2-0.9-2-2C-137,241.4-136.1,240.5-135,240.6z"/>
		<path class="st0" d="M-115,236.5c0,1.1-0.9,2-1.9,2c-1.1,0-2-0.9-2-1.9c0-1.2,0.8-2.1,2-2.1C-115.9,234.5-115,235.4-115,236.5z"/>
		<path class="st0" d="M-161,254.6c0-1.1,0.9-2,2-2c1.1,0,2,0.9,2,2c0,1.1-0.9,2-2,2C-160.1,256.6-161,255.6-161,254.6z"/>
		<path class="st0" d="M-111,244.5c-1.1,0-2-0.9-2-2c0-1.1,0.9-2,2-2c1.1,0,2,0.9,2,2C-109,243.7-109.9,244.5-111,244.5z"/>
		<path class="st0" d="M-153,250.5c-1.1,0-2-0.9-2-2c0-1.1,0.9-2,2-2c1.1,0,2,0.9,2,2C-151,249.6-151.9,250.5-153,250.5z"/>
		<path class="st0" d="M-185,254.6c0-1.1,0.9-2,2-2c1.1,0,2,0.9,2,2c0,1.1-0.9,2-2,2C-184.1,256.6-185,255.6-185,254.6z"/>
		<path class="st0" d="M-113,230.5c0-1.1,0.9-2,2-2c1.1,0,2,0.9,2,2c0,1.1-0.9,2-2,2C-112.1,232.5-113,231.6-113,230.5z"/>
		<path class="st0" d="M-139,236.5c0,1.1-0.9,2-2,2c-1.1,0-2-0.9-2-2c0-1.1,0.9-2,2-2C-139.9,234.5-139,235.4-139,236.5z"/>
		<path class="st0" d="M-163,260.5c0,1.1-0.9,2-2,2c-1.1,0-2-0.9-2-2c0-1.1,0.9-2,2-2C-163.9,258.5-163,259.4-163,260.5z"/>
		<path class="st0" d="M-165,250.5c-1.1,0-2-0.9-2-2c0-1.1,0.9-2,2.1-1.9c1.1,0,1.9,1,1.9,2C-163,249.7-163.9,250.6-165,250.5z"/>
		<path class="st0" d="M-187,260.5c0,1.1-0.9,2-2,2c-1.1,0-2-0.9-2-2c0-1.1,0.9-2,2-2C-187.9,258.5-187,259.4-187,260.5z"/>
		<path class="st0" d="M-171,264.6c1.1,0,2,0.9,2,2c0,1.1-0.9,1.9-2,1.9c-1.1,0-2-0.9-2-2C-173,265.4-172.1,264.6-171,264.6z"/>
		<path class="st0" d="M-153,238.5c-1.1,0-2-0.9-2-2c0-1.1,0.9-2,2-2c1.1,0,2,0.9,2,2C-151,237.6-151.9,238.5-153,238.5z"/>
		<path class="st0" d="M-175,260.6c0,1.1-0.9,2-2,2c-1.1,0-2-0.9-2-2c0-1.1,0.9-2,2-2C-175.9,258.6-175,259.5-175,260.6z"/>
		<path class="st0" d="M-115,248.6c0,1.1-0.9,2-2,2c-1.1,0-2-0.9-1.9-2.1c0-1.1,1-1.9,2.1-1.9C-115.8,246.6-115,247.5-115,248.6z"/>
		<path class="st0" d="M-123,244.5c-1.1,0-2-0.9-2-2c0-1.1,0.9-2,2-2c1.1,0,2,0.9,2,2C-121,243.7-121.9,244.5-123,244.5z"/>
	</g>
</g>
</svg>
