<?xml version="1.0" encoding="utf-8"?>
<!-- Generator: Adobe Illustrator 16.0.0, SVG Export Plug-In . SVG Version: 6.00 Build 0)  -->
<!DOCTYPE svg PUBLIC "-//W3C//DTD SVG 1.1//EN" "http://www.w3.org/Graphics/SVG/1.1/DTD/svg11.dtd">
<svg version="1.1" id="Layer_1" xmlns="http://www.w3.org/2000/svg" xmlns:xlink="http://www.w3.org/1999/xlink" x="0px" y="0px"
	 width="300px" height="300px" viewBox="0 0 300 300" enable-background="new 0 0 300 300" xml:space="preserve">
<path fill-rule="evenodd" clip-rule="evenodd" fill="#EEEEEE" d="M298.407,186.737c-2.318,8.555-8.613,13.377-16.097,17.007
	c-40.167,19.484-81.794,23.063-124.638,10.78c-7.475-2.143-13.593-3.007-20.837,1.594c-10.194,6.471-21.844,6.783-32.889,1.618
	c-5.313-2.482-9.959-2.624-15.432-0.995c-24.902,7.419-49.246,4.929-72.935-5.148c-11.94-5.083-16.987-12.65-15.245-22.007
	c1.809-9.71,10.038-15.566,22.982-15.191c5.925,0.174,10.078-0.915,13.544-6.132c3.462-5.212,9.235-6.128,15.313-5.603
	c15.269,1.31,16.368,0.122,15.742-15.337c-0.888-21.891,6.225-40.263,23.949-53.902c4.149,0.065,7.556,1.385,10.392,4.723
	c37.169,43.726,85.656,66.75,141.081,77.281c15.212,2.893,30.659,3.448,45.902,5.788
	C292.927,181.781,297.328,181.64,298.407,186.737z"/>
<path fill-rule="evenodd" clip-rule="evenodd" fill="#FDFDFD" d="M298.407,186.737c-49.175-2.222-96.713-10.895-140.152-35.655
	c-25.965-14.802-48.776-33.238-66.388-57.661c15.075-12.708,32.407-17.478,51.738-13.945c22.83,4.173,37.331,17.567,42.354,40.439
	c1.143,5.201,2.115,8.999,8.866,7.235c1.892-0.495,4.871,0.665,6.467,2.069c3.625,3.188,6.82,2.654,11.037,1.148
	c14.465-5.171,25.891-1.018,33.115,12.522c2.839,5.321,5.838,6.522,11.167,4.899c7.356-2.241,14.704-1.154,21.855,1.109
	C296.231,154.516,303.506,168.421,298.407,186.737z"/>
</svg>
