<svg xmlns="http://www.w3.org/2000/svg" width="300" height="300"><path fill-rule="evenodd" clip-rule="evenodd" fill="#FDFDFD" d="M66.396 104.371c13.758-20.384 37.509-23.849 56.64-8.264 12.188 9.931 27.984 7.282 35.442-5.943 9.501-16.852 27.592-24.654 47.418-20.452 17.384 3.682 30.999 19.378 31.569 38.122.27 8.839 3.311 13.042 11.234 17.618 12.871 7.438 24.438 17.096 37.931 23.892 7.601 3.827 9.169 13.048 13.37 19.896v15.552c-2.198 2.973-4.396 5.94-6.594 8.913-4.138 3.298-8.512 4.986-14.138 4.678-73.894-4.031-139.438-31.062-199.777-72.351-7.372-5.046-16.665-9.667-13.095-21.661z"/><path fill-rule="evenodd" clip-rule="evenodd" fill="#EEE" d="M66.396 104.371c2.267 6.269 7.167 10.202 12.35 13.862 58.241 41.138 121.817 68.208 193.671 73.493 7.009.517 13.995 1.311 20.99 1.979-4.828 11.694-14.691 16.407-26.24 17.341-7.629.616-14.114 2.464-20.564 6.729-12.901 8.527-26.711 8.766-39.645.243-6.718-4.426-10.671-4.708-16.739 1.541-14.724 15.153-35.856 15.8-51.878 1.783-5.971-5.225-9.607-5.45-15.871-.646-11.23 8.613-23.383 7.729-35.151.238-1.244-.794-2.372-2.538-3.552-2.538-17.659-.013-32.91-10.922-49.977-11.756-16.592-.812-30.563-9.599-33.261-24.964-2.806-15.961 5.715-30.646 22.14-34.71 13.901-3.446 22.1-15.271 34.652-20.882 6.236-2.789 3.416-15.306 9.075-21.713z"/></svg>