<?xml version="1.0" encoding="utf-8"?>
<!-- Generator: Adobe Illustrator 16.0.0, SVG Export Plug-In . SVG Version: 6.00 Build 0)  -->
<!DOCTYPE svg PUBLIC "-//W3C//DTD SVG 1.1//EN" "http://www.w3.org/Graphics/SVG/1.1/DTD/svg11.dtd">
<svg version="1.1" id="Layer_1" xmlns="http://www.w3.org/2000/svg" xmlns:xlink="http://www.w3.org/1999/xlink" x="0px" y="0px"
	 width="300px" height="300px" viewBox="0 0 300 300" enable-background="new 0 0 300 300" xml:space="preserve">
<path fill-rule="evenodd" clip-rule="evenodd" fill="#EEEEEE" d="M291.264,196.954c-1.941,7.025-0.262,13.767,1.072,20.697
	c4.701,24.422-10.004,46.213-34.461,46.566c-70.556,1.024-141.146,0.98-211.702-0.088c-23.407-0.354-42.622-20.779-45.638-43.279
	c-3.282-24.517,8.692-47.971,31.495-55.996c13.567-4.773,21.105-10.478,19.84-25.875c-0.733-8.964,3.674-18.598,11.771-21.63
	c16.628-6.222,21.905-18.538,23.594-34.173c6.931-0.87,7.645,4.095,8.426,8.983c1.805,11.284,8.41,19.309,17.01,26.354
	c44.465,36.426,94.226,61.203,151.464,70.024C273.511,189.979,283.543,189.928,291.264,196.954z"/>
<path fill-rule="evenodd" clip-rule="evenodd" fill="#FDFDFD" d="M291.264,196.954c-28.26,5.229-54.342-4.674-80.316-12.762
	c-42.286-13.159-78.144-37.974-112.2-65.635c-11.705-9.511-11.146-22.465-11.512-35.377c12.925-45.299,60.106-62.389,97.962-34.9
	c8.332,6.052,16.79,8.471,26.633,9.489C278.316,64.648,318.775,135.751,291.264,196.954z"/>
</svg>
