<?xml version="1.0" encoding="utf-8"?>
<!-- Generator: Adobe Illustrator 16.0.0, SVG Export Plug-In . SVG Version: 6.00 Build 0)  -->
<!DOCTYPE svg PUBLIC "-//W3C//DTD SVG 1.1//EN" "http://www.w3.org/Graphics/SVG/1.1/DTD/svg11.dtd">
<svg version="1.1" id="Layer_1" xmlns="http://www.w3.org/2000/svg" xmlns:xlink="http://www.w3.org/1999/xlink" x="0px" y="0px"
	 width="300px" height="300px" viewBox="0 0 300 300" enable-background="new 0 0 300 300" xml:space="preserve">
<path fill-rule="evenodd" clip-rule="evenodd" fill="#EEEEEE" d="M291.467,241.059c-7.327,9.582-17.56,13.182-29.052,13.203
	c-64.447,0.109-128.905,0.756-193.335-0.328c-30.092-0.508-51.866-16.926-63.187-44.746c-11.591-28.482-5.862-55.037,15.25-77.071
	c8.038-8.385,13.401-16.509,14.877-28.131c1.154-9.101,4.596-17.979,11.272-24.987c6.516-2.801,10.686-0.166,14.958,5.061
	c28.914,35.365,62.256,66.046,99.197,92.885c35.007,25.439,72.937,44.627,115.211,54.727
	C282.643,233.102,289.044,233.969,291.467,241.059z"/>
<path fill-rule="evenodd" clip-rule="evenodd" fill="#FDFDFD" d="M291.467,241.059c-49.028-6.623-91.652-28.369-131.372-56.443
	c-39.142-27.664-73.801-60.291-104.38-97.235c-2.513-3.037-5.6-5.6-8.422-8.383c16.283-25.109,40.171-36.06,69.075-33.069
	c30.644,3.167,52.558,20.171,62.894,49.721c3.603,10.297,10.964,16.685,16.991,24.692c11.973,15.908,26.352,20.598,44.129,24.151
	c13.915,2.78,23.255,14.057,28.427,27.592c2.323,6.084,5.949,10.166,11.643,13.596C301.841,198.555,305.932,220.311,291.467,241.059
	z"/>
</svg>
