<?xml version="1.0" encoding="utf-8"?>
<!-- Generator: Adobe Illustrator 16.0.0, SVG Export Plug-In . SVG Version: 6.00 Build 0)  -->
<!DOCTYPE svg PUBLIC "-//W3C//DTD SVG 1.1//EN" "http://www.w3.org/Graphics/SVG/1.1/DTD/svg11.dtd">
<svg version="1.1" id="Layer_1" xmlns="http://www.w3.org/2000/svg" xmlns:xlink="http://www.w3.org/1999/xlink" x="0px" y="0px"
	 width="300px" height="300px" viewBox="0 0 300 300" enable-background="new 0 0 300 300" xml:space="preserve">
<path fill-rule="evenodd" clip-rule="evenodd" fill="#FDFDFD" d="M66.396,104.371c13.758-20.384,37.509-23.849,56.64-8.264
	c12.188,9.931,27.984,7.282,35.442-5.943c9.501-16.852,27.592-24.654,47.418-20.452c17.384,3.682,30.999,19.378,31.569,38.122
	c0.27,8.839,3.311,13.042,11.234,17.618c12.871,7.438,24.438,17.096,37.931,23.892c7.601,3.827,9.169,13.048,13.37,19.896
	c0,5.186,0,10.371,0,15.552c-2.198,2.973-4.396,5.94-6.594,8.913c-4.138,3.298-8.512,4.986-14.138,4.678
	c-73.894-4.031-139.438-31.062-199.777-72.351C72.119,120.986,62.826,116.365,66.396,104.371z"/>
<path fill-rule="evenodd" clip-rule="evenodd" fill="#EEEEEE" d="M66.396,104.371c2.267,6.269,7.167,10.202,12.35,13.862
	c58.241,41.138,121.817,68.208,193.671,73.493c7.009,0.517,13.995,1.311,20.99,1.979c-4.828,11.694-14.691,16.407-26.24,17.341
	c-7.629,0.616-14.114,2.464-20.564,6.729c-12.901,8.527-26.711,8.766-39.645,0.243c-6.718-4.426-10.671-4.708-16.739,1.541
	c-14.724,15.153-35.856,15.8-51.878,1.783c-5.971-5.225-9.607-5.45-15.871-0.646c-11.23,8.613-23.383,7.729-35.151,0.238
	c-1.244-0.794-2.372-2.538-3.552-2.538c-17.659-0.013-32.91-10.922-49.977-11.756c-16.592-0.812-30.563-9.599-33.261-24.964
	c-2.806-15.961,5.715-30.646,22.14-34.71c13.901-3.446,22.1-15.271,34.652-20.882C63.557,123.295,60.737,110.778,66.396,104.371z"/>
</svg>
