<?xml version="1.0" encoding="utf-8"?>
<!-- Generator: Adobe Illustrator 16.0.0, SVG Export Plug-In . SVG Version: 6.00 Build 0)  -->
<!DOCTYPE svg PUBLIC "-//W3C//DTD SVG 1.1//EN" "http://www.w3.org/Graphics/SVG/1.1/DTD/svg11.dtd">
<svg version="1.1" id="Layer_1" xmlns="http://www.w3.org/2000/svg" xmlns:xlink="http://www.w3.org/1999/xlink" x="0px" y="0px"
	 width="300px" height="300px" viewBox="0 0 300 300" enable-background="new 0 0 300 300" xml:space="preserve">
<path fill-rule="evenodd" clip-rule="evenodd" fill="#EEEEEE" d="M298.945,168.515c6.016,24.302-14.6,45.678-38.839,39.658
	c-7.535-1.868-13.238-2.308-19.811,3.188c-7.039,5.889-16.246,4.831-24.089,0.939c-8.36-4.152-13.75-1.901-20.063,4.288
	c-23.262,22.806-51.257,34.002-84.13,32.359c-16.669-0.83-31.779-5.251-43.364-17.96c-4.508-4.949-10.1-5.813-16.23-6.582
	c-16.689-2.09-32.467-6.643-43.818-20.244c-8.015-9.605-10.958-20.598-6.564-32.68c4.112-11.3,13.079-15.89,24.563-15.853
	c8.768,0.033,7.301-5.531,6.239-10.758c-3.375-16.612-2.697-32.784,4.67-48.336c6.538-4.841,10.377,0.759,14.545,4.012
	c34.507,26.939,71.955,48.478,113.551,62.556c23.365,7.902,47.301,12.752,71.904,14.502c12.436,0.888,24.407,3.704,37.412,0.623
	C283.789,176.129,290.418,170.293,298.945,168.515"/>
<path fill-rule="evenodd" clip-rule="evenodd" fill="#FDFDFD" d="M298.945,168.515c-0.07,11.436-6.683,14.455-17.126,15.305
	c-90.36,7.364-166.723-25.925-235.939-80.377c-2.842-2.236-5.582-4.602-8.369-6.907C49.399,66.5,80.186,48.518,115.218,51.148
	c32.881,2.47,62.393,27.943,69.283,61.324c2.267,10.979,3.928,20.129,17.778,20.414c3.494,0.071,7.45,2.859,8.521,6.154
	c3.721,11.462,11.54,14.179,22.782,14.259c8.629,0.062,16.296,5.331,20.561,13.158c4.281,7.864,7.306,6.728,13.14,1.255
	C277.888,157.758,288.951,158.541,298.945,168.515"/>
</svg>
