<svg xmlns="http://www.w3.org/2000/svg" width="300" height="300"><path fill-rule="evenodd" clip-rule="evenodd" fill="#EEE" d="M291.467 241.059c-7.327 9.582-17.56 13.182-29.052 13.203-64.447.109-128.905.756-193.335-.328-30.092-.508-51.866-16.926-63.187-44.746-11.591-28.482-5.862-55.037 15.25-77.071 8.038-8.385 13.401-16.509 14.877-28.131 1.154-9.101 4.596-17.979 11.272-24.987 6.516-2.801 10.686-.166 14.958 5.061 28.914 35.365 62.256 66.046 99.197 92.885 35.007 25.439 72.937 44.627 115.211 54.727 5.985 1.43 12.386 2.297 14.809 9.387z"/><path fill-rule="evenodd" clip-rule="evenodd" fill="#FDFDFD" d="M291.467 241.059c-49.028-6.623-91.652-28.369-131.372-56.443-39.142-27.664-73.801-60.291-104.38-97.235-2.513-3.037-5.6-5.6-8.422-8.383 16.283-25.109 40.171-36.06 69.075-33.069 30.644 3.167 52.558 20.171 62.894 49.721 3.603 10.297 10.964 16.685 16.991 24.692 11.973 15.908 26.352 20.598 44.129 24.151 13.915 2.78 23.255 14.057 28.427 27.592 2.323 6.084 5.949 10.166 11.643 13.596 21.389 12.874 25.48 34.63 11.015 55.378z"/></svg>