<?xml version="1.0" encoding="utf-8"?>
<!-- Generator: Adobe Illustrator 16.0.0, SVG Export Plug-In . SVG Version: 6.00 Build 0)  -->
<!DOCTYPE svg PUBLIC "-//W3C//DTD SVG 1.1//EN" "http://www.w3.org/Graphics/SVG/1.1/DTD/svg11.dtd">
<svg version="1.1" id="Layer_1" xmlns="http://www.w3.org/2000/svg" xmlns:xlink="http://www.w3.org/1999/xlink" x="0px" y="0px"
	 width="300px" height="300px" viewBox="0 0 300 300" enable-background="new 0 0 300 300" xml:space="preserve">
<path fill-rule="evenodd" clip-rule="evenodd" fill="#EEEEEE" d="M299.494,183.714c4.705,34.575-24.146,60.724-57.903,51.591
	c-19.502-5.28-36.032-3.089-51.718,10.734c-15.743,13.875-36.22,14.482-54.924,2.66c-7.574-4.794-13.427-5.795-21.507-1.283
	c-10.581,5.899-22.174,5.025-32.536-1.024c-7.368-4.303-14.138-4.956-22.397-3.001c-22.912,5.431-43.557-4.199-53.456-23.91
	c-9.832-19.566-5.159-42.464,12.664-57.316c6.727-5.604,11.304-11.346,13.349-20.183c3.383-14.609,12.715-24.158,28.228-26.472
	c20.451,4.393,39.525,12.603,58.493,21.107c51.111,22.916,104.592,37.051,160.292,42.482
	C285.547,179.827,292.025,183.83,299.494,183.714z"/>
<path fill-rule="evenodd" clip-rule="evenodd" fill="#FDFDFD" d="M299.494,183.714c-3.672,4.015-8.293,4.645-13.464,4.234
	c-77.657-6.183-149.945-30.018-218.424-66.354c-3.002-1.594-5.552-4.037-8.312-6.084c13.146,0.11,22.094-4.757,28.187-17.643
	c4.789-10.133,15.815-14.774,27.348-14.563c9.578,0.176,15.063-3.38,19.332-12.209c9.199-19.028,25.472-28.884,46.423-28.094
	c21.602,0.815,37.157,12.473,45.034,32.626c3.479,8.901,7.002,12.976,17.785,12.603c28.108-0.972,45.729,22.443,37.788,49.332
	c-2.392,8.094-2.297,13.504,4.601,19.261C293.907,163.599,298.81,172.771,299.494,183.714z"/>
</svg>
