<svg xmlns="http://www.w3.org/2000/svg" width="300" height="300"><path fill-rule="evenodd" clip-rule="evenodd" fill="#EEE" d="M291.264 196.954c-1.941 7.025-.262 13.767 1.072 20.697 4.701 24.422-10.004 46.213-34.461 46.566a7141.525 7141.525 0 0 1-211.702-.088C22.766 263.775 3.551 243.35.535 220.85c-3.282-24.517 8.692-47.971 31.495-55.996 13.567-4.773 21.105-10.478 19.84-25.875-.733-8.964 3.674-18.598 11.771-21.63 16.628-6.222 21.905-18.538 23.594-34.173 6.931-.87 7.645 4.095 8.426 8.983 1.805 11.284 8.41 19.309 17.01 26.354 44.465 36.426 94.226 61.203 151.464 70.024 9.376 1.442 19.408 1.391 27.129 8.417z"/><path fill-rule="evenodd" clip-rule="evenodd" fill="#FDFDFD" d="M291.264 196.954c-28.26 5.229-54.342-4.674-80.316-12.762-42.286-13.159-78.144-37.974-112.2-65.635-11.705-9.511-11.146-22.465-11.512-35.377 12.925-45.299 60.106-62.389 97.962-34.9 8.332 6.052 16.79 8.471 26.633 9.489 66.485 6.879 106.944 77.982 79.433 139.185z"/></svg>