<?xml version="1.0" encoding="utf-8"?>
<!-- Generator: Adobe Illustrator 16.0.0, SVG Export Plug-In . SVG Version: 6.00 Build 0)  -->
<!DOCTYPE svg PUBLIC "-//W3C//DTD SVG 1.1//EN" "http://www.w3.org/Graphics/SVG/1.1/DTD/svg11.dtd">
<svg version="1.1" id="Layer_1" xmlns="http://www.w3.org/2000/svg" xmlns:xlink="http://www.w3.org/1999/xlink" x="0px" y="0px"
	 width="300px" height="300px" viewBox="0 0 300 300" enable-background="new 0 0 300 300" xml:space="preserve">
<path fill-rule="evenodd" clip-rule="evenodd" fill="#FDFDFD" d="M39.689,119.717C47.467,92.1,72.304,77.219,99.798,85.145
	c9.704,2.796,13.446,0.342,18.197-7.916c17.179-29.862,56.269-33.425,79.06-7.636c4.369,4.946,8.178,9.525,15.568,8.32
	c1.063-0.173,2.684,0.143,3.344,0.871c14.391,15.877,41.652,17.164,47.92,42.278c0.814,3.26,3.307,4.881,6.688,5.895
	c28.092,8.44,29.635,10.659,29.408,40.503c-5.879,6.239-13.061,7.953-21.611,8.507c-42.545,2.753-84.891,2.355-127.051-4.711
	c-35.136-5.888-69.04-15.559-101.391-30.784C40.15,135.867,36.287,130.009,39.689,119.717z"/>
<path fill-rule="evenodd" clip-rule="evenodd" fill="#EEEEEE" d="M39.689,119.717c0.771,8.207,6.489,12.005,13.176,15.18
	c42.499,20.19,87.68,30.198,134.167,34.654c37.674,3.612,75.361,2.061,112.949-2.092c-5.158,14.917-13.148,21.78-28.457,21.484
	c-9.916-0.189-15.986,3.085-20.914,11.518c-4.893,8.378-13.059,13.56-22.311,16.492c-9.842,3.122-21.037,2.642-28.17,12.492
	c-1.973,2.726-7.236,2.91-9.961,0.859c-7.932-5.967-15.438-1.357-23.41-0.896c-20.967,1.219-39.879,7.938-59.512,14.902
	c-35.647,12.654-72.367-12.21-74.73-45.282c-0.432-6.045-4.24-8.456-9.583-10.354c-15.914-5.657-24.198-17.55-22.779-31.663
	c1.402-13.941,11.146-24.323,27.051-26.819C34.228,129.092,37.577,125.649,39.689,119.717z"/>
</svg>
