<?xml version="1.0" encoding="utf-8"?>
<!-- Generator: Adobe Illustrator 16.0.0, SVG Export Plug-In . SVG Version: 6.00 Build 0)  -->
<!DOCTYPE svg PUBLIC "-//W3C//DTD SVG 1.1//EN" "http://www.w3.org/Graphics/SVG/1.1/DTD/svg11.dtd">
<svg version="1.1" id="Layer_1" xmlns="http://www.w3.org/2000/svg" xmlns:xlink="http://www.w3.org/1999/xlink" x="0px" y="0px"
	 width="300px" height="300px" viewBox="0 0 300 300" enable-background="new 0 0 300 300" xml:space="preserve">
<path fill-rule="evenodd" clip-rule="evenodd" fill="#EEEEEE" d="M0,139.466c0.588-0.02,1.163-0.115,1.726-0.283
	c4.265-2.306,7.834-0.37,11.437,1.779c27.754,16.555,58.375,23.917,90.118,25.771c32.862,1.913,64.726-5.231,96.025-14.796
	c5.573-1.705,11.093-3.559,16.67-5.248c3.711-1.122,6.708-1.232,8.271,3.045c5.616,3.167,13.353-0.334,17.799,3.669
	c12.331,11.105,26.223,17.659,42.261,21.978c8.254,2.219,12.456,12.483,15.053,21.056c3.018,9.955-4.937,19.472-16.95,19.09
	c-10.661-0.342-20.956,0.39-31.39,2.271c-6.053,1.09-13.123,1.214-17.915-2.742c-10.788-8.905-23.651-12.954-36.117-18.237
	c-4.797-2.034-7.82-2.396-11.829,1.174c-15.849,14.104-33.619,17.542-53.292,8.612c-2.827-1.282-5.743-2.714-8.873-1.464
	c-8.345,3.342-15.982,2.513-23.25-2.959c-3.305-2.488-6.427-0.257-9.557,1.227c-25.121,11.909-44.911,7.181-62.678-14.828
	c-1.498-1.854-2.901-4.077-4.875-5.207C10.934,176.659,4.453,166.077,0,153.874C0,149.074,0,144.269,0,139.466z"/>
<path fill-rule="evenodd" clip-rule="evenodd" fill="#FDFDFD" d="M224.246,149.734c-30.589,10.164-61.353,19.7-93.787,21.767
	c-46.312,2.951-90.042-4.74-128.732-32.318c3.332-17.194,9.801-22.877,26.12-21.398c5.872,0.533,6.124-2.989,7.066-6.481
	c3.197-11.855,9.729-21.104,20.874-26.604c14.95-7.378,32.691-1.456,38.568,14.07c3.028,7.999,6.022,9.165,13.747,6.598
	c7.812-2.597,16.571-0.724,21.825,5.561c6.6,7.895,9.098,3.634,13.424-1.761c13.012-16.233,33.646-22.079,52.582-15.507
	C219.521,101.847,231.499,125.564,224.246,149.734z"/>
</svg>
