<svg xmlns="http://www.w3.org/2000/svg" viewBox="-199 203.1 100 95.7"><path d="M-128.2 218.8v-5.3h12.5V228.2c0 .3.1.5.3.7 4.4 3.4 8.8 6.9 13.2 10.3.8.6 1.5 1.2 2.3 1.8.7.5.9 1.3.8 2.1-.2.8-.7 1.3-1.5 1.5-.7.2-1.3.1-1.8-.3-.9-.7-1.8-1.4-2.6-2-.1-.1-.2-.1-.3-.2v54.6c0 .9-.3 1.6-1.1 2-.3.2-.8.3-1.2.3h-83c-1.4 0-2.3-.9-2.3-2.3v-54.1-.5c-.5.4-.9.7-1.3 1-.5.4-1 .8-1.6 1.2-1 .7-2.3.6-3-.3-.7-.9-.5-2.2.4-3 6.1-4.8 12.3-9.6 18.4-14.4 6.2-4.9 12.5-9.7 18.7-14.6 3.5-2.7 7-5.5 10.5-8.2 1-.8 1.9-.8 2.9 0 5.4 4.2 10.7 8.3 16.1 12.5l3 2.4c.4 0 .5 0 .6.1zm18.8 75.9v-.4-36.6-18.6c0-.2 0-.3-.2-.5-3.4-2.6-6.7-5.2-10.1-7.9-6.3-4.9-12.7-9.9-19-14.8-3.4-2.6-6.7-5.2-10-7.9-.2-.2-.3-.1-.5 0-.6.5-1.1.9-1.7 1.3-6.5 5.1-13.1 10.2-19.6 15.3-5.9 4.6-11.8 9.2-17.8 13.8-.2.1-.3.3-.3.5v55.6h25v-.5-38.7c0-.3 0-.4.4-.4H-134.4v39.5c8.3.3 16.7.3 25 .3zm-50-35.4v35.4h20.8v-35.4h-20.8zm39.5-34v-7.7h-4.1v4.3c0 .1.1.2.2.3.5.4 1 .8 1.6 1.2.7.7 1.5 1.3 2.3 1.9z" fill="#fff"/></svg>