<?xml version="1.0" encoding="utf-8"?>
<!-- Generator: Adobe Illustrator 19.0.0, SVG Export Plug-In . SVG Version: 6.00 Build 0)  -->
<svg version="1.1" id="Layer_1" xmlns="http://www.w3.org/2000/svg" xmlns:xlink="http://www.w3.org/1999/xlink" x="0px" y="0px"
	 viewBox="-199 203.1 100 95.7" style="enable-background:new -199 203.1 100 95.7;" xml:space="preserve">
<style type="text/css">
	.st0{fill:#FFFFFF;}
</style>
<g>
	<g>
		<path class="st0" d="M-128.2,218.8c0-1.8,0-3.6,0-5.3c4.2,0,8.3,0,12.5,0c0,0.1,0,0.3,0,0.4c0,4.8,0,9.5,0,14.3
			c0,0.3,0.1,0.5,0.3,0.7c4.4,3.4,8.8,6.9,13.2,10.3c0.8,0.6,1.5,1.2,2.3,1.8c0.7,0.5,0.9,1.3,0.8,2.1c-0.2,0.8-0.7,1.3-1.5,1.5
			c-0.7,0.2-1.3,0.1-1.8-0.3c-0.9-0.7-1.8-1.4-2.6-2c-0.1-0.1-0.2-0.1-0.3-0.2c0,0.2,0,0.3,0,0.5c0,18,0,36,0,54.1
			c0,0.9-0.3,1.6-1.1,2c-0.3,0.2-0.8,0.3-1.2,0.3c-7.5,0-14.9,0-22.4,0c-2,0-3.9,0-5.9,0c-8.4,0-16.8,0-25.1,0c-9.9,0-19.7,0-29.6,0
			c-1.4,0-2.3-0.9-2.3-2.3c0-18,0-36,0-54.1c0-0.1,0-0.3,0-0.5c-0.5,0.4-0.9,0.7-1.3,1c-0.5,0.4-1,0.8-1.6,1.2c-1,0.7-2.3,0.6-3-0.3
			c-0.7-0.9-0.5-2.2,0.4-3c6.1-4.8,12.3-9.6,18.4-14.4c6.2-4.9,12.5-9.7,18.7-14.6c3.5-2.7,7-5.5,10.5-8.2c1-0.8,1.9-0.8,2.9,0
			c5.4,4.2,10.7,8.3,16.1,12.5c1,0.8,2,1.6,3,2.4C-128.4,218.7-128.3,218.7-128.2,218.8z M-109.4,294.7c0-0.2,0-0.3,0-0.4
			c0-12.2,0-24.4,0-36.6c0-6.2,0-12.4,0-18.6c0-0.2,0-0.3-0.2-0.5c-3.4-2.6-6.7-5.2-10.1-7.9c-6.3-4.9-12.7-9.9-19-14.8
			c-3.4-2.6-6.7-5.2-10-7.9c-0.2-0.2-0.3-0.1-0.5,0c-0.6,0.5-1.1,0.9-1.7,1.3c-6.5,5.1-13.1,10.2-19.6,15.3
			c-5.9,4.6-11.8,9.2-17.8,13.8c-0.2,0.1-0.3,0.3-0.3,0.5c0,18.4,0,36.8,0,55.2c0,0.1,0,0.2,0,0.4c8.3,0,16.7,0,25,0
			c0-0.2,0-0.3,0-0.5c0-12.9,0-25.8,0-38.7c0-0.3,0-0.4,0.4-0.4c9.5,0,19,0,28.4,0c0.1,0,0.2,0,0.4,0c0,13.2,0,26.4,0,39.5
			C-126.1,294.7-117.7,294.7-109.4,294.7z M-159.4,259.3c0,11.8,0,23.6,0,35.4c6.9,0,13.9,0,20.8,0c0-11.8,0-23.6,0-35.4
			C-145.5,259.3-152.5,259.3-159.4,259.3z M-119.9,225.3c0-2.6,0-5.1,0-7.7c-1.4,0-2.7,0-4.1,0c0,0,0,0.1,0,0.1c0,1.4,0,2.8,0,4.2
			c0,0.1,0.1,0.2,0.2,0.3c0.5,0.4,1,0.8,1.6,1.2C-121.5,224.1-120.7,224.7-119.9,225.3z"/>
	</g>
</g>
</svg>
