<?xml version="1.0" encoding="utf-8"?>
<!-- Generator: Adobe Illustrator 19.0.0, SVG Export Plug-In . SVG Version: 6.00 Build 0)  -->
<svg version="1.1" id="Layer_1" xmlns="http://www.w3.org/2000/svg" xmlns:xlink="http://www.w3.org/1999/xlink" x="0px" y="0px"
	 viewBox="-199 201 100 100" style="enable-background:new -199 201 100 100;" xml:space="preserve">
<style type="text/css">
	.st0{fill:#FFFFFF;}
</style>
<g>
	<g>
		<path class="st0" d="M-119.5,291.1c-0.3,0-0.8-0.2-1.2-0.5c-3.5-2.4-7-4.9-10.4-7.3c-0.2-0.1-0.3-0.2-0.5,0
			c-2.1,1.2-4.3,2.1-6.6,2.8c-0.2,0.1-0.3,0.2-0.4,0.4c-0.7,3.8-1.3,7.7-2,11.5c-0.1,0.3-0.1,0.7-0.2,1c-0.2,1.3-1.1,2-2.3,2
			c-3,0-6,0-8.9,0c-0.9,0-1.8,0-2.7,0c-1.2,0-2.1-0.7-2.3-1.9c-0.6-3.6-1.2-7.3-1.8-10.9c-0.1-0.6-0.2-1.1-0.3-1.7
			c0-0.1-0.2-0.3-0.3-0.3c-2.3-0.7-4.6-1.6-6.7-2.8c-0.2-0.1-0.4-0.1-0.6,0c-3.4,2.4-6.9,4.8-10.4,7.3c-1.1,0.7-2.1,0.6-3-0.3
			c-2.7-2.7-5.5-5.5-8.2-8.2c-0.9-0.9-1-2-0.3-3c2.4-3.4,4.9-6.8,7.3-10.2c0.2-0.2,0.2-0.4,0-0.6c-1.2-2.1-2.1-4.4-2.8-6.7
			c-0.1-0.2-0.2-0.3-0.4-0.4c-2.9-0.5-5.8-1-8.7-1.5c-1.3-0.2-2.6-0.5-3.9-0.7c-1-0.2-1.7-1-1.8-1.9c0-0.1,0-0.2,0-0.3
			c0-3.9,0-7.8,0-11.7c0-1.3,0.7-2.1,1.9-2.3c0.4-0.1,0.9-0.1,1.3-0.2c2.7-0.4,5.4-0.9,8.1-1.3c1-0.2,2-0.3,3.1-0.5
			c0.2,0,0.3-0.1,0.4-0.3c0.7-2.4,1.6-4.6,2.8-6.8c0.1-0.2,0.1-0.4,0-0.5c-2.4-3.4-4.8-6.9-7.2-10.3c-0.8-1.1-0.7-2.1,0.3-3
			c2.7-2.7,5.5-5.5,8.2-8.2c0.9-0.9,2-1,3-0.3c3.4,2.4,6.8,4.9,10.2,7.3c0.3,0.2,0.5,0.2,0.8,0c2.1-1.1,4.3-2,6.6-2.7
			c0.2-0.1,0.3-0.1,0.3-0.4c0.4-2.6,0.8-5.2,1.3-7.8c0.3-1.6,0.5-3.3,0.8-4.9c0.2-1,0.9-1.6,1.9-1.7c0.1,0,0.3,0,0.4,0
			c3.9,0,7.7,0,11.6,0c1.2,0,2.1,0.7,2.3,1.8c0.1,0.4,0.1,0.8,0.2,1.2c0.6,3.4,1.2,6.7,1.8,10.1c0.1,0.5,0.2,1,0.3,1.5
			c0,0.2,0.1,0.3,0.3,0.3c2.4,0.7,4.6,1.6,6.8,2.8c0.2,0.1,0.3,0.1,0.5-0.1c3.4-2.5,6.8-4.9,10.2-7.4c1.2-0.8,2.2-0.8,3.2,0.2
			c2.7,2.7,5.4,5.4,8.1,8.1c1,1,1.1,2,0.3,3.2c-2.4,3.5-4.8,6.9-7.3,10.4c-0.1,0.2-0.2,0.3-0.1,0.6c1.1,2.1,2.1,4.3,2.7,6.6
			c0.1,0.2,0.1,0.3,0.3,0.3c3.3,0.5,6.6,1.1,9.9,1.6c0.9,0.1,1.8,0.3,2.7,0.4c1.3,0.2,2,1.1,2,2.3c0,3.9,0,7.8,0,11.6
			c0,0.3,0,0.5-0.1,0.8c-0.3,1-1.1,1.4-2.1,1.6c-4.2,0.7-8.3,1.5-12.5,2.2c-0.2,0-0.3,0.1-0.3,0.3c-0.7,2.3-1.6,4.6-2.8,6.7
			c-0.1,0.2-0.1,0.3,0,0.4c2.5,3.4,4.9,6.8,7.4,10.2c0.5,0.7,0.8,1.5,0.5,2.3c-0.1,0.3-0.3,0.6-0.6,0.8c-2.8,2.8-5.6,5.6-8.3,8.4
			C-118.2,290.9-118.7,291.1-119.5,291.1z M-103.4,246.8c-0.1,0-0.2-0.1-0.3-0.1c-4-0.6-7.9-1.3-11.9-1.9c-1-0.2-1.7-0.7-1.9-1.7
			c-0.8-3.1-2-6-3.6-8.8c-0.5-0.8-0.5-1.7,0.1-2.5c1.8-2.6,3.7-5.2,5.5-7.8c0.6-0.8,1.1-1.6,1.6-2.4c-2-2-3.9-3.9-5.9-5.9
			c0,0-0.1,0.1-0.2,0.1c-3.3,2.4-6.6,4.7-9.9,7.1c-0.8,0.6-1.7,0.6-2.6,0.1c-2.7-1.6-5.6-2.8-8.7-3.6c-0.9-0.2-1.5-0.8-1.7-1.8
			c-0.5-2.8-1-5.6-1.5-8.3c-0.2-1.3-0.5-2.6-0.7-4c-2.8,0-5.5,0-8.3,0c0,0.1-0.1,0.2-0.1,0.3c-0.6,3.8-1.3,7.7-1.9,11.5
			c-0.2,1.1-0.7,2-1.9,2.3c-3.1,0.7-6,2-8.7,3.6c-0.9,0.5-1.7,0.5-2.5-0.1c-2.4-1.7-4.9-3.5-7.3-5.2c-0.9-0.6-1.8-1.3-2.6-1.9
			c-2,2-3.9,3.9-5.9,5.9c0,0,0,0.1,0.1,0.1c2.3,3.3,4.6,6.6,6.9,10c0.6,0.8,0.6,1.6,0.1,2.4c-0.7,1.3-1.3,2.5-1.9,3.8
			c-0.8,1.6-1.3,3.3-1.7,5c-0.2,0.9-0.8,1.5-1.8,1.7c-1.1,0.2-2.2,0.4-3.4,0.6c-2.8,0.5-5.6,0.9-8.5,1.4c-0.3,0-0.4,0.1-0.4,0.4
			c0,2.5,0,5.1,0,7.6c0,0.1,0,0.2,0,0.3c0.1,0,0.2,0.1,0.3,0.1c3.8,0.7,7.6,1.4,11.4,2c1.2,0.2,2,0.7,2.3,1.9c0.8,3.1,2,6,3.6,8.7
			c0.5,0.8,0.5,1.7-0.1,2.5c-1.8,2.5-3.6,5-5.4,7.6c-0.6,0.8-1.2,1.6-1.7,2.5c2,2,3.9,3.9,5.9,5.9c3.3-2.3,6.7-4.7,10-7
			c0.8-0.6,1.7-0.6,2.5-0.1c0.5,0.3,1.1,0.6,1.6,0.9c2.3,1.2,4.7,2.1,7.2,2.7c0.9,0.2,1.5,0.9,1.7,1.8c0.2,1,0.3,2,0.5,3
			c0.5,3,1,5.9,1.5,8.9c0,0.3,0.2,0.3,0.4,0.3c2.5,0,5.1,0,7.6,0c0.1,0,0.2,0,0.3,0c0.2-1.1,0.4-2.1,0.6-3.1c0.5-3,1.1-6.1,1.6-9.1
			c0.2-1,0.8-1.7,1.8-1.9c3-0.8,5.9-1.9,8.5-3.6c1-0.6,1.9-0.6,2.8,0.1c2.9,2.1,5.9,4.1,8.8,6.2c0.4,0.3,0.9,0.6,1.2,0.8
			c2-2,3.9-3.9,5.9-5.8c-0.1-0.1-0.1-0.2-0.2-0.3c-2.3-3.3-4.7-6.5-7-9.8c-0.6-0.8-0.6-1.7-0.1-2.6c0.4-0.7,0.8-1.4,1.2-2.2
			c1-2.1,1.8-4.2,2.4-6.5c0.2-0.9,0.8-1.5,1.8-1.7c0.5-0.1,1.1-0.2,1.6-0.3c2.8-0.5,5.6-1,8.4-1.5c0.8-0.1,1.6-0.3,2.3-0.4
			C-103.4,252.3-103.4,249.5-103.4,246.8z"/>
		<path class="st0" d="M-132.6,251c0,9.5-7.8,17.4-17.4,17.4c-9.6,0-17.4-7.8-17.4-17.4c0-9.6,7.8-17.4,17.4-17.4
			C-140.4,233.6-132.6,241.4-132.6,251z M-137,251c0-7.2-5.8-13-13-13c-7.2,0-13.1,5.9-13.1,13.1c0,7.2,5.8,13,13,13
			C-142.8,264-137,258.2-137,251z"/>
	</g>
</g>
</svg>
