<?xml version="1.0" encoding="utf-8"?>
<!-- Generator: Adobe Illustrator 19.0.0, SVG Export Plug-In . SVG Version: 6.00 Build 0)  -->
<svg version="1.1" id="Layer_1" xmlns="http://www.w3.org/2000/svg" xmlns:xlink="http://www.w3.org/1999/xlink" x="0px" y="0px"
	 viewBox="-183.8 201 69.6 100" style="enable-background:new -183.8 201 69.6 100;" xml:space="preserve">
<style type="text/css">
	.st0{fill:#FFFFFF;}
</style>
<g>
	<g>
		<path class="st0" d="M-117.7,252c0.6,0.6,1.2,1,1.7,1.6c1.3,1.7,1.9,3.7,1.8,5.8c-0.1,3.3-1.1,6.3-3.2,8.8
			c-1.1,1.4-2.5,2.5-4.1,3.3c-0.2,0.1-0.3,0.2-0.3,0.5c-0.7,3.8-2.3,7.2-4.3,10.5c-1.7,2.9-3.8,5.7-6.2,8.1c-2.4,2.4-5,4.5-8.1,6
			c-0.3,0.1-0.5,0.4-0.8,0.7c-1.5,1.6-3.2,2.8-5.3,3.3c-3.2,0.8-6,0.2-8.6-1.8c-0.6-0.4-1.1-0.9-1.6-1.4c-0.4-0.5-0.9-0.8-1.5-1.1
			c-3.2-1.7-6-3.9-8.4-6.6c-3-3.3-5.5-6.9-7.4-10.9c-1.1-2.2-1.9-4.5-2.3-6.9c0-0.1-0.1-0.3-0.2-0.4c-3.3-1.8-5.5-4.5-6.6-8.1
			c-0.5-1.6-0.8-3.3-0.7-5c0.1-1.9,0.7-3.6,1.8-5.1c0.4-0.5,0.9-0.9,1.4-1.3c0.2-0.1,0.2-0.2,0.1-0.4c-1-3.2-1.8-6.4-2.4-9.7
			c-0.5-2.5-0.9-5-0.9-7.5c0-4.4,0.6-8.7,1.9-12.8c1.2-3.8,3.1-7.3,5.8-10.3c2.7-3,5.9-5.3,9.5-7c3.2-1.5,6.6-2.4,10.1-2.8
			c2.9-0.4,5.7-0.6,8.6-0.4c3.9,0.2,7.7,1.1,11.2,3.1c2.4,1.4,4.5,3.2,6.1,5.5c0.1,0.2,0.3,0.3,0.5,0.3c5.6,0.6,9.8,3.3,12.6,8.2
			c1.6,2.8,2.5,5.9,3,9.1c0.4,2.7,0.3,5.3,0.2,8C-114.7,241-116,246.5-117.7,252C-117.7,251.9-117.7,252-117.7,252z M-150.5,205.4
			c-1.5,0-3.6,0.2-5.7,0.5c-3.1,0.5-6.1,1.3-9,2.7c-3.1,1.5-5.8,3.6-8,6.2c-2.3,2.9-3.9,6.2-4.9,9.7c-0.7,2.6-1.1,5.2-1.2,7.9
			c-0.1,1-0.1,2.1,0,3.1c0.1,1.5,0.4,2.9,0.6,4.4c0.7,4,1.6,8.1,2.9,12c0.3,1,0,1.9-0.9,2.6c-0.4,0.3-0.8,0.6-1.1,0.9
			c-1.1,1.2-1.8,2.6-1.6,4.2c0.1,1.1,0.3,2.1,0.6,3.1c0.9,2.7,2.5,4.7,5.2,5.8c0.7,0.3,1.2,0.9,1.3,1.7c0.2,1.1,0.4,2.1,0.8,3.1
			c2,5.6,5.1,10.4,9.2,14.6c2,2,4.2,3.7,6.7,5c0.6,0.3,1,0.6,1.4,1.1c2.4,3.3,7.3,3.6,10,0.5c0.8-0.9,1.6-1.6,2.7-2.1
			c3.2-1.7,5.8-4.2,8.1-7.1c2.4-3,4.4-6.2,5.9-9.7c0.7-1.7,1.4-3.5,1.7-5.4c0.1-0.9,0.6-1.6,1.5-1.9c0.9-0.3,1.7-0.8,2.4-1.5
			c1.7-1.5,2.6-3.4,3.1-5.6c0.2-1,0.4-2,0.2-3c-0.3-1.6-1.2-2.8-2.6-3.7c-1-0.7-1.3-1.6-1-2.8c1.8-5.5,3.1-11.2,3.5-17
			c0.2-2.6,0.2-5.1-0.3-7.7c-0.5-2.5-1.2-5-2.6-7.2c-1.1-1.9-2.6-3.5-4.6-4.6c-1.7-0.8-3.4-1.2-5.3-1.2c-0.9,0-1.6-0.4-2.1-1.2
			c-0.2-0.4-0.5-0.8-0.8-1.2c-1.8-2.4-4.3-4-7.1-5C-144.2,205.7-147,205.3-150.5,205.4z"/>
		<path class="st0" d="M-133.1,226c-0.3,0.3-0.5,0.6-0.8,0.8c-2.1,2.3-4.6,3.9-7.5,5.1c-3.3,1.4-6.9,1.9-10.5,1.9
			c-2.3,0-4.6,0.1-6.9,0.3c-2.2,0.2-4.4,0.6-6.4,1.7c-2.6,1.3-3.8,3.5-3.8,6.3c0,0.7-0.1,1.3-0.5,1.8c-0.6,0.7-1.4,0.9-2.3,0.7
			c-0.9-0.3-1.4-0.9-1.5-1.8c-0.1-1.7,0.2-3.4,0.8-5c1.2-3.2,3.6-5.2,6.7-6.5c2-0.8,4.2-1.3,6.4-1.5c2.6-0.3,5.1-0.4,7.7-0.3
			c2.7,0,5.4-0.3,8-1.3c3.2-1.2,5.9-3.1,7.9-5.8c0.4-0.5,0.6-1.1,1-1.6c0.4-0.6,0.9-0.8,1.6-0.9c1.1-0.1,1.7,0.6,2.3,1.4
			c0.5,0.7,1,1.5,1.5,2.2c2.5,3.8,4.4,8,5.4,12.4c0.5,2.1,0.7,4.3,0.8,6.4c0,1.2-0.8,2.1-1.8,2.3c-1.1,0.2-2.1-0.5-2.4-1.5
			c-0.1-0.2-0.1-0.4-0.1-0.6c0-3.5-0.9-6.8-2.1-10c-0.9-2.2-2-4.2-3.2-6.2C-133,226.2-133.1,226.1-133.1,226z"/>
		<path class="st0" d="M-161.3,259.8c-1.8,0-3.3-1.5-3.3-3.3c0-1.8,1.5-3.3,3.3-3.2c1.8,0,3.2,1.5,3.2,3.3
			C-158.1,258.4-159.5,259.8-161.3,259.8z"/>
		<path class="st0" d="M-137.4,259.8c-1.8,0-3.3-1.5-3.2-3.3c0-1.8,1.5-3.3,3.3-3.2c1.8,0,3.3,1.5,3.2,3.3
			C-134.2,258.4-135.7,259.9-137.4,259.8z"/>
	</g>
</g>
</svg>
