<?xml version="1.0" encoding="utf-8"?>
<!-- Generator: Adobe Illustrator 19.0.0, SVG Export Plug-In . SVG Version: 6.00 Build 0)  -->
<svg version="1.1" id="Layer_1" xmlns="http://www.w3.org/2000/svg" xmlns:xlink="http://www.w3.org/1999/xlink" x="0px" y="0px"
	 viewBox="0 0 180 180" style="enable-background:new 0 0 180 180;" xml:space="preserve">
<style type="text/css">
	.st0{fill:#EF403C;}
	.st1{fill:#F2F2F2;}
	.st2{fill:#285493;}
	.st3{opacity:0.2;enable-background:new    ;}
</style>
<path id="XMLID_17_" class="st0" d="M40,18.4C53.7,7.9,71.4,2.7,90,2.7c48.2,0,87.3,39.1,87.3,87.3s-39.1,87.3-87.3,87.3
	S2.7,138.2,2.7,90c0-20,6.7-38.3,18-53.1C20.6,36.9,25,29.9,40,18.4z"/>
<circle id="XMLID_16_" class="st1" cx="90" cy="90" r="76.9"/>
<path id="XMLID_15_" class="st2" d="M90,24.3c36.3,0,65.7,29.4,65.7,65.7s-29.4,65.7-65.7,65.7S24.3,126.3,24.3,90
	c0-17.4,6.8-33.3,17.9-45C42.1,45,59.5,24.3,90,24.3z"/>
<circle id="XMLID_14_" class="st0" cx="90" cy="90" r="54.4"/>
<polygon id="XMLID_13_" class="st1" points="90,39.3 108.1,65.7 138.9,74.8 119.3,98.8 120.2,130.9 90,121.6 59.7,132.4 60.6,100.3 
	41,74.8 71.8,65.7 "/>
<path id="XMLID_12_" class="st3" d="M141.4,19.2C151.8,33.6,158,51.3,158,70.4c0,48.2-39.1,87.3-87.3,87.3
	c-19.1,0-36.8-6.1-51.2-16.6c15.9,21.9,41.6,36.1,70.8,36.1c48.2,0,87.3-39.1,87.3-87.3C177.6,60.9,163.3,35.1,141.4,19.2z"/>
<path id="XMLID_11_" d="M153.6,26.4C136.6,9.4,114,0,90,0C71.4,0,53.6,5.6,38.4,16.2c-1.2,0.8-1.5,2.5-0.7,3.7
	c0.8,1.2,2.5,1.5,3.7,0.7c14.3-10,31-15.3,48.5-15.3c46.7,0,84.7,38,84.7,84.7s-38,84.7-84.7,84.7S5.3,136.7,5.3,90
	c0-17.5,2.6-40.1,23-60.7c1-1,1-2.7,0-3.8c-1-1-2.7-1-3.8,0C2.8,47.5,0,71.5,0,90c0,24,9.4,46.6,26.4,63.6S66,180,90,180
	s46.6-9.4,63.6-26.4S180,114,180,90S170.6,43.4,153.6,26.4z"/>
<path d="M33.7,146.3c15,15,35,23.3,56.3,23.3c21.3,0,41.3-8.3,56.3-23.3c15-15,23.3-35,23.3-56.3c0-21.3-8.3-41.3-23.3-56.3
	c-15-15-35-23.3-56.3-23.3c-21.3,0-41.3,8.3-56.3,23.3S10.4,68.7,10.4,90C10.4,111.3,18.7,131.3,33.7,146.3z M90,15.7
	c41,0,74.3,33.3,74.3,74.3S131,164.3,90,164.3c-40.9,0-74.3-33.3-74.3-74.3S49.1,15.7,90,15.7z"/>
<path id="XMLID_8_" d="M90,158.4c37.7,0,68.4-30.7,68.4-68.4S127.7,21.6,90,21.6c-1.5,0-2.7,1.2-2.7,2.7c0,1.5,1.2,2.7,2.7,2.7
	c34.8,0,63,28.3,63,63s-28.3,63-63,63s-63-28.3-63-63c0-17.6,9.7-50.4,46.2-61.2c1.4-0.4,2.2-1.9,1.8-3.3c-0.4-1.4-1.9-2.2-3.3-1.8
	C53.8,29,40.3,39.4,31.4,54.6c-8.9,15.3-9.8,29.9-9.8,35.4C21.6,127.7,52.3,158.4,90,158.4z"/>
<path d="M32.9,90c0,31.5,25.6,57.1,57.1,57.1s57.1-25.6,57.1-57.1S121.5,32.9,90,32.9S32.9,58.5,32.9,90z M38.3,90
	c0-4.3,0.5-8.5,1.5-12.4l18.1,23.6l-0.8,28.8C45.6,120.4,38.3,106.1,38.3,90z M105.9,67.3c0.3,0.5,0.9,0.9,1.4,1.1l26.9,7.9
	l-17.1,20.9c-0.4,0.5-0.6,1.1-0.6,1.8l0.8,28.4L90.8,119c-0.6-0.2-1.1-0.2-1.7,0l-26.6,9.5l0.8-28.2c0-0.6-0.2-1.2-0.6-1.7
	L45.5,76.3l27.1-8c0.6-0.2,1.1-0.5,1.4-1.1L90,44L105.9,67.3z M62.9,134.1l27.1-9.6l28.4,8.8c-8.2,5.4-17.9,8.5-28.4,8.5
	C80.1,141.7,70.8,138.9,62.9,134.1z M122.8,129.9L122,99.8l18.2-22.3c1,4,1.5,8.2,1.5,12.5C141.7,106.1,134.4,120.4,122.8,129.9z
	 M138.5,71.9l-28.6-8.4L92.6,38.3C113.6,39.4,131.4,53,138.5,71.9z M87.4,38.3L70.2,63.4l-28.6,8.4C48.6,53,66.4,39.4,87.4,38.3z"/>
</svg>
