<svg id="Layer_1" xmlns="http://www.w3.org/2000/svg" viewBox="-199 203.1 100 95.7"><style>.st0{fill:#fff}</style><path class="st0" d="M-199 242c.8.2 1.5.4 2.3.5 5 1.2 10 2.5 15 3.7.1 0 .3 0 .4-.1 6.7-4.8 13.4-9.5 20.1-14.3l7.5-5.4c.2-.1.4-.2.6-.1 4 1.1 7.9 2.3 11.9 3.4 5.1 1.4 10.2 2.9 15.3 4.4.3.1.3-.1.5-.2 1.8-2.1 3.7-4.3 5.5-6.4 3.3-3.8 6.6-7.7 9.9-11.5 3.4-4 6.9-8 10.3-12 .2-.3.5-.6.8-.9v95.7H-198.8c-.2-18.9-.2-37.8-.2-56.8zm4 52.9h92v-49.7c-.1.1-.2.1-.2.2-4.2 3.6-8.3 7.1-12.5 10.7-.3.2-.5.6-.9.7-.3.1-.7-.2-1.1-.3-4.7-1.7-9.3-3.3-14-5-4.1-1.5-8.1-2.9-12.2-4.4-.3-.1-.5-.1-.6.2-.1.2-.2.3-.3.5-5.1 7.1-10.1 14.2-15.2 21.3-1.3 1.9-2.7 3.7-4 5.6-.1.2-.3.3-.5.2-.3-.1-.6-.1-.9-.2l-28.8-7.2c-.2-.1-.5-.1-.7-.2-.1 9.1-.1 18.3-.1 27.6zm68-46c.1 0 .1.1.2.1 3 1.1 6 2.1 9 3.2.3.1.5 0 .7-.1 2-1.7 4-3.4 6-5.2 2.4-2.1 4.8-4.2 7.2-6.2.7-.6 1-1.1.9-2-.1-.6 0-1.1 0-1.8-.5 1.2-1.3 1.8-2.3 1.6-1-.2-1.7-.9-1.7-1.9 0-.9.6-1.7 1.4-2 .6-.2 1.1-.1 1.6.2.5.3.8.8 1 1.3V225c-.6 1.3-1.4 1.8-2.5 1.5-.9-.2-1.5-1-1.5-1.9 0-.9.7-1.7 1.6-1.9 1-.2 1.8.2 2.4 1.5v-10.1l-.3.3-10.5 12.3c-3.4 4-6.9 8-10.3 12.1-.1.2-.3.2-.5.1-.9-.3-1.8-.5-2.7-.7-.1 0-.3 0-.4.1-1.2.9-2.7.5-3.2-.9-.1-.2-.2-.3-.3-.3-.9-.3-1.8-.5-2.7-.8-4.2-1.2-8.3-2.4-12.5-3.6-.1 0-.2-.1-.3 0-.7.2-1.2 0-1.7-.4-.1-.1-.2-.1-.3-.2-1.2-.4-2.4-.7-3.6-1.1-.2-.1-.3 0-.5.1l-15.9 11.4c-.2.1-.3.2-.3.5 0 1.2-1.3 2.1-2.5 1.7-.2-.1-.4 0-.5.1-.9.7-1.8 1.3-2.8 2-.3.2-.5.4-.8.6.8 1.2.7 2.3-.3 3.1-.4.3-.9.4-1.4.4-.7-.1-1.2-.5-1.6-1.1-.5.4-1.1.8-1.6 1.2-.1.1-.3.1-.4.1-1.6-.4-3.1-.8-4.7-1.2-.6-.1-1.1-.3-1.7-.4-.6 1.3-1.5 1.7-2.6 1.4-1-.3-1.5-1.3-1.3-2.3-1.4-.3-2.7-.7-4.1-1v5.4c1.2.2 1.9.9 2 1.9 0 .5-.1.9-.3 1.3-.4.6-1 .8-1.6.9V263.3c0 .2.1.2.3.3 3.2.8 6.4 1.6 9.7 2.4.3.1.4 0 .6-.2.5-.6 1.2-.9 2-.6.8.2 1.3.7 1.5 1.6 0 .2.1.3.4.4 4.8 1.2 9.7 2.4 14.5 3.7.2.1.3 0 .5-.2 1.8-2.5 3.5-5 5.3-7.4 3.9-5.5 7.8-11 11.8-16.5.4-.6.8-1.2 1.2-1.7-.1 0-.2-.1-.3-.1-.9-.4-1.5-1.3-1.2-2.2.2-.9 1-1.5 2-1.5s1.7.6 1.9 1.6c0 .2.2.3.3.4 4.6 1.6 9.1 3.3 13.7 4.9.3.1.4.1.6-.2.6-.7 1.5-.9 2.3-.5.8-.4 1.2.5 1.1 1.4z"/><path class="st0" d="M-173 254.5c0-1.1.9-2 2-2s2 .9 2 2.1c0 1-.9 1.9-2 1.9s-2-.9-2-2zM-159 240.6c1.1 0 2 .9 2 2s-.9 2-2 2-2-.9-2-2 .9-2.1 2-2zM-135 240.6c1.1 0 2 .9 2 2s-.9 2-2 2-2-.9-2-2c0-1.2.9-2.1 2-2zM-115 236.5c0 1.1-.9 2-1.9 2-1.1 0-2-.9-2-1.9 0-1.2.8-2.1 2-2.1 1 0 1.9.9 1.9 2zM-161 254.6c0-1.1.9-2 2-2s2 .9 2 2-.9 2-2 2-2-1-2-2zM-111 244.5c-1.1 0-2-.9-2-2s.9-2 2-2 2 .9 2 2c0 1.2-.9 2-2 2zM-153 250.5c-1.1 0-2-.9-2-2s.9-2 2-2 2 .9 2 2-.9 2-2 2zM-185 254.6c0-1.1.9-2 2-2s2 .9 2 2-.9 2-2 2-2-1-2-2zM-113 230.5c0-1.1.9-2 2-2s2 .9 2 2-.9 2-2 2-2-.9-2-2zM-139 236.5c0 1.1-.9 2-2 2s-2-.9-2-2 .9-2 2-2 2 .9 2 2zM-163 260.5c0 1.1-.9 2-2 2s-2-.9-2-2 .9-2 2-2 2 .9 2 2zM-165 250.5c-1.1 0-2-.9-2-2s.9-2 2.1-1.9c1.1 0 1.9 1 1.9 2 0 1.1-.9 2-2 1.9zM-187 260.5c0 1.1-.9 2-2 2s-2-.9-2-2 .9-2 2-2 2 .9 2 2zM-171 264.6c1.1 0 2 .9 2 2s-.9 1.9-2 1.9-2-.9-2-2 .9-1.9 2-1.9zM-153 238.5c-1.1 0-2-.9-2-2s.9-2 2-2 2 .9 2 2-.9 2-2 2zM-175 260.6c0 1.1-.9 2-2 2s-2-.9-2-2 .9-2 2-2 2 .9 2 2zM-115 248.6c0 1.1-.9 2-2 2s-2-.9-1.9-2.1c0-1.1 1-1.9 2.1-1.9 1 0 1.8.9 1.8 2zM-123 244.5c-1.1 0-2-.9-2-2s.9-2 2-2 2 .9 2 2c0 1.2-.9 2-2 2z"/></svg>