<?xml version="1.0" encoding="utf-8"?>
<!-- Generator: Adobe Illustrator 19.0.0, SVG Export Plug-In . SVG Version: 6.00 Build 0)  -->
<svg version="1.1" id="Layer_1" xmlns="http://www.w3.org/2000/svg" xmlns:xlink="http://www.w3.org/1999/xlink" x="0px" y="0px"
	 viewBox="0 0 180 180" style="enable-background:new 0 0 180 180;" xml:space="preserve">
<style type="text/css">
	.st0{fill:#AB7849;}
	.st1{fill:#986639;}
	.st2{fill:#805530;}
	.st3{fill:#33D623;}
	.st4{fill:#28B41E;}
	.st5{fill:#43CB2B;}
	.st6{fill:#9A6A40;}
	.st7{fill:#6A8127;}
	.st8{fill:#82993F;}
	.st9{fill:#F9FDFE;}
	.st10{fill:#4E2F13;}
	.st11{fill:#99663A;}
	.st12{fill:#80552F;}
	.st13{fill:#996639;}
	.st14{fill:#694221;}
	.st15{fill:#BD6D4F;}
	.st16{fill:#815530;}
	.st17{fill:#9F613C;}
</style>
<path id="XMLID_21_" class="st0" d="M100.1,4.5c0.9,1.2,2.2,0.9,3.4,0.9c3.4,0,6.9,0,10.3,0c6,0,7.7,1.7,7.8,7.6
	c0,2.6,0.1,5.2,0,7.7c-0.1,1.9,0.6,2.5,2.5,2.4c7-0.2,14,0.2,21-0.2c5.7-0.3,9.9,1.2,11.7,7c-0.4,2.1-0.4,4.2,1,5.9
	c2.3,1.7,4.7,1.2,7.1,0.2c0.2-0.2,0.5-0.4,0.8-0.5c1.3,1.3,1.2,2.8,1.2,4.5c0,21.2,0.1,42.3,0,63.5c-0.3,34.4-19.7,62-50.9,72.5
	c-9.1,3.1-18.4,4.4-27.9,3.6c-16-7.6-28-19.1-34.3-35.7c-4-10.5-4.6-21.6-4.3-32.7c0-0.6,0.2-1.2,0.6-1.7c1.2-0.8,2.4-0.2,3.5,0.1
	c4,0.9,7.1-0.6,9.3-3.7c1.9-2.7,1.8-5.9,0.2-8.7c-1.9-3.2-4.9-4.8-8.7-4.2c-1.3,0.2-2.7,0.6-3.9-0.2c-0.9-0.9-0.8-2-0.7-3.1
	c1.5-14.8,5-29,11.7-42.4c1-1.9,1.9-5.1,4-4.7c2.4,0.5,1.3,3.8,1.4,5.9c0.1,9.7,0,19.4,0.1,29.1c0,1.4-0.4,3,0.8,4.2
	c2.6-0.4,1.4-2.5,1.4-3.7c0.1-11.7,0.1-23.5,0.1-35.2c0-1.8,0-3.7,0.1-5.5c0-0.4,0.1-0.8,0.2-1.2c2.8-6.1,7.8-10,13-13.7
	c3.2-2.3,6.7-4.1,10-6.3c3.6-2.5,6.4-5.4,6.5-10.1C99.3,5.5,99.5,4.9,100.1,4.5z"/>
<path id="XMLID_20_" class="st1" d="M100.1,4.5c0.8,7.1-3.7,10.7-9,13.8c-7.9,4.6-15.4,9.6-20.6,17.4c-1.6-1.7-1-3.9-1.1-5.9
	c-0.1-2.7,0.1-5.3-0.2-8c-0.1-0.8,0.2-2.7-1.8-1.3c-0.9,6.4-0.7,12.8-0.2,19.1c0.3,4.4,0.6,8.8,0.6,13.2c0,8.3,0,16.7,0,25
	c0,1.8,0.3,3.7-1.2,5.2c-1.2-1.2-0.7-2.8-0.7-4.2c0-11.9,0-23.8,0-36.5c-6.3,9.3-9.2,18.9-11.8,28.7c-1.8,6.6-2.4,13.4-3.5,20.2
	c-0.1,0.7,0.2,1.2,0.7,1.6c0.1,1-0.6,1.6-1.1,2.2c-3.7,4.7-3.8,7.5-0.5,12.3c0.5,0.7,1.1,1.3,0.8,2.3c-0.3,10.2,0.5,20.3,3,30.1
	c3,11.9,10.2,21.2,19.3,29.1c4.8,4.2,10.5,7.1,15.4,11c-25.1-1-45-11.7-59.9-31.8c-0.8-9.8-0.2-19.6-0.4-29.5c0-1.5,0.1-3-0.4-4.4
	c-0.2-0.6-0.6-1.1-1.3-1.2c-0.9-0.1-1.3,0.6-1.5,1.3c-0.5,1.2-0.3,2.4-0.1,3.6c1.1,6.6-0.7,13.2-0.3,19.9c0.1,0.9-0.5,1.6-1.3,2.1
	c-5.7-9.8-9.1-20.2-9.7-31.6c-0.4-0.8-0.3-1.7-0.3-2.5c0-22.8,0-45.6,0-68.4c0-0.8-0.1-1.7,0.3-2.5c1.4-2.4,0.6-5.2,1.3-7.7
	c1.9,0.9,0.6,3.3,2.1,4.4c0.3,0.2,0.6,0.5,0.9,0.7c7.7,0.6,15.3,0.6,22.9,0c0.3-0.2,0.7-0.4,1-0.6c1.4,0.2,2.3,1.3,3.6,2.4
	c1-7.6-0.7-15.1,1.2-22.4c0.8-1.2,2.1-1.2,3.3-1.2c6.4-0.1,12.8,0,19.1-0.2c0.3,0.8-0.1,2,1.6,2.4c0-2.1-0.1-4.2,0-6.2
	c0.1-4.1,2.1-6.2,6.1-6.2C82.6,0,88.5,0,94.4,0C97.4,0.1,99.6,1.2,100.1,4.5z"/>
<path id="XMLID_19_" class="st2" d="M23.2,139.8c-0.3-7.6,1.8-15.3,0.2-22.9c-0.2-0.8-0.2-1.7-0.1-2.6c0.4-1.6,0.8-3.3,2.9-3.2
	c2.1,0.1,2.9,1.5,2.9,3.5c0,5,0,10.1,0,15.1c0,4.9,0,9.8,0,14.8c0,1.2,0.4,2.5-0.7,3.5C26.3,145.5,24.5,142.8,23.2,139.8z"/>
<path id="XMLID_18_" class="st3" d="M16.5,31.9c-3.2-0.7-0.8-3.3-1.7-4.8c0.3-2.3,2-2.4,3.8-2.4c5.7,0,11.5,0,17.2,0
	c5,0,5.5,0.6,5.1,5.9c-1.3,1.2-2.9,1-4.5,1.1c-6.2,0.1-12.4-0.1-18.6,0.1C17.4,31.7,17,31.8,16.5,31.9z"/>
<path id="XMLID_17_" class="st4" d="M68.9,10.1c-0.9,1.4-2.3,1.1-3.6,1.1c-6.3,0.1-12.5-0.3-18.8,0.3c-0.3-4.5,0-4.9,4.4-4.9
	c4.9,0,9.8,0,14.7-0.1C68.1,6.5,69.4,7.4,68.9,10.1z"/>
<path id="XMLID_16_" class="st5" d="M165.9,35.7c-0.1,0.2-0.2,0.4-0.2,0.6c-2.9,1.3-5.8,1.3-8.8,0c-1-2.1-2.7-4.1-0.1-6.2
	c1.2-0.1,2.4-0.2,3.7-0.2C166.1,29.9,166.1,29.9,165.9,35.7z"/>
<path id="XMLID_15_" class="st6" d="M13.5,34.8c0,24.5,0,49,0,73.5c-0.9-1.7-0.6-3.6-0.6-5.4c0-21.5,0-43,0-64.6
	C12.9,37.1,12.6,35.8,13.5,34.8z"/>
<path id="XMLID_14_" class="st7" d="M16.5,31.9c0-0.2,0-0.4,0.1-0.6c8.2-0.7,16.4-0.4,24.6-0.1c0.2,0,0.4,0.1,0.5,0.3
	c0,0.2-0.1,0.3-0.1,0.5c-0.5,0.4-1,0.7-1.6,0.7c-7.5,0.1-14.9,0.2-22.4-0.1c-0.4,0-0.7-0.3-1-0.4L16.5,31.9z"/>
<path id="XMLID_13_" class="st8" d="M41.1,31.1c-8.2,0-16.4,0.1-24.6,0.1c1.1-1.3,2.5-0.7,3.8-0.7c6.8-0.1,13.7-0.1,20.5-0.1
	C41.1,30.7,41.2,30.9,41.1,31.1z"/>
<path id="XMLID_12_" class="st9" d="M89.9,124c6,0,12.1-0.1,18.1,0c4.9,0.1,5.7,1.3,5.5,6.2c-0.6,13.4-13.3,22.8-27.5,20.4
	c-12-2-19.4-10.2-19.5-21.4c0-4,1.2-5.3,5.3-5.3C77.8,123.9,83.8,124,89.9,124C89.9,124,89.9,124,89.9,124z"/>
<path id="XMLID_11_" class="st1" d="M128.8,51.2c0,5.8,0,11.5,0,17.3c0,2.4-0.8,4-3.5,4.2c-2.8,0.2-3.8-1.6-3.8-3.9
	c-0.1-11.9-0.1-23.8,0-35.7c0-2.4,1.6-3.9,4-3.9c2.6-0.1,3.2,2,3.3,4C128.9,39.1,128.8,45.1,128.8,51.2z"/>
<path id="XMLID_10_" class="st10" d="M117,108.2c-3.8-5.5-3.7-8,0.1-14c0.8-2,2.7-1.9,4.4-2.3c6.9-0.2,11.4,2.9,11.8,8.1
	c0.7,7.9-5,12.3-13.3,10.4C118.1,110.9,117.9,109,117,108.2z"/>
<path id="XMLID_9_" class="st10" d="M50.5,109.5c-5.8-6.7-5.6-11.1,0.9-16.8c3.5-1.1,7-1.5,10.2,0.9c3.8,2.9,5.1,8.3,3,12.2
	c-2.2,4.2-7.2,6.1-12,4.5C51.9,110.1,51.2,109.8,50.5,109.5z"/>
<path id="XMLID_8_" class="st11" d="M159.1,77.4c0,11.4,0,22.9,0,34.3c0,1.3,0.5,3.2-1.4,3.3c-1.9,0.1-1.5-1.9-1.5-3.1
	c0-23.4,0-46.8,0-70.2c0-1.1-0.7-2.9,1.2-2.9c1.9,0,1.7,1.8,1.7,3.1C159.1,53.8,159.1,65.6,159.1,77.4z"/>
<path id="XMLID_7_" class="st12" d="M66.7,83c0-12.8,0.5-25.6-0.1-38.4c-0.3-7.4-0.4-14.7-0.5-22.1c0-1.3-0.5-2.7,0.7-3.8
	c1.3,1.3,1,3,1,4.5c0.1,4.5,0,9.1,0,13.5c1.1,0.3,1.7-0.8,2.6-0.3c0,14.9,0,29.8,0.1,44.8c0,1.1,0.1,2.3-1.1,2.9
	C68.2,84.8,67.4,84.1,66.7,83z"/>
<path id="XMLID_6_" class="st13" d="M117,108.2c1,0.7,2,1.5,3,2.2c0,12.7,0,25.4,0,38c0,1.1,0,2.2-0.2,3.3c-0.1,0.6-0.6,1.1-1.3,1.1
	c-0.7,0-1.2-0.5-1.3-1.1c-0.2-1.1-0.2-2.2-0.2-3.3C117,135,117,121.6,117,108.2z"/>
<path id="XMLID_5_" class="st14" d="M70.4,36.4c-1.4,0.6-1.9,2.2-3.6,3.8c0-7.6,0-14.5,0-21.5c3-1.8,3.7-0.2,3.7,2.4
	c0,4.9,0,9.7,0,14.6C70.5,35.9,70.5,36.2,70.4,36.4z"/>
<path id="XMLID_4_" class="st13" d="M121.5,91.9c-1.5,0.8-2.9,1.5-4.4,2.3c0-4-0.1-8.1-0.1-12.1c0-1.3,0.1-2.7,1.8-2.6
	c1.6,0.1,1.1,1.6,1.1,2.6c0.1,2.3,0,4.6,0,7C120,90.3,119.8,91.6,121.5,91.9z"/>
<path id="XMLID_3_" class="st15" d="M156.9,36.3c2.9,0,5.8,0,8.8,0C164,38.6,158.7,38.6,156.9,36.3z"/>
<path id="XMLID_2_" class="st16" d="M37.2,48.7c0-2.3,0.1-4.7,0-7c-0.1-2.4,1.3-3.5,3.3-3.6c2-0.1,3.2,1.4,3.3,3.3
	c0.1,5.3,0.1,10.6,0,15.8c-0.1,2.1-1.9,2.7-3.7,2.8c-1.7,0-2.7-1.2-2.8-2.8C37.2,54.3,37.3,51.5,37.2,48.7
	C37.3,48.7,37.2,48.7,37.2,48.7z"/>
<path id="XMLID_1_" class="st17" d="M16.6,32.1c8.4-0.1,16.7-0.1,25.1-0.2c-0.1,1.6-1.2,1.5-2.4,1.5c-6.8,0-13.6,0-20.5,0
	C17.8,33.5,16.8,33.4,16.6,32.1z"/>
</svg>
