<?xml version="1.0" encoding="utf-8"?>
<!-- Generator: Adobe Illustrator 19.0.0, SVG Export Plug-In . SVG Version: 6.00 Build 0)  -->
<svg version="1.1" xmlns="http://www.w3.org/2000/svg" xmlns:xlink="http://www.w3.org/1999/xlink" x="0px" y="0px"
	 viewBox="0 0 922.2 512.5" style="enable-background:new 0 0 922.2 512.5;" xml:space="preserve">
<style type="text/css">
	.st0{display:none;}
	.st1{display:inline;fill:#212121;}
	.st2{fill:url(#XMLID_77_);}
	.st3{fill:#4D4D4D;}
</style>
<g id="Background" class="st0">
	<rect id="XMLID_62_" x="-914.7" y="-459.2" class="st1" width="2544" height="1588.1"/>
</g>
<g id="Sun">
	
		<linearGradient id="XMLID_77_" gradientUnits="userSpaceOnUse" x1="120.2405" y1="250" x2="620.2405" y2="250" gradientTransform="matrix(-0.7071 -0.7071 0.7071 -0.7071 455.2633 688.5762)">
		<stop  offset="0" style="stop-color:#FFCC00"/>
		<stop  offset="1" style="stop-color:#FFA91A"/>
	</linearGradient>
	<circle id="XMLID_1_" class="st2" cx="370.2" cy="250" r="250"/>
</g>
<g id="Aircraft">
	<g id="XMLID_35_">
		<g id="XMLID_36_">
			<path id="XMLID_15_" class="st3" d="M905.1,64.7c-2.7-0.6-5.6,1.6-8.3-0.4c-0.3-0.2-1.4,0.1-1.8,0.5c-2.8,2.8-2.8,2.8-6.2,0.3
				c-1.5-1.1-2.6-0.8-2.6,1.2c0,4.4-1.8,2-3.1,0.8c-0.7-0.6-1.1-1.7-1.8-2.4c-2.1-1.9-4.8-3.4-7.3-1.9c-4.2,2.6-8.8,4-13,6.3
				c-3.5,1.9-6.6,3.5-10.7,4.4c-3.2,0.7-6.1,4.9-7,8.8c-1.3,5.7-9,11.2-14.2,9.2c-3.5-1.4-6-0.5-8.8,1.4c-2.5,1.7-5.1,3.3-8,4.2
				c-4.5,1.4-7.5,4.2-10.8,7.4c-4,3.9-9.3,7.1-15.1,8.5c-3.3,0.8-6.3,2-9.4,3.3c-3.2,1.3-5.4,3.2-5.7,6.9c-0.2,2.7-1.6,4-4.6,4.1
				c-3.8,0.1-7.6,0.7-11.5,1.2c-5,0.6-9.6,1.9-13.4,5.7c-2.9,2.9-6.2,5.6-10.8,5.5c-1.1,0-2.1,1-2.7,2c-4.2,6.3-8.1,7-14.6,2.8
				c-2.1-1.4-3.1,0.5-3.9,1.8c-2,2.9-4.4,5.5-7.1,7.8c-2.6,2.2-5.5,3.8-9,4.1c-1.5,0.1-3,0.6-4.3,1.3c-1.3,0.7-2.8,2.1-2,3.6
				c0.8,1.6,2.3,0.1,3.5-0.2c1.8-0.5,3.3-2.3,6.9-1.4c-6.8,3-11.4,8-18.6,6.5c-2.9-0.6-5.9-0.2-7.9,2.1c-5.6,6.7-13.6,9.7-21.3,11.4
				c-7.5,1.7-14.3,4.5-21.1,7.6c-2.1,0.9-4.1,2.4-6.6,1.8c12.1-4.6,22.9-11.7,34.4-17.6c13.5-7,26.7-14.6,40-21.9
				c24.2-13.3,48.4-26.6,72.6-39.8c11.7-6.4,23.4-12.9,35.3-19.2c23.8-12.6,47.1-26,70.7-38.9c7-3.8,13.5-8.7,21.8-9.7
				c12-1.4,22.4,5.7,25,17.5c0.7,3-0.1,4.5-3.5,4.2C914.1,65.1,909.6,64.9,905.1,64.7z"/>
			<path id="XMLID_14_" class="st3" d="M364.3,299.4c1.9-0.3,4.5-1.4,5.2,1.1c0.7,2.4-1.8,3-3.6,4c-11.2,6.4-23.1,11.4-34.5,17.2
				c-4.6,2.3-9.8,2.1-14.4,4.1c-2,0.9-3.5-0.5-4-2.7c-1-4.7-4.3-7.7-8.3-11.3c-0.1,4.8-0.5,8.8,1.5,12.6c3.3,6.1,3.2,6.2-2.7,10.5
				c-12.1-25.6-24.9-50.8-36.2-76.8c-6.6-15.2-12.8-30.8-16.5-47.2c-0.6-2.7-1.9-7.2,0.6-8.3c3.4-1.5,3.9,3.2,5.1,5.4
				c15.2,27.7,28.9,56.2,43.6,84.2c4.9,9.3,9.6,18.8,14.2,28.3c1.5,3.1,3.1,4.4,6.6,2.8c14.1-6.7,28.1-13.4,42.5-19.3
				C365.6,303.1,369.1,301.9,364.3,299.4z"/>
			<path id="XMLID_13_" class="st3" d="M779.4,158.7c6.1,2.1,12.4,2.3,18.9,3.2c-2,1.1-4.2,2.1-6.1,3.5c-2.3,1.7-2.5,3.5,0.4,4.9
				c-2.1,1-4.2,2.1-6.3,3c-3.1,1.2-5.6,2.8-6,6.5c-0.2,1.7-1.1,3.2-2.9,3.7c-1.1,0.3-2.4-0.3-1.5-1.4c5.5-6.9,0.5-12.5-2-18.4
				c-1.6-1.3-2.4-2.7,0.3-3.3C776,159.9,777.5,158.5,779.4,158.7z"/>
			<path id="XMLID_12_" class="st3" d="M274.6,437.7c1.5,0.6,3,1.3,4.6,1.8c3,1.1,4.2,2.9,2.8,6.1c-0.4,0.9-1.3,2.3,0.8,2.6
				c-0.1,2.7-1.3,5.2-2.3,7.6c-0.4,0.9-1,2-2.3,1.3c-0.9-0.5-0.5-1.5-0.3-2.3c0.6-2.3,0.9-4.6,1.8-6.8c1.6-3.8,1.6-6.7-2.8-8.4
				C275.9,439.4,275.3,438.4,274.6,437.7z"/>
			<path id="XMLID_11_" class="st3" d="M792.7,170.3c0.5-0.7,1-1.4,1.5-2c2.7-0.2,5.2,0.3,7.1,2.4c0.4,0.5,0.3,1.4-0.4,1.7
				c-2.8,1.2-5-0.5-7.3-1.6C793.2,170.6,792.9,170.4,792.7,170.3z"/>
			<path id="XMLID_10_" class="st3" d="M779.4,158.7c-1.7,1.8-6.1,0.6-5.5,4.9c-0.5-0.2-1-0.2-1.4-0.5c-1.8-1.3-5.5-2.1-4.8-4.2
				c0.9-2.7,3.6,0.2,5.6,0.4c2.1,0.2,3.9-0.7,5.7-1.5C779.1,158.1,779.3,158.4,779.4,158.7z"/>
			<path id="XMLID_9_" class="st3" d="M738.4,210.5c1.6,1.1,3.4,1.7,5.3,1.8c-1,2.3-1.9,4.6-2.9,6.9c-0.4,1-1.3,1.6-2.4,0.9
				c-0.9-0.5-0.8-1.6-0.2-2.2C740.3,215.4,739.7,213,738.4,210.5z"/>
			<path id="XMLID_8_" class="st3" d="M823.4,155.5c1.7-0.2,3.1-1.8,5-1.3c-2.5,1.5-2.8,4.3-3.7,6.8c-0.3,0.9-0.8,2.1-2,1.8
				c-1.4-0.3-0.8-1.6-0.6-2.5C822.5,158.7,823,157.1,823.4,155.5z"/>
			<path id="XMLID_7_" class="st3" d="M395.2,359.3c-0.6,2.1-1.2,4.2-1.8,6.2c-0.1-0.1-0.2-0.3-0.3-0.4c-0.9-1.8-4.5-2.4-3.4-4.9
				C390.5,358.4,393.4,360.2,395.2,359.3z"/>
			<path id="XMLID_6_" class="st3" d="M556.6,310.2c2.6-0.2,1.3,3.8,3.9,3.7c-0.4,1.7-0.5,3.7-2.9,4.4
				C556.1,315.8,558.1,312.7,556.6,310.2z"/>
			<path id="XMLID_16_" class="st3" d="M810.2,122.9c15.9-9.9,31.6-20.2,47.5-30c15.7-9.6,30.7-20.2,47.4-28.2
				c-2.3-4.3-6.7-3-9.6-2.4c-5.4,1-10.3,1.1-15.3-1.1c-3.5-1.6-6.6-1.3-9.9,0.9c-5.3,3.5-11.2,6.7-17.1,7.9
				c-7.7,1.6-10.3,6.6-12.7,12.4c-1.7,4-5.2,7.6-9.4,6.6c-6.1-1.5-10.7,0.7-15.3,4c-1.8,1.2-3.9,2.1-6,2.5c-3.1,0.7-5.6,2.3-7.7,4.5
				c-5.5,5.7-12.1,9-19.6,11.6c-4.8,1.6-10.6,2.7-12.8,7.9c-1.9,4.6-5,5.6-9.3,6c-7.2,0.7-14.6,1.1-20.3,6.9
				c-2.5,2.7-5.9,4.3-9.6,5.1c-2.2,0.4-3.9,1.8-5.1,3.8c-1.7,2.8-4.6,4-7.3,2.8c-4.4-1.9-7.2-0.3-10.2,2.6
				c-4.6,4.4-9.4,8.4-15.9,9.8c-1.8,0.4-3.5,1.5-4.9,2.6c-1.6,1.2-2.8,3-1.6,5.3c0.8,1.5,1.9,1.4,4.9,0.2c-2.9,2.1-6.7,1.8-10.3,1.1
				c-3.9-0.7-7.4,0.6-9.9,2.9c-3.9,3.6-8.6,5.6-13.2,8.1c-6.4,3.4-13.7,4.6-20.2,8.2c-4.5,2.5-9.1,5.5-14.5,6.3
				c-3-9.1-8.1-17.2-12.1-25.8c-11-23.9-22-47.7-33.1-71.6c-3.9-8.4-9.1-15.9-16.1-22.2c-0.7-0.7-1.4-1.6-2.5-1.2
				c-1,0.3-1.1,1.3-1,2.1c1.3,7.9,0.9,16.3,4.2,23.6c7.3,16.2,13.2,32.9,20.7,49c6.9,14.9,12.9,30.2,19.3,45.2c1.6,3.7,1,6.2-3,8
				c-9.6,4.3-19.1,9-28.7,13.3c-4.6,2.1-9.5,3.6-15.5,5.9c2.3-6,4.4-10.6,6-15.5c5.8-17.6-4.9-43.2-23.1-51.5
				c-27-12.4-55.4,3-58.2,32.7c-0.6,6.8-0.5,13.8-2.7,20.4c-1.5,4.5-3.7,5.1-7.5,2.3c-3.8-2.8-6.3-6.9-9.5-10.2
				c-8.7-9.1-20.7-11.9-31.7-7.3c-10.3,4.4-17.2,16.2-16.6,28c0.2,3.9,1.5,7.5,2.4,11.3c0.6,2.8-0.2,5.2-2.4,6.6
				c-2.2,1.4-3.7-0.7-5.1-2c-7.3-6.3-15.6-10.9-24.3-14.8c-17.3-7.8-37.9-2.2-48.3,13.8c-12.3,18.8-9.6,36.1,1.8,52
				c6.8,9.5,16.6,16.1,29.2,16.4c1.5,0.2,3.3-0.1,3.7,1.8c0.5,2.2-1.5,2.2-2.8,2.7c-3.1,1.2-5.6,3.6-8.8,4.7
				c-12.7,4.4-24,12-36.9,16c-2.8,0.9-4.3,0.8-5.3-2.2c-1.3-3.8-3.5-7.1-6-10.3c-1.1-1.4-2.3-1.9-3.9-1.5c-1.5,0.4-2.1,1.6-2.1,3.1
				c0.1,3.2-0.6,6.5,0.9,9.4c1.9,3.9,1.8,7.7,0.5,11.7c-0.1,2.5-2.2,2.6-3.9,3.2c-17.4,6.4-34.9,12.7-52.3,19.2
				c-19.8,7.3-39.4,14.9-59.2,22.1c-24.7,9-49.5,17.6-74.1,26.8C81.4,418.3,49,430.7,16.4,443c-13.3,5-20.1,20.7-14.3,32.9
				c2.1,4.4,3.5,4.7,5.9,0.6c5.3-8.9,13.2-14.3,22.7-17.2c19.7-6,39.3-12.1,58.8-18.8c6.7-2.3,6.8-2,9.5,4.3
				c1.2,2.9,2.6,5.8,3.9,8.7c0.8,1.9,1.6,4,0.3,5.8c-3,4-1.5,7.6,0.2,11.3c4,8.7,8.4,17.2,12,26c2.6,6.3,6.4,11.4,12,15.1
				c2,1.3,2.1,0.4,2.4-1.3c0.7-5.3,1.5-5.8,6.5-3.4c2.7,1.3,5.5,0.2,6.1-1.6c1.4-4.3,4.5-8.3,2.1-13.6
				c-5.6-12.3-10.4-25.1-16.5-37.2c-1.2-2.4-2.6-4.3-5.7-3.9c-2.2,0.3-3.4-1-4.3-2.8c-1.4-2.9-2.8-5.7-4.1-8.6
				c-2.3-5-1.9-5.9,3.4-7.5c16.3-5,32.7-9.9,49-14.9c9.3-2.9,10.4-2.4,13.3,7.1c0.2,0.8,0.5,1.6,0.6,2.4c0.4,2.8,0.4,5.3-3.6,4.7
				c-0.8-0.1-1.8-0.2-2.1,0.8c-0.4,0.9,0.2,1.7,0.9,2.1c2.9,1.6,3.1,4.5,3.6,7.3c0.5,3,1.7,5.8,4,8c2.2,2.1,4.7,4,4.6,8.1
				c4.3-4,9.6-2.7,13.7-5.2c3.7-2.3,6.6-7.2,12.6-3.7c-1.3-3.1-4.2-3.8-4-7.3c0.6-9.5-4.7-17.3-13-20.6c-0.7-0.3-1.2-1.2-1.5-1.9
				c-0.9-1.8-1.7-3.6-2.6-5.4c-1.5-3-0.5-4.4,2.7-5.4c22.1-6.8,44.1-13.8,66.1-20.9c2.9-0.9,4.6-0.2,5.4,2.6
				c1.4,4.8,3.4,9.5,5.7,13.9c1.9,3.5,0.1,6-1.7,8.7c-1.9,2.9-4,1.2-6.2,0.7c-1-0.2-2-0.4-3-0.5c-1-0.1-2.1-0.2-2.4,1.1
				c-0.2,0.9,0.5,1.6,1.2,2c1.6,0.9,3.2,1.8,4.9,2.6c1.6,0.7,3,1.7,3.1,3.6c0.1,6,3.5,10.7,6,15.8c3.5,2.4,9.5,3.1,6.1,10
				c-0.7,1.4,0.8,2.3,2,0.5c0.6-3.3,2.5-5.2,5.9-4.7c6.1,0.9,10.8-1.6,14.7-5.9c2.7-3,5.5-3.6,9.4-2.1c2.2,0.9,6,4.1,7.3,0.4
				c1.2-3.4-3.4-3.7-5.9-4.4c-3.4-0.9-4.4-2.4-3.8-6.1c1.2-7.4-2-13.5-7.2-18.3c-3.2-3-4.7-5.9-2.9-10.1c0.5-1.1,0.7-2.2,0.9-3.4
				c0.2-1,0.3-2.1-1-2.5c-1.2-0.3-1.9,0.6-2.2,1.6c-0.6,1.7-1.1,3.5-1.6,5.3c-0.6,2-1.4,3.7-4,3.6c-2.3-0.1-3.5-1.3-4.4-3.4
				c-1.5-3.7-3.3-7.3-5-11c-2.6-5.6-2.1-6.7,4-8.4c10.1-2.9,20.3-5.7,30.4-8.6c8.6-2.5,8.7-2.6,12.2,5.4
				c8.1,18.5,15.4,15.3,27.5,10.1c12.9-5.5,16.3-14.6,11-27.7c-0.3-0.8-0.6-1.6-0.9-2.3c-1.3-3.2-0.5-5.5,2.9-6.8
				c5.2-2,10.2-4.1,15.4-6.2c1.4-0.6,3.3-1.3,4.1,0.3c2.5,5.1,6.9,9.6,5.8,16.1c-2.5,1.5-2.2,3.9-1.8,6.2c0.1,3.8,0.9,7.5,3.6,10.2
				c3.4,3.5,7,6.7,5,12.8c1.8-5.1,5.8-6.2,9.8-7.2c5.3-1.4,9.3-6.8,15.7-5.1c0.6,0.2,1.4-0.5,1.2-1.2c-0.1-0.6-0.6-1.3-1.1-1.5
				c-3.3-1.1-3.3-3.6-3.2-6.5c0.2-4.2-1.2-8-4.3-10.9c-2.3-2.2-4.5-4.4-3.8-10.1c-4.2,7-5.6,3.7-7,0.6c-0.9-2-1.8-4-2.8-5.9
				c-2.2-4.1-1.4-6.8,3.1-8.6c7.2-2.8,14.2-5.9,21.3-9c2.8-1.2,4.8-0.8,6,2.2c1,2.3,2.3,4.5,2.1,7.1c-0.1,2.3,0.6,5.1,2.6,5.6
				c5.7,1.4,6.4,6.1,8.3,10.3c1.2,2.7,2.1,5.8,4.5,7.8c2.1,1.8,2.8,3.5,1.9,6.1c-0.3,0.9-0.9,2.2,0.6,2.5c1.2,0.3,1.6-0.9,2.1-1.8
				c0.8-1.7,1.4-3.9,3.5-3.8c7.9,0.5,12.5-8.1,20.9-6.9c-3.9-2-4-5-3.8-8.3c0.2-4.2-1.4-8-4.2-11c-2.3-2.5-4.3-5-4.1-8.4
				c-2.4-0.8-2.5,4.7-4.8,1.7c-2.2-3-5.5-6.9-3.7-10.3c1.7-3.3,6.7-3.1,10.1-1.8c3.9,1.5,7.1,0.9,10.5-1.1c3.3-1.9,6.6-3.9,10-5.7
				c3.8-2,8.3-3.3,6.9-9.7c3.7,3.2,4.8,7.1,6.1,10.8c0.5,1.5,0,3.5-1.8,3.6c-5.4,0.4-4.4,2.1-1.2,4.7c0.5,0.4,1.1,1.1,1,1.7
				c-0.8,8.9,9.3,13.5,8.6,22.6c1.6-4.7,4.8-6.3,9.2-6.7c1.7-0.2,3.5-1.2,5-2.2c3.2-2.1,6.1-4.9,10.5-3.6c0.4,0.1,1.3-0.4,1.6-0.8
				c0.5-0.6,0.2-1.5-0.5-1.7c-4.4-1.1-3.4-4.3-3.4-7.5c0-4-1.4-7.7-4.4-10.4c-2.4-2.2-4-4.5-4.1-8.1c-4.6,3.8-4.6,3.8-7-1.4
				c-1.1-2.4-2.2-4.9-3.4-7.3c-1.5-3.1-0.6-5,2.4-6.4c7.1-3.3,14.3-6.6,21.3-10.1c3.7-1.9,6-0.8,7.4,2.9c0.5,1.2,1.2,2.4,1.7,3.6
				c0.9,2.3,2.7,4.3,2,7.1c-0.8,3.2-4.2,1-5.7,2.8c1.1,2,3,3.1,3.3,5.6c0.6,5.5,3.1,10.2,7.7,13.5c1.4,0.7,1.3,2,1.5,3.3
				c0.3,1.9,1.3,2.1,2.4,0.4c4.2-1.5,8.7-2.4,12.6-4.8c2.7-1.6,4.9-3.9,8.7-2.9c1.8,0.5,2.5-1.6,0.9-2.4c-3.4-1.7-2.6-4.6-2.8-7.3
				c-0.3-4.7-2.1-8.9-5.3-12.1c-1.9-1.9-3.2-3.7-3-6.5c-4.2,3.5-4.2,3.5-6.4-0.9c-1.1-2.2-2.1-4.6-3.2-6.8c-1.7-3.2-0.9-5.3,2.4-6.8
				c8.2-3.9,16.4-7.6,24.8-10.9c2.5-1,4.2-0.6,5.3,1.8c1.6,3.4,4.3,5.9,6.7,8.8c6.9,8.3,15.3,9.5,25.7,3.9c9.3-5,13-13.2,10.3-22.9
				c-0.8-2.9-1.6-5.8-2.7-8.6c-1.3-3-0.7-4.9,2.2-6.6c5.3-3.1,10.5-6.5,15.8-9.8c10.7-6.7,10.7-6.7,15.5,5c0.2,0.5,0.4,0.9,0.6,1.4
				c1.2,3-0.6,5.2-2.2,7.3c-1.5,2-3.4,0.2-5-0.1c-1.5-0.3-2.9-0.8-4.4-1c-1-0.2-2,0.2-2.4,1.3c-0.4,1.1,0.2,2,1,2.6
				c1.1,0.7,2.3,1.5,3.5,1.9c3.5,1.3,5,3.6,5.6,7.4c0.9,5.8,2.7,11.6,8.2,14.8c3.3,1.9,3.5,4.2,2.9,7.6c-0.5,3-3.2,5.5-2.2,9
				c2.7-0.7,3.2-2.8,3.7-4.6c1.4-5.7,4.6-8.6,10.7-8.2c3.3,0.2,6.5-1,8.6-3.5c4.4-5.4,9.3-6.6,15.3-3.2c0.3,0.2,0.6,0.2,1,0.3
				c1.4,0.2,2.8,0.4,3.5-1.1c0.7-1.8-0.9-2.3-2.1-2.8c-1.7-0.7-3.4-1.4-5.1-2.1c-2.1-0.8-3.3-2.1-2.9-4.5c1.4-8.6-1.6-15.3-8.5-20.5
				c-2.1-1.6-3.1-3.8-1.9-6.7c0.9-2.3,3.9-5.8,1.2-7c-3.5-1.5-3.3,3.5-4.8,5.6c-1.2,1.8-2.5,3.1-4.8,3.1c-2.3,0-3.7-1.3-4.6-3.3
				c-0.9-2.1-1.7-4.4-2.8-6.4c-2.5-5-1.1-8.3,3.6-11.1c11.3-6.8,22.6-13.8,33.7-20.9c9.2-5.9,8-8.3,14,4.5c0.4,0.9,0.8,1.9,0.9,2.8
				c0.2,1.5-0.3,3-2,2.8c-6.1-0.6-3.8,1.6-1.6,4.2c0.8,1,0.9,2.5,1.5,3.7c2.1,4.9,3.5,10.2,8.5,13.3c1.4,1.7,2.7,3.7,5.3,1.8
				c7.8,0.1,12.9-8.4,21.5-6.8c-4.7-2.5-4.5-6.6-4.5-10.6c0-3.7-1.2-7.2-3.8-9.6c-2.6-2.4-4.8-4.7-4.1-8.9c-4.6,3.5-4.6,3.5-7.1-1.7
				c-0.9-1.8-1.6-3.7-2.6-5.5c-1.5-2.8-1.3-5,1.8-6.7c2.8-1.6,5.4-3.4,8-5.1c10-6.4,20-12.9,30.1-19.1c5.5-3.4,6.4-3.1,9,2.7
				c1.5,3.4,2.6,6.9,3.9,10.3c0.5,1.4,0.1,2.7-1.2,3.5c-1.3,0.8-2.7,1.6-4.2,0.9c-1.5-0.7-1.3-2.1-1.3-3.5c0.1-1.6,1.1-3.2-1.2-5.4
				c-0.9,5.7-4.4,8.8-8.9,11c-0.2,0.5-0.2,0.9-0.3,1.4c2.7,3.4,8.9,5.2,13,3.7c-2.7,1.1-3.1,3.3-2.6,5.8c0.4,2.3,2.3,1.3,3.6,1.5
				l0,0.1c1.4,0,2.2-0.4,1.5-2c-0.1-1.6,0.9-2.4,2.2-3c7.9-3.4,15.9-6.9,23.8-10.3c1.2-0.5,2.3-0.4,3.2,0.5c0.3,1.2,1,1.1,1.7,0.4
				c0.9-1,1.8-1.9,3.3-1.7c5.4-3.4,11.7-3.9,18.1-4.8c-11.8-3.3-12.6-12.6-12.5-22.3c-2.6,0.8-2.2,2.8-2.6,4.3
				c-0.6,1.9-1.5,3.4-3.5,3.8c-2.4,0.5-4.3,1.7-6,3.5c-1.8,1.9-3.7,1.8-5.9,0.7c-1.2-0.6-3-2.3-3.9-0.6c-1.1,2,1.3,2.6,2.7,3.4
				c1,0.6,3.1,1,1.6,2.8c-1.1,1.3-2.8,1.9-4.5,0.8c-1.3-0.9-1.7-2.4-2.2-3.8c-1-2.5-1.8-5-3-7.4
				C803.1,127.4,803.2,127.2,810.2,122.9z M421.1,281.2c-7.6-1.3-13.1,4.1-21.1,5.3c5.7-9,10.1-17.2,10.1-28.5
				C414,266.4,417.4,273.4,421.1,281.2z M507.8,237.9c-9.9,4.9-10,4.8-14.7-5.2c-2.3-4.8-4.2-9.9-8.1-13.7c-1.6-1.5-1.8-3.3-0.1-4.8
				c2-1.7,3.1,0.2,4,1.4c6.9,9.1,15.8,14.7,27.2,16c0.8,0.1,1.7,0.2,2.2,1.4C515.5,235.9,511.2,236.1,507.8,237.9z"/>
			<path id="XMLID_2_" class="st3" d="M786.9,167.2c-1.7,1.7-0.3,5.1-3.5,6.3c-1.2,0.4-2.5,0.8-2.9-0.8c-0.6-2.8,0.4-5.3,2.7-7
				C784.6,164.8,785.8,165.6,786.9,167.2z"/>
		</g>
	</g>
</g>
</svg>
