<?xml version="1.0" encoding="utf-8"?>
<!-- Generator: Adobe Illustrator 19.0.0, SVG Export Plug-In . SVG Version: 6.00 Build 0)  -->
<svg version="1.1" xmlns="http://www.w3.org/2000/svg" xmlns:xlink="http://www.w3.org/1999/xlink" x="0px" y="0px"
	 viewBox="0 0 943.1 513.5" style="enable-background:new 0 0 943.1 513.5;" xml:space="preserve">
<style type="text/css">
	.st0{display:none;}
	.st1{display:inline;fill:#212121;}
	.st2{fill:url(#XMLID_18_);}
	.st3{fill:#4D4E4E;}
</style>
<g id="Background" class="st0">
	<rect id="XMLID_62_" x="-895.7" y="-458.7" class="st1" width="2544" height="1588.1"/>
</g>
<g id="Sun">
	
		<linearGradient id="XMLID_18_" gradientUnits="userSpaceOnUse" x1="139.1676" y1="250.5061" x2="639.1676" y2="250.5061" gradientTransform="matrix(-0.7071 -0.7071 0.7071 -0.7071 487.2161 702.8238)">
		<stop  offset="0" style="stop-color:#FFCC00"/>
		<stop  offset="1" style="stop-color:#FFA91A"/>
	</linearGradient>
	<circle id="XMLID_1_" class="st2" cx="389.2" cy="250.5" r="250"/>
</g>
<g id="Aircraft">
	<path id="XMLID_22_" class="st3" d="M938,29.5c-5.8,1.9-11.5,4-17.1,6.2c-7.8,3-15.6,6-23.5,9c-6.8,2.7-13.7,5.3-20.5,8
		c-7,2.7-14,5.5-21,8.3c-7.3,2.9-14.6,5.7-21.8,8.7c-6,2.4-12,4.7-17.9,7.1c-7.4,3-14.9,6-22.3,8.9c-7.4,3-14.9,5.9-22.3,8.9
		c-6.6,2.6-13.2,5.3-19.8,8c-6.1,2.5-12.3,4.9-18.4,7.4c-6.1,2.4-12.2,4.9-18.2,7.3c-7.8,3.1-15.5,6.2-23.3,9.4
		c-6.2,2.5-12.5,5-18.7,7.6c-7.9,3.2-15.9,6.4-23.8,9.6c-6.5,2.6-13,5.3-19.6,7.9c-3.5,1.4-7,2.7-10.3,4.6c-3.7,2.2-7.4,4.2-11,6.3
		c-2.3,1.3-4.6,2.5-6.8,3.9c-4.7,2.8-9.6,5.5-14.4,8.2c-2.2,1.3-2.4,1.1-3.5-1.2c-5.1-10.6-10.2-21.1-15-31.8
		c-2.7-6-5.9-11.7-8.5-17.7c-2.9-6.7-6.6-13.1-9.5-19.9c-2.8-6.4-6.2-12.5-9.1-18.9c-3.6-8-7.8-15.8-11.4-23.8
		c-3.7-8.3-8.1-16.3-11.9-24.6c-5.2-11.3-11-22.3-16.6-33.4c-0.7-1.3-1.4-2.7-2.8-3.5c-0.1,0.1-0.2,0.1-0.3,0.2
		c-0.6,1.8,0.3,3.5,0.8,5.1c2.8,8.5,5.8,17,8.9,25.5c4.2,11.8,8.6,23.6,13,35.4c4.7,12.5,9.3,25,14.1,37.5
		c4.8,12.8,9.6,25.6,14.4,38.3c5.1,13.6,10.4,27.2,15.5,40.8c1.1,2.8,1.2,2.7-1.5,4.7c-9.7,6.9-19.4,13.8-29.1,20.7
		c-6.2,4.4-12.4,8.8-18.6,13.2c-1.7,1.2-1.8,1.2-3.2-0.3c-2.7-2.9-5.6-5.5-8.7-8.1c-7.7-6.5-16-12.1-25.7-15.3
		c-2.1-0.7-3.4-2-4.5-3.9c-4.2-7.4-9.5-13.8-16.5-18.8c-6.7-4.8-14-7.4-22.4-6.5c-6.4,0.7-12.2,3.1-17.5,6.6
		c-9.5,6.3-14.4,15.2-14.7,26.6c-0.2,8.5,2,16.5,5.4,24.2c0.7,1.5,0.8,2.8,0.3,4.4c-0.8,2-1.1,4.1-1.4,6.2c-1.2,8.5-0.9,17,0,25.4
		c0.4,3.6,0.8,7.2,1.5,10.8c0.2,1.3-0.2,2-1.4,2.3c-0.5,0.1-0.9,0.3-1.4,0.4c-17.2,5.6-34.5,11-51.7,16.6c-2.5,0.8-2.8,0.7-4.1-1.5
		c-2.3-3.8-4.7-7.5-7-11.3c-4.8-7.6-9.6-15.2-14.4-22.8c-5.5-8.7-10.9-17.4-16.4-26c-5.9-9.3-11.9-18.6-17.8-27.9
		c-6.5-10.1-13-20.2-19.4-30.4c-6.1-9.4-12.2-18.9-18.4-28.2c-3.2-4.7-6.3-9.5-9.7-14.1c-0.8-1-1.3-2.4-2.9-2.5
		c-0.1,0.1-0.2,0.1-0.3,0.2c-0.2,0.6,0,1.2,0.3,1.8c1.6,2.9,2.5,6,4,9c3.1,6,6.1,12.1,9.4,18.1c5.7,10.4,10.4,21.3,16.2,31.6
		c4,7.1,7.2,14.6,11.2,21.7c3.8,6.7,6.9,13.9,10.8,20.7c3.4,5.9,6.2,12.1,9.4,18.1c4.2,7.8,8.2,15.6,12.2,23.4
		c4.2,8.3,8.9,16.3,12.8,24.7c0.3,0.7,0.7,1.3,1.1,1.9c2.1,3.2,2.1,3.6-1.5,5.1c-6.3,2.6-12.5,5.4-18.7,8c-2.5,1-4.9,2.1-7.3,3.2
		c-4.8,2.1-9.7,3.9-14.1,6.7c-5.6,3.5-11.3,6.9-17,10.2c-5.9,3.5-11.9,7.1-17.8,10.7c-5.9,3.6-11.8,7.2-17.8,10.7
		c-5.8,3.5-11.5,7-17.3,10.5c-5.7,3.5-11.4,6.9-17.1,10.4c-5.8,3.5-11.6,7-17.4,10.5c-7,4.3-14,8.5-21,12.7
		c-6.9,4.2-13.9,8.4-20.9,12.6c-8.1,4.9-16.2,9.9-24.3,14.8c-8,4.9-16.1,9.8-24.1,14.7c-9.1,5.5-18.1,11.1-27.2,16.6
		c-7.5,4.6-15,9.2-22.5,13.8c-8.4,5.2-16.8,10.4-25.2,15.7c-5.9,3.8-11.9,7.4-17.5,11.5c-1,0.8-2.1,1.5-2.2,3
		c0.1,0.2,0.2,0.4,0.3,0.7c1.5,0.8,3,0,4.4-0.4c5.4-1.7,10.6-4,15.7-6.2c8.6-3.7,17.2-7.7,25.7-11.6c9-4.1,17.9-8.5,26.9-12.6
		c6.5-2.9,12.7-6.4,19.2-9.2c7.7-3.4,15-7.5,22.6-10.9c10.5-4.7,20.6-10.4,31.1-15.1c5.2-2.3,10.2-5,15.2-7.5
		c13.7-7,27.8-13.2,41.4-20.3c0.7-0.4,1.4-0.6,2.2-0.9c15.7-4.9,31.3-10.1,47.1-14.8c10.5-3.1,20.9-6.5,31.2-10
		c1.5-0.5,2.3-0.2,3,1.3c1.8,3.8,3.7,7.5,5.6,11.3c0.7,1.3,0.6,2.1-0.8,3c-5.8,3.5-11.7,6.8-17.6,10.3c-3.8,2.3-7.6,4.5-11.5,6.7
		c-5.4,3.2-10.9,6.4-16.3,9.6c-4.9,2.9-9.7,5.7-14.6,8.6c-5.7,3.4-11.4,7-17.1,10.4c-6.6,3.9-13.2,7.8-19.8,11.7
		c-7.7,4.6-15.3,9.2-23,13.7c-8.6,5.2-17.3,10.3-25.9,15.6c-9,5.4-17.9,10.9-26.8,16.6c-5.1,3.3-10.3,6.5-15.2,10.1
		c-0.8,0.6-1.7,1.2-2.4,2c-0.3,0.4-0.6,0.8-0.3,1.3c0.2,0.4,0.7,0.4,1.1,0.4c0.9,0,1.7-0.3,2.5-0.6c8-3,15.8-6.7,23.4-10.5
		c27.9-14,56.1-27.4,83.7-42.1c8.6-4.6,17.6-8.6,26.1-13.4c8-4.5,16.5-8.1,24.4-12.6c4.7-2.7,9.6-4.9,14.4-7.5
		c8.2-4.5,16.4-8.9,24.9-13c1.6-0.7,2.6-0.6,3.8,0.6c3.8,3.8,8.3,6.2,13.7,6.4c9.1,0.3,17.1-2.6,24-8.4c0.9-0.8,1.4-1.1,2.2,0.2
		c2.7,5,6,9.5,9.5,14c7.2,9.2,16.8,14.3,28.3,15.9c8.7,1.3,17.1,0,25.3-2.8c1.6-0.5,2.6-0.3,3.5,1.1c5.4,8.2,10.9,16.2,16.3,24.4
		c0.6,0.8,1,1.8,2.1,2.2c0.8-0.5,0.5-1.3,0.3-1.9c-0.4-1.4-0.8-2.8-1.2-4.2c-2.6-8.4-5.1-16.8-7.7-25.3c-0.6-2-0.6-2.1,1.3-3.1
		c4.2-2.4,7.9-5.4,11.4-8.7c7.5-7.3,12.5-16,15.4-26c3.3-11.3,3.6-22.7,1.1-34.2c-0.3-1.3-1.4-2.8-0.8-3.8c0.7-1.2,2.6-0.6,3.9-0.8
		c10.3-1.3,20.3-3.9,30-7.4c1.4-0.5,2.1-0.2,2.8,1.1c0.7,1.5,1.3,3,1.3,4.8c0,8.2,6.4,13.2,13.2,13c5.7-0.1,10.4-3.8,11.9-9.1
		c1.6-5.6-0.3-11-5.1-14.4c-0.8-0.6-1.5-1.2-2-2.1c-0.9-1.7-0.8-1.9,0.9-2.8c4.2-2.2,8.5-4.2,12.6-6.6c5.3-3,10.6-6.2,15.7-9.6
		c8.9-6,17.3-12.6,24.6-20.4c1.7-1.8,1.7-1.8,3.2,0.2c0.5,0.7,1,1.4,1.6,2c9.7,10.9,21.5,18.2,35.8,21.5c12.2,2.8,24.1,1.6,35.7-3.2
		c1.3-0.6,2.1-0.3,2.9,0.8c2.5,3.5,5.1,7,7.6,10.4c3.6,4.9,7.1,9.9,10.8,14.7c0.4,0.5,0.6,1.6,1.7,1.2c0.4-0.9,0-1.8-0.3-2.6
		c-3.2-9-6.3-18-9.4-27c-1.4-4.1-1.4-3.4,1.9-5.7c8.1-5.8,14.5-12.9,18.4-22.1c2.8-6.6,4.4-13.5,3.4-20.8
		c-1.1-7.9-3.4-15.5-6.7-22.8c-0.4-1-0.9-1.7,0.8-2c7.6-1.4,13.8-5.4,18.9-10.9c4.7-5,6.8-11,5.8-17.9c-0.3-2.5-0.3-2.6,1.9-3.6
		c6.1-2.9,12-6.1,18.2-8.8c9.1-3.9,17.9-8.5,26.9-12.6c7.9-3.5,15.4-7.7,23.3-11.3c10.6-4.8,20.9-10.1,31.3-15.2
		c24.4-11.9,48.5-24.1,72.8-36.2c5.4-2.7,10.6-5.7,15.9-8.5c3.4-1.7,6.8-3.5,9.9-5.9c0.7-0.5,1.8-1.1,1.3-2.1
		c-0.5-1-1.6-0.5-2.5-0.3c-3.2,0.9-6.4,2-9.5,3.1c-8.9,3.2-17.6,6.6-26.4,10c-5.8,2.3-11.5,4.5-17.3,6.9c-6.4,2.6-12.8,5.2-19.2,7.8
		c-5.4,2.2-10.9,4.5-16.3,6.7c-5.2,2.1-10.3,4.3-15.5,6.4c-5.5,2.2-11,4.5-16.5,6.8c-6.5,2.7-13.1,5.2-19.6,7.9
		c-5.4,2.2-10.8,4.4-16.2,6.6c-5.5,2.3-11.1,4.6-16.6,6.9c-6.2,2.6-12.3,5.2-18.5,7.7c-4.3,1.8-8.6,3.6-12.9,5.4
		c-1.5,0.6-2.3,0.3-3-1.2c-1.8-3.8-3.7-7.5-5.6-11.2c-0.7-1.4-0.5-2.3,0.8-3.2c3.7-2.5,7.3-5,10.9-7.6c15.4-10.9,30.5-22.2,46-33
		c3.8-2.6,7.3-5.7,11.4-7.9c8.5-4.6,17.3-8.7,25.7-13.3c12.1-6.6,24.7-12.1,36.8-18.8c9.7-5.3,19.8-9.7,29.5-15.1
		c7.1-4,14.6-7.4,21.9-11.3c7.9-4.2,15.8-8.3,23.7-12.4c5.7-2.9,11.4-6.1,17-9.1c9.9-5.2,19.8-10.6,29.5-16.3
		c3.7-2.1,7.3-4.3,10.7-6.8c0.9-0.6,1.8-1.2,1.9-2.5c-0.2-0.3-0.3-0.7-0.5-1C941,28.4,939.5,29,938,29.5z M435.1,229.4
		c-0.2,3-1.8,5-4.5,6.3c-2.4,1.1-4.4,0.3-6.2-1.2c-2.6-2.1-4-5.1-5-8.3c-1.8-5.9-0.7-15,2.6-20.4c0.7,2.8,1.2,5.6,2.2,8.2
		c2.1,5.5,5.1,10.3,10.1,13.6C435,228.1,435.2,228.7,435.1,229.4z M451.7,216.2c-1.7,5.4-7.1,8-12.5,6.2
		c-7.7-2.7-12.5-12.6-9.8-20.3c1.8-5.1,6.6-7.6,11.8-6.1c4.4,1.3,7.3,4.3,9.3,8.3C452.4,208.2,453,212.1,451.7,216.2z M470.6,211.4
		c0.1,2.3-0.3,4.4-2.6,5.6c-2.6,1.5-5.3,1.7-7.9,0c-0.7-0.5-1-1-1-1.9c0.3-9.1-3.9-16.1-10-22.6c0.4-0.1,0.7-0.2,1-0.2
		c8.1,2.1,15,5.9,19,13.7C470,207.7,470.5,209.5,470.6,211.4z M469.9,197.7c0.1,0.2,0.1,0.5,0.2,0.7c0,0.2,0,0.4,0.1,0.8
		c-10.4-12.4-25.8-16.6-38.3-11.1c-12.6,5.6-21.3,20.4-17,38.6c-1.4-1.2-2.1-2.7-2.8-4.1c-5.1-9.7-6.3-19.7-2.3-30
		c7.2-18.1,27.6-24.7,44.5-14.5C461.8,182.7,466.9,189.4,469.9,197.7z"/>
</g>
</svg>
