<?xml version="1.0" encoding="utf-8"?>
<!-- Generator: Adobe Illustrator 19.0.0, SVG Export Plug-In . SVG Version: 6.00 Build 0)  -->
<svg version="1.1" xmlns="http://www.w3.org/2000/svg" xmlns:xlink="http://www.w3.org/1999/xlink" x="0px" y="0px"
	 viewBox="0 0 500 500" style="enable-background:new 0 0 500 500;" xml:space="preserve">
<style type="text/css">
	.st0{display:none;}
	.st1{display:inline;fill:#FFFFFF;}
	.st2{fill:#333333;}
	.st3{fill:#5AC8FA;}
</style>
<g id="Background" class="st0">
	<rect id="XMLID_2_" x="0" y="0" class="st1" width="500" height="500"/>
</g>
<g id="Weapons_1_">
	<path id="Left_Tank" class="st2" d="M347.7,266.8l1.9,1.1l0.9,0.8l0.6,1.4l1.4,2.3l0.7,22.3l-0.6,0.1l-0.9-0.2l-0.9-0.6
		c0,0-1-0.9-1.1-0.9s-2-0.2-2-0.2l-1.8,0.6l-2.6,2.5l-1.7,2.8l-2.2,4.3l-0.8,2.6l-0.8,3l-0.7,3l-0.1,2.6l-0.1,3.4l0.1,3.1l1.1,4.9
		l2.4,7.4l2.4,6.9l3,6l3.3,4.1l3.6,3.5l3.4,2.7l2.5,1.6l2.6,1.2l3.6,0.8h1.7h5l1.6-0.4l2.6-1.2l2.2-2.3l2.2-3.2l1.2-2.8
		c0,0,0.8-2.4,0.8-2.5s0.4-2.8,0.4-2.8l0.3-4.2l-0.2-6l-1.3-5.8l-2.5-6.9l-3-5.7l-1.8-3.2l-2.2-3.5l-2.1-3.5l-2.7-2.7l-1-0.7
		l-0.2-0.6l0.1-0.5l5.3-0.1l0.6-0.4l0.1-0.6l-0.8-1.3l-2.2-0.5l-3.6-0.2l-0.4-0.7l-0.3-24.4l0.6-0.7l1.3-0.5l2.8-0.9L347.7,266.8"/>
	<path id="Right_Tank" class="st2" d="M152.1,266.8l-1.9,1.1l-0.9,0.8l-0.6,1.4l-1.4,2.3l-0.7,22.3l0.6,0.1l0.9-0.2l0.9-0.6
		c0,0,1-0.9,1.1-0.9s2-0.2,2-0.2l1.8,0.6l2.6,2.5l1.7,2.8l2.2,4.3l0.8,2.6l0.8,3l0.7,3l0.1,2.6l0.1,3.4l-0.1,3.1l-1.1,4.9l-2.4,7.4
		l-2.4,6.9l-3,6l-3.3,4.1l-3.6,3.5l-3.4,2.7L141,358l-2.6,1.2l-3.6,0.8h-1.7h-5l-1.6-0.4l-2.6-1.2l-2.2-2.3l-2.2-3.2l-1.2-2.8
		c0,0-0.8-2.4-0.8-2.5s-0.4-2.8-0.4-2.8l-0.3-4.2l0.2-6l1.3-5.8l2.5-6.9l3-5.7l1.8-3.2l2.2-3.5l2.1-3.5l2.7-2.7l1-0.7l0.2-0.6
		l-0.1-0.5l-5.3-0.1l-0.6-0.4l-0.1-0.6l0.8-1.3l2.2-0.5l3.6-0.2l0.4-0.7l0.3-24.4l-0.6-0.7l-1.3-0.5l-2.8-0.9L152.1,266.8"/>
	<path id="Right_Missile" class="st2" d="M23.8,287.3l1,0.2l0.6,0.3l0.6,0.4l0.5,0.5l0.1,0.5l-2.7,3.7l-3.3,4.9l-0.3,0.3
		c0,0-0.4,0.4-0.4,0.5s-0.2,0.7-0.2,0.7l-0.1,1.1l-0.1,2.1l-0.2,0.5l-0.5,0.5l-1.3,0.9l-0.2,0.4l0.1,5.1l0.2,0.2l0.4,0.2l0.6,0.2
		l0.3,0.3l0.1,0.8l-0.2,0.5l-5.2,6.4l-0.3,0.5l-0.2,0.5l-0.2,0.7l-0.2,0.8l-0.1,1.1l-0.1,1.1l0.2,1.5l0.6,0.5l0.8,0.4l0.9,0.2
		l1.5-0.2l2.4-1.8l18.8-22l0.3-0.6l0.3-0.7l0.1-1.5l-0.2-1.8l-0.8-0.8l-0.8-0.4l-0.2-0.4l0.3-0.3l0.6-0.5l0.1-8l0.1-1l0.4-0.6
		L23.8,287.3"/>
	<path id="Left_Missile_1_" class="st2" d="M477.1,287.3l-1,0.2l-0.6,0.3l-0.6,0.4l-0.5,0.5l-0.1,0.5l2.7,3.7l3.3,4.9l0.3,0.3
		c0,0,0.4,0.4,0.4,0.5s0.2,0.7,0.2,0.7l0.1,1.1l0.1,2.1l0.2,0.5l0.5,0.5l1.3,0.9l0.2,0.4l-0.1,5.1l-0.2,0.2l-0.4,0.2l-0.6,0.2
		L482,311l-0.1,0.8l0.2,0.5l5.2,6.4l0.3,0.5l0.2,0.5l0.2,0.7l0.2,0.8l0.1,1.1l0.1,1.1l-0.2,1.5l-0.6,0.5l-0.8,0.4l-0.9,0.2l-1.5-0.2
		l-2.4-1.8l-18.8-22l-0.3-0.6l-0.3-0.7l-0.1-1.5l0.2-1.8l0.8-0.8l0.8-0.4l0.2-0.4l-0.3-0.3l-0.6-0.5l-0.1-8l-0.1-1l-0.4-0.6
		L477.1,287.3"/>
	<path id="Right_Bomb" class="st2" d="M439.4,282.2l-1.3,0.4l-2,0.9l-0.7,0.6l-0.5,1v1.5l5.3,8l1.2,2.1l0.3,2.1l0.2,10.7l0.2,1.5
		l0.7,1.2l0.8,1.4l0.9,1.6l0.4,1.3l0.5,2.2l0.3,1.8l-0.2,2.5l-0.1,1.2l-1.4,2.1l-1.3,1.1l-1.1,0.4l-2.2,0.3l-1.6-0.4l-3.4-2.4
		l-7.4-7.5l-2.5-5.2l-0.9-2.5l-0.3-1.3l-0.8-0.1l-0.9,0.5l-1.1,0.8l-0.9,0.8l-1,0.2l-1.3-0.1l-0.5-0.6l5.9-5.8l0.3-0.7l0-0.5
		l-0.3-0.3l-0.4-0.4l-0.1-1l0.2-1.2l0.1-0.9l-5-5.5l-0.1-0.4l0.2-0.2l5.2,5c0,0,0.8,0.3,0.9,0.3s1.1,0.1,1.1,0.1l1.1-0.1l0.8-0.2
		l0.3-0.6l-0.1-1.1l-0.7-0.6l-0.6-0.6l-0.5-1.1l-0.9-13l-0.2-1l-0.9-1.1l17,2.5L439.4,282.2z"/>
	<path id="Left_Bomb" class="st2" d="M59.9,282.2l1.3,0.4l2,0.9l1,0.6l0.8,1v1.5l-5.6,8l-1.3,2.1l-0.4,2.1l-0.2,10.7l-0.3,1.5
		l-0.7,1.2l-0.8,1.4l-0.9,1.6l-0.4,1.3l-0.5,2.2l-0.3,1.8l0.2,2.5l0.1,1.2l1.4,2.1l1.3,1.1l1.1,0.4l2.2,0.3l1.6-0.4l3.4-2.4l7.4-7.5
		l2.5-5.2l0.9-2.5l0.3-1.3l0.8-0.1l0.9,0.5l1.1,0.8l0.9,0.8l1,0.2L82,311l0.5-0.6l-5.9-5.8l-0.3-0.7l0-0.5l0.3-0.3l0.4-0.4l0.1-1
		l-0.2-1.2l-0.1-0.9l5-5.5l0.1-0.4l-0.2-0.2l-5.2,5c0,0-0.8,0.3-0.9,0.3s-1.1,0.1-1.1,0.1l-1.1-0.1l-0.8-0.2l-0.3-0.6l0.1-1.1
		l0.7-0.6l0.6-0.6l0.5-1.1l0.9-13l0.2-1l0.9-1.1l-17,2.5L59.9,282.2z"/>
</g>
<g id="Right">
	<path id="Wing_1_" class="st2" d="M250,116.5L250,116.5l3,88.5l3.7,2.2l1.3,1.5l1,2.6l87.9,29l0.3,0.7l-0.6,0.8l-83.3-23.7l8.7,8.5
		l9.5,4.5l211.9,46.9l1.6,0.9l1.3,1.1l1.9,2.2l1.1,2c0,0,0.5,2.5,0.6,2.7s0,2.4,0,2.4l-0.9,1.7l-1.2,1.3l-2,0.8l-2.2-0.3l-2.5-0.7
		l-1.5-1.4l-1.2-1.2l-10.6-1.9l-75.8-11l-0.5,0.7l-0.4,0.9l-1.7,0.8c0,0-2.2,0.1-2.5,0.1s-4.6-0.1-4.6-0.1l-2-0.3l-1.1-0.8l-0.6-1.7
		l-0.8-1.7l-51.6-9.9l-29.2-0.5l1.1,0.8l1.7,1.5l2,2.2l2.5,3.1l1.3,2.1l0.6,1l2.6,0.5l2.4,0.6l1,1l1.7,4.7l0.1,4l0.2,5.1l0.1,1.5
		l0.4,2.3l0.2,3.7l0.1,4.2l-0.6,7.7l-1.8,7.8l-3,5.8l-1.9,2.9l-3.1,4.6l-3.5,4l-5.1,3.8l-5.6,3.6l-5.6,2.2l-3.8,1l0.8,2.5l2.3,6.3
		l1,3.1l-0.1,4.2l-4.2-6.2l-0.6,0.6l-1.5,1.2l-2.7,1l-4.2,1l-3.8,0.5l-0.8,0.3l-0.6,2.8l-0.9,2l-2,3.8l-4.9,5.7l-3.5,3.2l-7.4,3.7
		l-3.1,1.5l-2.9,0.8H250V116.5z"/>
	<polygon id="Intake_1_" class="st3" points="285,275.8 290.8,276.2 295.4,277.6 300.3,279.9 303.4,282.3 307.3,285.6 310.5,290.6 
		313.2,296 314.2,301 314.7,306.5 314.3,310.5 313.5,315.5 311.9,319.5 310.1,323.4 307.4,327 303.5,331.1 297.6,334.7 291.5,337.1 
		288.4,338.1 284.3,339 283.4,339 280.4,294 281.1,292.9 282.3,290.8 283.1,288.6 283.8,284.9 284.3,281.3 284.7,278.4 	"/>
	<polygon id="Nacelle_1_" class="st2" points="282.1,293 282.9,291.6 283.8,289.3 284.4,286.9 284.9,284.2 285.5,278 286.8,286.1 
		287.4,291.9 287.6,297.8 287.3,301.1 286.1,304.5 283.2,310.1 	"/>
</g>
<g id="Left">
	<path id="Wing" class="st2" d="M250,116.5L250,116.5l-2.9,88.5l-3.7,2.2l-1.3,1.5l-1,2.6l-87.9,29l-0.3,0.7l0.6,0.8l83.3-23.7
		l-8.7,8.5l-9.5,4.5L6.6,278.1L5,279l-1.3,1.1l-1.9,2.2l-1.1,2c0,0-0.5,2.5-0.6,2.7s0,2.4,0,2.4L1,291l1.2,1.3l2,0.8l2.2-0.3
		l2.5-0.7l1.5-1.4l1.2-1.2l10.6-1.9l75.8-11l0.5,0.7l0.4,0.9l1.7,0.8c0,0,2.2,0.1,2.5,0.1s4.6-0.1,4.6-0.1l2-0.3l1.1-0.8l0.6-1.7
		l0.8-1.7l51.6-9.9l29.2-0.5l-1.1,0.8l-1.7,1.5l-2,2.2l-2.5,3.1l-1.3,2.1l-0.6,1l-2.6,0.5l-2.4,0.6l-1,1l-1.7,4.7l-0.1,4l-0.2,5.1
		l-0.1,1.5l-0.4,2.3l-0.2,3.7l-0.1,4.2l0.6,7.7l1.8,7.8l3,5.8l1.9,2.9l3.1,4.6l3.5,4l5.1,3.8l5.6,3.6l5.6,2.2l3.8,1l-0.8,2.5
		l-2.3,6.3l-1,3.1l0.1,4.2l4.2-6.2l0.6,0.6l1.5,1.2l2.7,1l4.2,1l3.8,0.5l0.8,0.3l0.6,2.8l0.9,2l2,3.8l4.9,5.7l3.5,3.2l7.4,3.7
		l3.1,1.5l2.9,0.8h2.1V116.5z"/>
	<polygon id="Intake" class="st3" points="215,275.8 209.3,276.2 204.7,277.6 199.7,279.9 196.6,282.3 192.8,285.6 189.5,290.6 
		186.8,296 185.9,301 185.4,306.5 185.7,310.5 186.5,315.5 188.1,319.5 189.9,323.4 192.7,327 196.6,331.1 202.5,334.7 208.5,337.1 
		211.6,338.1 215.8,339 216.6,339 219.7,294 218.9,292.9 217.8,290.8 217,288.6 216.2,284.9 215.8,281.3 215.4,278.4 	"/>
	<polygon id="Nacelle" class="st2" points="217.6,293 216.8,291.6 215.9,289.3 215.3,286.9 214.8,284.2 214.1,278 212.8,286.1 
		212.2,291.9 212.1,297.8 212.4,301.1 213.6,304.5 216.4,310.1 	"/>
</g>
<g id="Canopy">
	<path id="Forward" class="st3" d="M269.7,299.6c1.2,0,5.5-1,9.2-5.8c0.6-0.8,2.6-3.5,3.6-7.9c1.2-5,0.3-9-0.3-12
		c-0.6-2.7-1.8-8-6.1-13.1c-2.3-2.8-4.6-4.3-6.1-5.4c-1.6-1.1-5.9-3.8-12.2-5.2c-5-1.1-9.1-0.8-11.4-0.6c-6.9,0.8-11.7,3.4-14.1,4.7
		c-2.7,1.5-5.4,3-8,6.1c-2.6,3.1-3.9,6.2-4.6,8.2c-1.3,3.3-1.7,6-1.9,7.4c-0.3,1.7-0.6,4.1-0.4,7.2c0.2,2.1,0.5,3.7,0.8,4.5
		c0.4,1.3,0.7,2.6,1.6,4.1c0.8,1.4,1.6,2.3,2.1,2.8c1.3,1.3,2.5,2,3.9,2.8c1.8,1,2.8,1.2,3.4,1.4c1.3,0.2,1.9,0,2.3-0.1
		c0.7-0.3,0.9-0.6,1.5-1.1c0.7-0.7,1.4-0.9,2.8-1.5c1.9-0.8,4.1-1.4,6.9-1.9c2-0.4,3.9-0.7,6.6-0.9c2.1-0.1,4.5-0.3,7.5,0.2
		c1.1,0.2,2.4,0.4,4,1c0.3,0.1,0.1,0,3.8,1.8c1.5,0.7,2,1,2.4,1.5c0.4,0.4,0.6,0.8,1.1,1.1C268,299.2,268.6,299.6,269.7,299.6z"/>
	<path id="Rear" class="st3" d="M284,271.6c0.1-2.6-0.1-4.5-0.5-6.7c-0.6-4.1-0.9-6.1-1.3-7.2c-0.8-2.8-1.9-4.6-3.2-6.9
		c-2.1-3.6-4-6.9-7.7-10.3c-4-3.7-7.9-5.4-8.9-5.8c-4.2-1.8-7.8-2.2-9.8-2.3c-1.8-0.2-4.5-0.4-8,0.2c-4.2,0.7-7.4,2.2-9,3
		c-3,1.6-4.9,3.3-6.6,4.9c-3,2.7-4.9,5.2-5.5,6.1c-0.8,1.1-2.1,2.9-3.3,5.5c-1.2,2.5-1.7,4.4-2.4,7.4c-0.2,0.8-0.8,3.3-1.4,6.6
		c-0.4,2.7-0.5,4.5-0.4,6.3c0,0.5,0,1.3,0.1,1.3c0.2,0,0.5-1.4,0.8-2.6c0,0,0.6-2.4,2-6c0.4-0.9,1.6-3.9,3.8-6.9
		c2.4-3.2,5.1-4.9,7.4-6.4c2-1.3,6.6-4,13.2-5.3c4.7-0.9,8.4-0.7,9.8-0.6c2.5,0.2,7.5,0.6,13,3.4c4.4,2.3,7.1,5,9.5,7.5
		c2.1,2.2,3.1,3.6,3.7,4.5c0.4,0.6,1.8,2.9,2.8,6.3c1.2,4,1.1,7,1.4,7C283.8,274.6,283.9,272.7,284,271.6z"/>
</g>
</svg>
