<svg xmlns="http://www.w3.org/2000/svg" viewBox="0 0 100 100">
    <path fill="#FFF" d="M37.7 41.9l11.8 6.8v-6.8l-8.8-5.1 8.8-4.9v-6.8l-11.8 6.6V17.6h5.9v-5.8h-5.9V5.9h-5.9v5.9h-5.9v5.8h5.9v14.1l-12.1-7.1 3-5.1-5.1-2.9-3 5.1-5.1-3-2.9 5.1 5.1 3-3 5 5.1 3 3-5.1 12 7-12.1 6.9-2.9-5.2-5.1 2.9 2.8 5.1-5.1 2.9 2.9 5.2 5.1-2.9 2.9 5.1 5.1-2.9-2.9-5.1 12.3-6.9v14.1h-5.9v5.9h5.9v5.8h5.9v-5.8h5.9v-5.9h-5.9z"/>
    <path fill="#5AC8FA" d="M73 65.1v-9.2h-5.9v9.2c-5.1 1.3-8.8 5.9-8.8 11.3 0 6.5 5.3 11.8 11.8 11.8 6.5 0 11.8-5.3 11.8-11.8-.1-5.4-3.8-10-8.9-11.3z"/>
    <path fill="#FFF" d="M84.8 58.1V14.7C84.8 6.6 78.2 0 70.1 0S55.4 6.6 55.4 14.7v43.4C50 62.4 46.6 69 46.6 76.4c0 13 10.6 23.5 23.5 23.5s23.5-10.6 23.5-23.5c0-7.3-3.5-14-8.8-18.3zm-14.7 36c-9.7 0-17.6-7.9-17.6-17.6 0-6.5 3.6-12.2 8.8-15.3V14.7c0-4.9 4-8.8 8.8-8.8 4.9 0 8.8 4 8.8 8.8v46.5c5.3 3.1 8.8 8.7 8.8 15.3 0 9.7-7.9 17.6-17.6 17.6z"/>
</svg>