<?xml version="1.0" encoding="utf-8"?>
<!-- Generator: Adobe Illustrator 19.0.0, SVG Export Plug-In . SVG Version: 6.00 Build 0)  -->
<svg version="1.1" id="Layer_1" xmlns="http://www.w3.org/2000/svg" xmlns:xlink="http://www.w3.org/1999/xlink" x="0px" y="0px"
	 viewBox="-199 205 100 92" style="enable-background:new -199 205 100 92;" xml:space="preserve">
<style type="text/css">
	.st0{fill:#FFFFFF;}
</style>
<g>
	<g>
		<path class="st0" d="M-199,283.4c0-25.6,0-51.2,0-76.7c0,0,0,0,0,0c0.5-1.5,1.7-2,3-1.3c7.5,3.8,15.1,7.5,22.6,11.3
			c0.2,0.1,0.4,0.1,0.6,0c1.6-0.8,3.1-1.6,4.7-2.3c6-3,11.9-6,17.9-9c0.6-0.3,1.3-0.4,2-0.1c4.6,2.1,9.3,4.3,13.9,6.4
			c3.6,1.7,7.3,3.4,10.9,5c0.2,0.1,0.3,0.1,0.5,0c1.5-0.8,3.1-1.7,4.6-2.5c3.2-1.7,6.4-3.5,9.6-5.2c2.2-1.2,4.4-2.4,6.6-3.6
			c0.5-0.3,1-0.4,1.5-0.2c1,0.2,1.6,1,1.6,2.2c0,25.2,0,50.4,0,75.5c0,1-0.4,1.6-1.2,2.1c-2.2,1.2-4.4,2.4-6.6,3.6
			c-5,2.7-10,5.5-15.1,8.2c-0.7,0.4-1.4,0.4-2.1,0c-2-1-4.1-1.9-6.2-2.9c-6.2-2.8-12.3-5.7-18.4-8.5c-0.2-0.1-0.4-0.1-0.6,0
			c-7.6,3.8-15.1,7.6-22.7,11.4c-0.7,0.4-1.4,0.4-2.1,0c-7.8-3.9-15.6-7.8-23.4-11.7C-198.2,284.7-198.8,284.2-199,283.4z
			 M-147,210.1c0,0.2,0,0.3,0,0.4c0,23.6,0,47.3,0,70.9c0,0.3,0.1,0.4,0.3,0.5c1,0.5,2.1,0.9,3.1,1.4c5.7,2.6,11.4,5.2,17.1,7.9
			c0.5,0.2,1,0.4,1.5,0.7c0-0.2,0-0.3,0-0.4c0-23.6,0-47.2,0-70.8c0-0.3-0.1-0.5-0.4-0.6c-0.1,0-0.1,0-0.2-0.1
			c-6.7-3.1-13.4-6.2-20.2-9.3C-146.1,210.5-146.5,210.3-147,210.1z M-175,291.7c0-0.2,0-0.3,0-0.4c0-23.6,0-47.2,0-70.8
			c0-0.3-0.1-0.4-0.3-0.5c-6.5-3.2-12.9-6.4-19.4-9.7c-0.1,0-0.2-0.1-0.3-0.2c0,0.1,0,0.2,0,0.3c0,23.6,0,47.2,0,70.8
			c0,0.2,0.1,0.4,0.3,0.5c6.5,3.2,12.9,6.4,19.4,9.7C-175.2,291.6-175.1,291.7-175,291.7z M-151,210.3c-0.1,0.1-0.2,0.1-0.3,0.1
			c-6.5,3.2-12.9,6.5-19.4,9.7c-0.2,0.1-0.3,0.3-0.3,0.5c0,23.6,0,47.2,0,70.8c0,0.1,0,0.2,0,0.4c0.2-0.1,0.3-0.1,0.4-0.2
			c6.4-3.2,12.9-6.4,19.3-9.6c0.3-0.1,0.3-0.3,0.3-0.6c0-23.6,0-47.1,0-70.7C-151,210.6-151,210.4-151,210.3z M-121,291.6
			c0.1-0.1,0.3-0.1,0.4-0.2c5.8-3.1,11.5-6.3,17.3-9.4c0.3-0.2,0.4-0.3,0.4-0.7c0-23.5,0-47,0-70.5c0-0.1,0-0.3,0-0.4
			c-0.1,0.1-0.2,0.1-0.3,0.1c-5.8,3.1-11.5,6.3-17.3,9.4c-0.3,0.2-0.4,0.3-0.4,0.7c0,23.5,0,47,0,70.5
			C-121,291.3-121,291.4-121,291.6z"/>
	</g>
</g>
</svg>
