<?xml version="1.0" encoding="utf-8"?>
<!-- Generator: Adobe Illustrator 19.0.0, SVG Export Plug-In . SVG Version: 6.00 Build 0)  -->
<svg version="1.1" id="Layer_1" xmlns="http://www.w3.org/2000/svg" xmlns:xlink="http://www.w3.org/1999/xlink" x="0px" y="0px"
	 viewBox="0 0 180 180" style="enable-background:new 0 0 180 180;" xml:space="preserve">
<style type="text/css">
	.st0{fill:#DE9C4F;}
	.st1{fill:#CB8D43;}
	.st2{fill:#5F6178;}
	.st3{fill:#6D7087;}
	.st4{fill:#6E7087;}
	.st5{fill:#797B90;}
	.st6{fill:#414253;}
	.st7{fill:#70707D;}
	.st8{fill:#70717C;}
	.st9{fill:#4D5063;}
	.st10{fill:#4E5063;}
	.st11{fill:#D28C38;}
	.st12{fill:#484959;}
	.st13{fill:#494B61;}
	.st14{fill:#393A4C;}
	.st15{fill:#686B80;}
	.st16{fill:#56586F;}
	.st17{fill:#494B60;}
	.st18{fill:#F4B239;}
	.st19{fill:#D09323;}
	.st20{fill:#D19323;}
	.st21{fill:#5E6077;}
	.st22{fill:#5E6078;}
	.st23{fill:#D19322;}
	.st24{fill:#F0B03B;}
	.st25{fill:#4D4B57;}
	.st26{fill:#474E6C;}
	.st27{fill:#444B6B;}
	.st28{fill:#6B502D;}
	.st29{fill:#C7A97E;}
	.st30{fill:#6A4C20;}
	.st31{fill:#C7AA7D;}
	.st32{fill:#CF9326;}
	.st33{fill:#F2B139;}
	.st34{fill:#A36F0C;}
	.st35{fill:#CF9327;}
	.st36{fill:#503918;}
	.st37{fill:#AD9168;}
	.st38{fill:#D19423;}
	.st39{fill:#F1B037;}
	.st40{fill:#626C90;}
	.st41{fill:#6D6B76;}
	.st42{fill:#A3772C;}
	.st43{fill:#E83D39;}
	.st44{fill:#DFB46A;}
	.st45{fill:#FAB22C;}
	.st46{fill:#F9B22D;}
	.st47{fill:#6B4B19;}
	.st48{fill:#BD9D6E;}
	.st49{fill:#DAAF64;}
</style>
<path id="XMLID_71_" class="st0" d="M92.4,14.1c3.3,4,7.5,5.3,12.6,5.3c7.7,0,15.4-0.9,23.1,0.8c9.9,2.3,17,8.1,22,16.8
	c3.7,6.3,5.7,13.2,7.1,20.3c-0.2,0.9-1,1.2-1.6,1.2c-4.1-0.3-7.5,1.5-10.8,3.5c-3.4,0.3-6.5-1.1-9.7-1.8c-7.2-1.6-14.4-2.7-21.6-4
	c-2.3-0.4-4-1.4-5.5-3.3c-7.6-9.2-23.9-10.4-32.2-1.7c-4.7,5-10.1,5.9-16.1,6c-2.9-0.5-2.7-2.3-1.9-4.4c3.9-9.6,8.8-18.6,16.1-26.1
	C79,21,84.7,16.2,92.4,14.1z"/>
<path id="XMLID_70_" class="st1" d="M92.4,14.1c-0.5,0.5-0.9,1.2-1.5,1.5C78,20.5,70.3,30.7,63.7,42c-2.1,3.7-3.6,7.7-5.5,11.6
	c-0.6,1.3-0.9,2.4,1,2.7c0,0.8-0.5,1.1-1.1,1.3C50.6,58.8,43.3,61,35.7,62c-3.3-1.5-6.4-3.9-10.4-3.7c-0.7,0-1.3-0.6-1.5-1.4
	c-0.2-4.5-0.8-9,0.5-13.5c1.9,2.7,0.1,5.7,0.8,7.6c-0.4-2.1,1-5.2-0.7-8.1c0.3-7.3,2.7-13.9,6.2-20.2c2.9-5.2,7.8-4.7,11,0.9
	c3.8-8.5,9.1-15.7,16.7-21c0.3-0.2,0.6-0.5,0.9-0.7c5.6-3.7,8.8-2.3,9.3,4.3c0.4,5.2,2.7,9,6.9,11.9c2.3,1.6,3.7,1.9,4.5-1.4
	c0.3-1.5,1.3-2.9,2.2-4.2c1.5-2.1,3.2-4.1,6.3-3.7C91.2,9.4,91.5,11.9,92.4,14.1z"/>
<path id="XMLID_69_" class="st2" d="M23.9,56.9c4.1,0.9,8.7,0.7,11.7,4.5c3.8,3,4.7,8.6,1.2,13.1c-2.8,3.7-3.2,7.4-3.1,11.7
	c0.1,8.7,0.1,17.4,0,26c0,6-1.5,7-7.5,5.5c-1.6-1.3-1.3-3.1-1.3-4.7c-0.1-5.1,0-10.2,0-15.4c0-2.6-0.3-5.3-3-6.6
	c-2.9-1.5-5.1,0-7.2,1.9c-0.4,0.3-0.8,0.3-1.2,0c0-8.4-0.2-16.8,0-25.2C13.5,62.3,16.6,59.3,23.9,56.9z"/>
<path id="XMLID_68_" class="st2" d="M144.5,61.5c3.3-4,8-4.1,12.6-4.2c6.5,1.7,9.5,5.4,9.5,11.9c0,7.9-0.1,15.8-0.1,23.7
	c-0.4,0.2-0.8,0.2-1.2-0.1c-2-1.8-4.2-3.2-7-2c-2.9,1.3-3.2,4.1-3.3,6.9c-0.1,5,0,10,0,15.1c0,1.7,0.2,3.5-1.3,4.8
	c-5.8,1.7-7.5,0.5-7.5-5.4c0-9.5-0.1-19.1,0-28.6c0-3.1-0.6-5.6-2.5-8.2C140,70.5,140.4,64.7,144.5,61.5z"/>
<path id="XMLID_67_" class="st3" d="M14.1,93c1-3.7,4-4,7-3.6c3.5,0.6,4.6,3.5,4.7,6.5c0.2,7.1,0.1,14.2,0.1,21.3
	c1.8,2.4,1,5.2,1.1,7.8c0.1,2.3,0.1,4.6,0,6.9c-0.8,5.6-2.3,7.5-6.4,8.3c-3.1-0.8-6.4-1.4-7.1-5.4c0.5-12.7,0.1-25.3,0.2-38
	C13.8,95.7,13.5,94.3,14.1,93z"/>
<path id="XMLID_66_" class="st4" d="M154.1,117.3c0-7.1-0.1-14.2,0.1-21.3c0.1-3.1,1.2-6,4.7-6.5c3-0.5,6-0.2,7,3.6
	c0.7,1.8,0.3,3.6,0.3,5.4c0.2,12.2-0.3,24.4,0.2,36.5c-0.6,4.2-4.4,4.4-7.2,5.9c-4-1.2-5.9-4-5.9-8.1c0-0.4,0.1-0.8,0.2-1.2
	c0.8-4.5,0-9.1,0.5-13.7C154,117.7,154,117.5,154.1,117.3z"/>
<path id="XMLID_65_" class="st5" d="M103.3,175c-1.3,3.6-3.9,5-7.6,5c-3.8-0.1-7.6,0.1-11.4-0.1c-3.1-0.2-5.7-1.4-6.1-5
	c-0.7-0.8-1-1.8-0.9-2.8c0-1.6,0.5-3.1,0.8-4.7c0.2-1.4,0.7-2.7,1-4c1.5-6.1,3.4-8.1,8.2-8.7c8.2-0.9,11.4,0.4,14.4,6.2
	c0.1,0.4,0.2,0.8,0.3,1.2c0.2,1.5,0.6,3,0.9,4.5c0.6,2.2,0.6,4.5,1,6.8C103.9,174,103.6,174.5,103.3,175z"/>
<path id="XMLID_64_" class="st4" d="M145.3,153.7c-1,3.8-3.4,6.3-6.8,8.2c-5.2,2.8-10.2,5.7-15.3,8.6c-0.4-0.8,0-1.4,0.4-2
	c4.1-6.8,1-12.7-5.2-15.1c-1.2-0.7-3.1-0.1-3.5-2.1c0.5-1.4,1.6-2.1,2.8-2.7c3.5-1.9,6.9-4.1,10.4-6c3.1-1.7,6.3-2.3,9.8-1.5
	c4.8,1.2,7.2,4.5,8.1,9.2C146.3,151.4,145.8,152.6,145.3,153.7z"/>
<path id="XMLID_63_" class="st4" d="M56.1,169.7c-5.5-3.1-11-6.2-16.5-9.4c-3.4-2-3.9-5.7-5-9c0.1-0.9-0.1-1.8,0.2-2.7
	c1.3-4.1,4-6.7,8.2-7.7c5-1.3,9,1.1,13,3.6c2.2,1.7,4.8,2.7,7.1,4.1c1.1,0.7,2.3,1.3,2.7,2.7c-0.4,1.4-1.8,1.4-2.9,1.8
	c-7.2,2.6-9.2,6.5-7.1,13.7C56.2,167.8,56.7,168.7,56.1,169.7z"/>
<path id="XMLID_62_" class="st2" d="M56.1,169.7c-2.3-4.4-3.3-8.8-0.1-13.3c1.6-2.2,3.7-2.9,6-3.9c1.2-0.5,2.7-0.2,3.7-1.3
	c1.3-1.5,1.2-3.3,1.3-5.1c0.1-1.8-0.5-3.9,1.1-5.4c2.3,1,1.7,3.1,1.6,4.7c-0.1,4,0,7.6,3.7,10.3c1.6,1.2,2.5,3.3,1.5,5.6
	c-1.2,1.3-2.9,1-4.4,1.1c-1.2,0.1-2.4-0.1-3.6,0.2c-0.9,0.2-1.7,0.6-1.8,1.6c-0.1,1.2,0.8,1.7,1.8,1.9c2.1,0.5,4.4-0.2,6.5,0.7
	c0.9,0.5,0.6,1.2,0.3,1.9c-1.3,1.7-2.7,3.4-5,3.7C63.9,174.1,59.8,172.8,56.1,169.7z"/>
<path id="XMLID_61_" class="st2" d="M118.7,152.7c8.1,2.7,10,10.2,4.4,17.7c-3.2,3-7.1,2.9-11.1,2.7c-1.6-1.1-3.6-1.4-4.9-3
	c-0.4-1-1-2.1-0.1-3.1c1.7-1,3.6-0.5,5.4-0.7c1.3-0.1,3.1-0.1,3.1-1.9c0-1.7-1.8-1.7-3.1-1.9c-2.4-0.4-4.9,0.6-7.1-1.1
	c-0.5-5.6,4.1-10.2,9.5-9.3C116.1,152.4,117.5,151.9,118.7,152.7z"/>
<path id="XMLID_60_" class="st2" d="M42.9,141.7c-3.6,1.3-6.2,3.6-7.4,7.3c-1.4,0.7-2.4-0.7-3.6-0.8c-2.9-3.8-7.8-4.8-11.2-7.8
	c3.1-1.7,5.1-4,5.3-7.7c0.7-0.5,1.4-0.5,2.1-0.1C33.1,135.5,38.5,137.8,42.9,141.7z"/>
<path id="XMLID_59_" class="st2" d="M145.2,149.8c-1.2-3.8-3.4-6.8-7.3-8.1c2.5-3.2,6.4-4.3,9.6-6.3c2-1.2,3.9-3.1,6.6-2.6
	c-0.3,4,2.9,5.7,5.2,8.1c-2.6,2.1-6.1,3.1-8,6.1C148.9,147.1,147.5,149.5,145.2,149.8z"/>
<path id="XMLID_58_" class="st6" d="M68.7,172.5c1.5-1.2,2.9-2.4,4.4-3.6c2.2,0.1,4,1,5.2,2.9c0,1,0,2,0,3
	C75,174.3,71.7,173.9,68.7,172.5z"/>
<path id="XMLID_57_" class="st7" d="M166.4,135c-1-1.2-0.6-2.6-0.6-3.9c0-12.7,0-25.4,0-38.1c0.2,0,0.4,0,0.6,0
	C166.7,107,166.8,121,166.4,135z"/>
<path id="XMLID_56_" class="st8" d="M14.1,93c0,12.7,0,25.4,0,38.1c0,1.3,0.4,2.7-0.6,3.9c-0.4-14-0.3-28-0.1-41.9
	C13.7,93,13.9,93,14.1,93z"/>
<path id="XMLID_55_" class="st9" d="M107.7,170.3c1.7,0.6,3.7,0.8,4.4,2.8c-2.9,0.9-5.8,1.6-8.8,1.8c0-0.6,0-1.1-0.1-1.7
	C103,169.8,105.4,170.2,107.7,170.3z"/>
<path id="XMLID_54_" class="st10" d="M145.2,149.8c1.7-1.5,3-3.9,6-2.8c-1.6,2.6-3.6,4.8-5.9,6.8
	C145.3,152.4,145.2,151.1,145.2,149.8z"/>
<path id="XMLID_53_" class="st11" d="M24.4,43c0.6,0.1,1.4,0.3,1.4,0.9c0.1,3.9,0,7.9-0.4,11.8c-1.4-4-0.5-8.2-1-12.2
	C24.2,43.3,24.3,43.1,24.4,43z"/>
<path id="XMLID_52_" class="st12" d="M31.8,148.2c1.6-1.3,2.4,0.6,3.6,0.8c0,0.9,0.1,1.8-0.9,2.3C33.7,150.3,32.8,149.3,31.8,148.2z
	"/>
<path id="XMLID_51_" class="st13" d="M154.1,132.8c-5.4,3-10.8,5.9-16.2,8.9c-3.9-0.5-7.5,0.3-10.8,2.4c-3.9,2.5-8,4.8-12,7.1
	c-1.6,0-1.6-1.4-1.7-2.4c-0.2-2.8-0.6-5.6,0.6-8.3c1.6-2.3,4-3.5,6.3-4.8c1.9-0.9,3.5-2.4,5.2-3.6c1.6-0.9,3.1-1.9,4.7-2.8
	c5.3-3.1,9-7.6,10.2-13.6c1.9-9,2.7-18.1-1.7-26.8c-0.9-1.6-2.3-2.8-3.7-3.9c-1.1-0.9-2.6-1.2-3.8-1.9c-0.2-0.2-0.5-0.4-0.7-0.6
	c-3.1-0.7-6.2,0.2-9.3-0.5c-0.3-0.1-0.5,0-0.5,0.1c0,0.1,0.2,0.2,0.3,0.2c-0.1,0.4-0.2,0.7-0.5,0.9c-6.6,1.7-13,4.2-19.5,6.2
	c-1,0.1-2,0.1-2.9-0.5c-0.5-0.3-0.8-0.8-1.1-1.3c-4.2-1.6-8.5-1.6-12.7,0c-0.3,0.5-0.6,1-1.1,1.3c-1.3,0.7-2.7,0.3-4-0.1
	c-6.1-2-12.1-4.1-18.4-5.6c-0.3-0.2-0.6-0.4-0.9-0.6c-2.8-1.2-6,0.6-8.6-1.3c-0.9-1.3-0.7-2.8-0.5-4.2c0.8-5.6,2.4-10.9,3.7-16.4
	c0.5-1.9,1.5-3.3,3.6-3.7c0.3-0.3,0.6-0.5,0.9-0.8c3.6,0.1,7-1.1,10.5-1.4c1.7-0.2,2.2-1.4,3-2.4c9.3-11.2,27.6-11,36.6,0.6
	c0.9,1.1,1.8,1.7,3.3,1.9c9.6,1.8,19.3,3.2,28.8,5.7c1.1,0.3,2.1,0.6,3.2,0.9c-3.4,6.5-3,9.7,1.8,15.2c1.2,1.4,1.2,2.8,1.2,4.4
	c0,10.4,0,20.8,0,31.2c0,5.1,0,5.1,5.2,5.1c0.5,0,1,0,1.5,0c0,0,0,0,0,0c0.6,4.9,0.6,9.8,0,14.7
	C154.1,132.3,154.1,132.5,154.1,132.8z"/>
<path id="XMLID_50_" class="st14" d="M58.3,57.1c-0.7,0.8-1.8,1.1-2.1,2.4c-1.7,7.2-4.2,14.3-4.4,21.8c0,0.5-0.2,1-0.5,1.4
	c-0.2,0.2-0.5,0.5-0.8,0.6c-1.7,0.6-3.4,1.1-4.9,2.2c-1.2,1.1-2.2,2.3-3.1,3.7c-1.5,2.2-2.1,4.8-2.9,7.4c-0.2,0.3-0.4,0.5-0.6,0.7
	c-0.8,4.3,0.3,8.7-0.6,13c-0.1,0.3-0.1,0.5,0,0.5c0.1,0,0.2-0.1,0.3-0.2c0.4,0,0.6,0.1,0.9,0.4c1.2,8.7,5.7,15.3,13.2,19.9
	c0.4,0.4,0.6,0.9,0.8,1.4c0.4,3.4,1.8,6.6,3,9.8c0.4,1.1,2,2.6-0.5,3.4c-4.2-2-8.1-5-13.2-3.7c-4.4-1.6-8-4.5-12-6.6
	c-1.6-0.8-3.1-1.9-4.9-2.3c0-5.1,0-10.3-0.1-15.4c6.6,0,6.6,0,6.6-6.5c0-10,0-20.1,0-30.1c0-1.5,0.1-2.8,1.2-4.1
	c4.8-5.5,5.1-8.7,1.8-15.2C43,59.6,50.5,57.5,58.3,57.1z"/>
<path id="XMLID_49_" class="st2" d="M154.1,132.1c0-4.9,0-9.8,0-14.7C155.3,122.2,155.3,127.2,154.1,132.1z"/>
<path id="XMLID_48_" class="st15" d="M115.1,140.3c-1.1,3.6-1.3,7.3,0,10.9c0.9,1.4,2.8,0.1,3.7,1.5c-9.3,0-11.1,1.2-13.3,8.8
	c-0.1,0.1-0.3,0.3-0.4,0.4c-1.4,0.7-2.8,0.6-4-0.4c-3.1-5.7-12.4-8.1-17.7-4.7c-2.6,1.7-2.4,4.6-3.6,6.9c-1.5-1.3-3.7-0.9-5.2-2.2
	c0.3-2.9-1.2-5-3.3-6.5c-2.3-1.6-2.7-3.7-2.7-6.2c0-2.6,1-5.3-0.7-7.8c-0.7,0-0.9-0.5-0.8-1.1c0.1-0.4,0.2-0.7,0.4-1.1
	c0.6-4.3,0-8.6,0.3-13c0.8-5.1,3.7-8.5,8.2-10.7c1-0.5,2-0.8,3.1-0.2c0.5,0.4,0.8,0.8,1.2,1.3c0.5,0.4,1,0.7,1.6,0.7
	c6.1,0.1,12.2,0.2,18.3,0c0.5,0,0.9-0.3,1.3-0.7c0.3-0.5,0.6-1,1-1.4c0.3-0.2,0.7-0.4,1.1-0.5c5.8,0.6,10.8,6.1,11.7,12.6
	c0.1,1,0.1,1.9,0.1,2.9c0.1,1.2,0,2.4,0,3.6C115.4,135.8,115.5,138.1,115.1,140.3z"/>
<path id="XMLID_47_" class="st16" d="M74.5,161.5c1.7,0.7,4.8-1.7,5.2,2.2c-0.3,1.2-0.5,2.4-0.8,3.6c-1.7,1.3-3.4,1.4-5.1,0
	c-2.3,0-4.6,0-7,0c-1.8,0-3.2-0.9-3.3-2.8c-0.1-2.1,1.3-3.1,3.3-3.1C69.4,161.5,72,161.5,74.5,161.5z"/>
<path id="XMLID_46_" class="st16" d="M105.5,161.5c2.5,0,5.1-0.1,7.6,0c2,0.1,4.2,0.5,4,3.1c-0.1,2.3-2,2.8-4,2.7
	c-2.1-0.1-4.1,0-6.2,0c-2,1.4-3.7,1.3-5.1-0.8c-0.2-1.5-0.5-2.9-0.7-4.4C102.4,161.3,104.1,162.5,105.5,161.5L105.5,161.5z"/>
<path id="XMLID_45_" class="st15" d="M101.8,166.7c1.6,1.1,3.4,0.7,5.1,0.8c0.5,0.9,0.9,1.8,0.7,2.9c-1.4,1.1-4,0.5-4.4,3
	C101.9,171.3,102.9,168.8,101.8,166.7z"/>
<path id="XMLID_44_" class="st15" d="M73.8,167.4c1.7,0,3.4,0,5.1,0c-0.2,1.5-0.5,3-0.7,4.5c-1.7-1-3.5-1.9-5.2-2.9
	C73.3,168.4,73.5,167.9,73.8,167.4z"/>
<path id="XMLID_43_" class="st2" d="M105.5,161.5c-1.3,1.3-2.9,0.5-4.4,0.7c0-0.2,0-0.5,0-0.7C102.5,161.5,104,161.5,105.5,161.5z"
	/>
<path id="XMLID_42_" class="st17" d="M67.1,140.4c0.3,0.2,0.5,0.4,0.8,0.6c0,3,0,6,0.1,9c0,1.9-0.8,2-2.2,1.3
	c-3.1-2.1-6.8-3.3-9.6-5.8c1.5-1.4-0.2-2.3-0.5-3.5c-0.9-3.2-3.2-6.1-2.4-9.8c0.8-0.7,1.6-0.1,2.4,0.1c1.7,0.7,3.1,1.9,4.7,3
	C62.5,137,65.5,137.7,67.1,140.4z"/>
<path id="XMLID_41_" class="st18" d="M79,115.2c-5.8,1-8.9,4.9-10.5,10.3c-0.5,5.2-1,5.6-5.3,5.5c-3.1-0.1-4.5-1.5-4.5-4.5
	c0-2.4-0.2-4.9,0.2-7.3c0.3-1.4,1.4-2.2,2.5-3c3.2-2.3,5.4-5.2,4.4-9.2c-1-4.2-4.1-6.5-8.4-7.1c-0.6-0.1-1.2-0.2-1.8-0.4
	c-2.3-1.3-3.3-3.7-5.1-5.5c-0.4-0.6-0.7-1.3-1-2c-0.1-0.4-0.2-0.8-0.2-1.1c0.2-2.4,0.2-4.8,1.5-6.9c2.7-1.7,6,0.1,8.7-1.5
	c0.4-0.1,0.8-0.1,1.2,0.1c6.7,0.8,12.8,3.3,19.1,5.6c1.8,2.7,0.7,5.7,1,8.6c0.6,7,7.5,11.2,13.8,8.2c3.8-1.8,5.2-5.2,5.5-9.2
	c0.2-2.4-0.6-4.9,1-7.1c6.6-2.2,12.9-5.3,19.9-6c0.3-0.2,0.6-0.2,1-0.1c2.8,1.2,5.6,1.2,8.4,0c0.4-0.1,0.7-0.1,1,0.1
	c1.7,0,3,0.9,4.4,1.7c0.9,1.4,0.1,2.6-0.8,3.6c-3.3,3.7-6,7.9-9.5,11.4c-1.8,0.8-3.7,1.2-5.3,2.4c-4,3-4.6,8.9-1.3,12.6
	c1.1,1.3,2.6,2.2,3,4c0.5,2.4,0.3,4.8,0.3,7.2c-0.2,5.3-2.7,6.7-7.6,4.2c-0.6-8.3-4.4-13.3-11.2-14.8c-0.5-0.3-1.1-0.3-1.7-0.3
	c-7-0.1-13.9-0.1-20.9,0c-0.4,0.1-0.7,0.2-1.1,0.3C79.4,115.1,79.2,115.2,79,115.2z"/>
<path id="XMLID_40_" class="st18" d="M139.2,88c2.8,3.6,3.4,7.9,3.5,12.1c0.3,9.7,0.3,19.5-7.7,26.9c-2.8,2.5-5.7,4.9-9.5,6
	c-1.9-1.7-1.2-4.1-1.3-6.2c-0.1-2.5-0.3-5.1,0.3-7.6c0.3-1.2,1.3-1.6,2.3-2.1c7.8-4,8.8-8.3,3.4-15.2c-0.3-0.4-0.6-0.8-0.8-1.2
	c-0.4-1,0-1.9,0.6-2.7c2.4-3.2,4.9-6.4,7.5-9.4C138,88,138.5,87.8,139.2,88z"/>
<path id="XMLID_39_" class="st19" d="M101,88.6c-0.3,4.5,1.1,9.3-1.9,13.5c-2.7,3.8-7.7,5.9-11.8,4.6c-4.4-1.4-7.6-5.5-7.7-10.1
	c0-2.8,0-5.6,0-8.4c1.2,0.1,2.4,0.2,3.7,0.3c0.4-0.3,0.9-0.4,1.4-0.2c0.2,0.2,0.3,0.5,0.3,0.8c-0.5,0.5-0.9,1.1-0.4,1.9
	c-0.1,2.3-0.5,4.6,0.4,6.9c1.1,2.8,3.1,4,6,3.6c2.8-0.4,4.3-2.1,4.5-4.9c0.1-1.9-0.1-3.9,0.3-5.8c0.2-0.5,0.4-1,0.8-1.4
	c0.3-0.3,0.5-0.5,0.9-0.6c0.2,0,0.4-0.1,0.5-0.1C99.1,88.6,100,88.6,101,88.6z"/>
<path id="XMLID_38_" class="st20" d="M125.4,118.2c0.1,4.9,0.1,9.8,0.2,14.7c-1,1.8-2.8,2.6-4.6,3.3c-1.6-2.3-4.6-1.1-6.5-2.6
	c0-1.3,0-2.5,0-3.8c7.7,0,6.3,0.9,6.5-6.6c0-1.9,0-3.9,0-5.8C122.6,116.7,124.1,116.9,125.4,118.2z"/>
<path id="XMLID_37_" class="st21" d="M108.4,62.8c-1.4,5.3-2.9,11.2-4.6,17.1c-0.3,1.1-1.2,1.6-2.3,1.1c-1.2-0.5-2.1-1.4-1.7-2.9
	c1.5-5.5,3-11,4.5-16.5c0.3-1.2,1.1-2.3,2.7-1.9C108.3,59.9,108.5,61.1,108.4,62.8z"/>
<path id="XMLID_36_" class="st22" d="M80.4,77.4c0,2,0,3.4-1.6,3.6c-1.6,0.3-2.2-1.1-2.5-2.2c-1.5-5.5-2.8-11.1-4.4-16.6
	c-0.4-1.4,0.2-2.2,1.2-2.7c1.4-0.7,2.2,0.4,2.5,1.4C77.4,66.7,79,72.4,80.4,77.4z"/>
<path id="XMLID_35_" class="st23" d="M139.2,88c-3.3,4-7,7.6-9.4,12.3c-1.8,0.6-3.2-0.3-4.5-1.4c2-3.8,5.1-6.9,7.8-10.2
	c1.1-1.3,2.3-2.4,2.5-4.3C137.1,85.3,138.3,86.5,139.2,88z"/>
<path id="XMLID_34_" class="st24" d="M114.4,133.6c1.3,0,2.6,0.1,3.9,0c2.1-0.2,2.8,0.8,2.6,2.7c-2,1.4-4,2.7-5.9,4.1
	C113.6,138.2,114.5,135.8,114.4,133.6z"/>
<path id="XMLID_33_" class="st25" d="M83.4,87.1c0.1-0.6,0.3-1.3,1-1.4c4.2-0.1,8.5-0.1,12.7,0c0.7,0,0.9,0.7,1,1.3
	C93.2,88.9,88.3,88.7,83.4,87.1z"/>
<path id="XMLID_32_" class="st26" d="M83.4,87.1c4.9,0,9.8,0,14.7,0c0,0.5,0,1,0,1.5c0,0,0,0.1,0,0.1c-4.5,1.4-8.9,1.6-13.4,0
	c-0.5-0.1-0.9-0.1-1.4-0.2C83.4,88.1,83.4,87.6,83.4,87.1z"/>
<path id="XMLID_31_" class="st27" d="M144.2,98c1.2,4,1,8.1,0,12.2C144.2,106.1,144.2,102.1,144.2,98z"/>
<path id="XMLID_30_" class="st28" d="M121.2,82.1c1.2-0.8,1.2-0.8,4.7-0.8c1.7,0,3.3,0,5,0.1c0.1,0,0.2,0.1,0.2,0.2
	c0,0.2-0.1,0.4-0.2,0.6C127.7,83.5,124.4,83.5,121.2,82.1z"/>
<path id="XMLID_29_" class="st29" d="M121.2,82.1c3.3,0,6.5,0,9.8,0c0.1,0.2,0.2,0.4,0.3,0.6c-0.3,0.1-0.5,0.1-0.8,0.2
	c-2.9,0.9-5.9,0.9-8.8,0c-0.3-0.1-0.5-0.1-0.8-0.2C121,82.4,121.1,82.2,121.2,82.1z"/>
<path id="XMLID_28_" class="st30" d="M51,82.1c0.2-0.3,0.5-0.6,0.7-0.8c2.9,0.1,5.8,0.1,8.7,0.2c0,0,0.1,0.2,0.1,0.3
	c0,0.1-0.1,0.2-0.2,0.3C57.3,83.4,54.2,83.6,51,82.1z"/>
<path id="XMLID_27_" class="st31" d="M51,82.1c3.1,0,6.2,0,9.4-0.1c0.1,0.2,0.2,0.4,0.3,0.6c-0.3,0.1-0.6,0.2-0.9,0.2
	c-2.6,1.1-5.3,0.5-8,0.5c-0.4-0.1-0.7-0.4-1-0.8C50.9,82.4,50.9,82.2,51,82.1z"/>
<path id="XMLID_26_" class="st32" d="M52.4,131.3c-8.1-4.4-13-11-13.3-20.4c-1-4.7-1-9.4,0-14.2c0.1-3.1,0.8-5.9,3-8.2
	c3.6,2.3,5.5,6.3,8.4,9.3c0.4,0.8,0.7,1.6,0.9,2.5c0.1,0.4,0.1,0.7,0,1.1c-3.5,4.9-2.9,9.8,0.1,14.7c0.5,4,0.8,8.1,1.5,12.1
	C53.1,129.3,53.3,130.4,52.4,131.3z"/>
<path id="XMLID_25_" class="st33" d="M52.4,131.3c-0.6-5.1-2-10.2-1.5-15.4c2.5-0.4,4,1,5.2,2.9c0.3,4.7,1.4,9.4-0.7,14
	c-0.8-0.2-1.5-0.4-2.3-0.6C52.9,131.9,52.6,131.6,52.4,131.3z"/>
<path id="XMLID_24_" class="st34" d="M50.2,98.1c-3.4-2.6-5.5-6.3-8.1-9.6c0.4-1.6,1.6-2.6,2.9-3.5c2.4,1.7,3.7,4.2,5.2,6.6
	c0,0.2,0.1,0.5,0.1,0.7C50.7,94.2,52,96.2,50.2,98.1z"/>
<path id="XMLID_23_" class="st35" d="M50.2,91.6c-2.3-1.7-3.9-4-5.2-6.6c1.6-1.6,3.5-2.4,5.8-2.4c0.1,0.1,0.2,0.1,0.3,0.2
	c0.3,0.5,0.2,1-0.1,1.4C50.7,86.7,50.5,89.1,50.2,91.6z"/>
<path id="XMLID_22_" class="st36" d="M38.5,110.6c0,0.1,0,0.2-0.1,0.4c-0.1,0.4-0.6,0.6-0.6,0.2c0-4.8,0.1-9.6,0.1-14.4
	c0,0,0.2-0.1,0.3-0.1c0.1,0,0.2,0.1,0.3,0.2C39,101.5,39,106,38.5,110.6z"/>
<path id="XMLID_21_" class="st37" d="M38.5,110.6c0-4.6,0-9.1,0-13.7c0.2-0.1,0.4-0.2,0.6-0.2c0,4.7,0,9.4,0,14.2
	C38.9,110.8,38.7,110.7,38.5,110.6z"/>
<path id="XMLID_20_" class="st16" d="M90.2,133.2c-6-2.4-10.7,0.4-15.4,3.5c-1.1,0.7-2.5,1.6-3.6,0.1c-1.1-1.6,0-2.9,1.3-3.6
	c5.2-3,10.2-7.2,16.9-4.3c0.7,0.3,1.4,0.2,2.1-0.1c7.1-2.8,12.1,1.8,17.5,4.9c1,0.6,1.9,1.7,0.9,3.1c-1,1.5-2.3,1.1-3.5,0.3
	c-0.7-0.5-1.4-0.9-2.1-1.4C100,132.9,95.4,131,90.2,133.2z"/>
<path id="XMLID_19_" class="st16" d="M110.4,127.9c-0.8,1.4-1.7,2.6-3.7,1.4c-1.2-0.8-2.4-1.7-3.7-2.4c-3.6-1.9-7.2-3.7-11.4-1.6
	c-0.6,0.3-1.6,0.4-2.1,0.1c-5.4-2.5-9.6,0.7-13.9,3.1c-1.4,0.8-3,2.6-4.4,0.4c-1.3-2,0.5-3,2-4c3.3-2.1,6.9-3.7,10.6-4.9
	c1.2-0.4,2.1-0.3,3.1,0.3c1.6,0.9,3.5,1.3,5,0.6c5-2.6,8.9,0.6,13,2.3c1.5,0.7,2.9,1.8,4.3,2.8C109.8,126.4,110.4,126.9,110.4,127.9
	z"/>
<path id="XMLID_18_" class="st16" d="M84.7,143c1.2,0.3,2.4,0.6,3.5,1.1c1.4,0.6,2.9,0.7,4.3,0.2c5-1.4,13.8,1.4,17.1,5.5
	c0.6,0.7,1.2,1.3,0.4,2.2c-0.6,0.8-1.3,1.5-2.5,0.9c-1.2-0.6-2.3-1.3-3.5-2c-3.7-2.3-7.5-4.1-12-2.6c-0.5,0.2-1,0.5-1.4,0.3
	c-6.3-2.6-11.3,0.6-16.3,3.8c-1.1,0.7-2.2,1.3-3.2,0c-0.8-1.2-0.6-2.5,0.6-3.3C75.8,146.6,80.1,144.5,84.7,143z"/>
<path id="XMLID_17_" class="st16" d="M96.2,139.7c-3.7,1.7-7.3,0.8-11.1,0.2c-2.8-0.4-5.7,1.8-8.3,3.3c-1.6,1-3.7,3.5-5.4,1.1
	c-2-2.8,1.4-3.7,3.1-4.6c4.4-2.4,8.7-5.6,14.3-3.4c1.2,0.4,2.8,0.4,4-0.1c7-2.4,11.6,2.5,16.9,5.5c1,0.6,1,1.6,0.3,2.6
	c-0.8,1.2-1.8,1.1-2.9,0.5c-2.5-1.3-4.9-2.7-7.4-4C98.6,140.4,97.4,140.1,96.2,139.7z"/>
<path id="XMLID_16_" class="st38" d="M55.4,132.8c0-4.9,0-9.8,0-14.7c1.4-1.3,2.9-1.2,4.4,0c0,2.8,0.1,5.6,0,8.4
	c-0.1,2,0.1,3.8,2.8,3.3c2.1-0.4,5.6,1.6,5.4-3c0-0.4,0.3-0.9,0.5-1.3c-0.3,4.8,0.7,9.6-0.5,14.4c-0.3-0.2-0.5-0.5-0.6-0.9
	c-1.5-5.2-2.6-5.6-7.5-3.2C58.3,134.8,56.9,133.8,55.4,132.8z"/>
<path id="XMLID_15_" class="st39" d="M59.7,135.8c0.7-4.4,4-1.7,6.1-2.2c2.2-0.5,2,1.5,2,2.9c0,1.1,0,2.2,0,3.3
	c-0.3,0.2-0.6,0.3-0.9,0.5C64.6,138.9,62.2,137.4,59.7,135.8z"/>
<path id="XMLID_14_" class="st40" d="M79,116.6c0-0.5,0-0.9,0-1.4c0,0-0.1-0.1-0.1-0.1c1.7-1.1,3.5-0.6,5.3-0.6
	c4.8-0.1,9.7,0,14.5,0c1.3,0,2.7-0.3,3.8,0.8c0,0.5,0,0.9,0,1.4c-1,0.9-2.3,0.7-3.5,0.7c-5.5,0-11,0-16.5,0
	C81.3,117.3,80,117.5,79,116.6z"/>
<path id="XMLID_13_" class="st41" d="M79,116.6c7.9,0,15.7,0,23.6,0c-0.1,1.3-1,1.5-2.1,1.5c-6.5,0-12.9,0-19.4,0
	C80,118.1,79.1,117.9,79,116.6z"/>
<path id="XMLID_12_" class="st42" d="M102.5,115.2c-7.9-0.1-15.7-0.1-23.6-0.2c0-0.2,0.1-0.4,0.1-0.6c7.8-0.8,15.7-0.6,23.5-0.1
	c0.2,0.2,0.5,0.4,0.7,0.6C103,115.1,102.8,115.2,102.5,115.2z"/>
<path id="XMLID_11_" class="st43" d="M59.7,118.1c-1.5,0-2.9,0-4.4,0c-1.5-0.8-3-1.5-4.4-2.3c-4.1-5-4.1-8.4,0.1-15.4
	c1.2-1.1,2.4-2.3,4.3-1.6c3.5-0.2,6.7,0.7,9.2,3.4C69.3,107.7,66.9,115.3,59.7,118.1z"/>
<path id="XMLID_10_" class="st43" d="M125.3,98.8c1.7-0.1,3.1,0.6,4.5,1.4c3.2,2.8,6,5.8,4.5,10.5c-1.4,4.3-4.3,6.8-8.9,7.4
	c-1.5-0.1-3,0-4.4-0.8c-4.7-2.6-6.1-6.8-5-11.8C116.6,102.1,120.6,99.4,125.3,98.8z"/>
<path id="XMLID_9_" class="st32" d="M55.4,98.9c-1.5,0.4-2.6,1.9-4.3,1.6c0,0-0.1-0.1-0.1-0.1c-0.5-2.2-0.6-4.4,0-6.7
	C53.1,94.9,54.1,97,55.4,98.9z"/>
<path id="XMLID_8_" class="st44" d="M102.5,114.4c-7.8,0-15.7,0.1-23.5,0.1c0.5-0.9,1.4-0.8,2.3-0.8c6.4,0,12.9,0,19.3,0
	C101.3,113.7,102,113.7,102.5,114.4z"/>
<path id="XMLID_7_" class="st45" d="M51,84.2c0-0.5,0.1-0.9,0.1-1.4c2.9,0,5.8,0,8.6,0c-0.7,2.3-2.6,1.1-4,1.3
	C54.2,84.3,52.6,84.2,51,84.2z"/>
<path id="XMLID_6_" class="st46" d="M121.7,82.8c2.9,0,5.9,0,8.8,0C128.3,84.8,123.8,84.8,121.7,82.8z"/>
<path id="XMLID_5_" class="st35" d="M51,93.7c0,2.2,0,4.4,0,6.7c-0.9-0.5-0.7-1.4-0.7-2.2c0-2,0-3.9,0.1-5.9
	C50.5,92.8,50.8,93.2,51,93.7z"/>
<path id="XMLID_4_" class="st18" d="M96.7,90.1c0,2.2,0,4.4,0,6.6c-0.1,3.4-2.1,5.6-5.4,5.9c-3.8,0.4-6.1-1.2-7.2-4.6
	c-0.9-2.7-0.3-5.3,0-7.9c1.2-0.8,2.6-0.7,3.9-0.7C90.9,89.7,93.9,88.6,96.7,90.1z"/>
<path id="XMLID_3_" class="st47" d="M84.7,88.7c4.5,0,8.9,0,13.4,0c-0.3,0.2-0.6,0.5-0.9,0.7c-3,0.7-6.1,0.2-9.2,0.3
	c-1.1-0.2-2.2,0.4-3.2-0.4C84.9,89.1,84.8,88.9,84.7,88.7z"/>
<path id="XMLID_2_" class="st48" d="M87.8,89.5c3.2,0,6.4-0.1,9.5-0.1c-0.2,0.2-0.4,0.5-0.6,0.7c-3,0-5.9,0-8.9,0
	c-0.2-0.1-0.3-0.2-0.3-0.4C87.6,89.5,87.7,89.5,87.8,89.5z"/>
<path id="XMLID_1_" class="st49" d="M87.8,89.5c0,0.2,0,0.4,0,0.6c-1.2,0-2.5,0-3.7,0c-0.5-1.1,0.6-0.5,0.9-0.8
	C85.9,89.3,86.8,89.4,87.8,89.5z"/>
</svg>
